<?xml version="1.0" encoding="UTF-8"?>
<svg id="Layer_1" xmlns="http://www.w3.org/2000/svg" version="1.1" viewBox="0 0 4305 1305">
  <!-- Generator: Adobe Illustrator 29.3.1, SVG Export Plug-In . SVG Version: 2.1.0 Build 151)  -->
  <defs>
    <style>
      .st0 {
        fill: #231f20;
      }

      .st1 {
        fill: #fff;
        stroke: #a7a9ac;
        stroke-miterlimit: 10;
      }
    </style>
  </defs>
  <rect class="st1" x="2.5" y="2.5" width="4300" height="1300"/>
  <path class="st0" d="M2140.51,455.09l-85.76,82.63c-16.48,15.88-19.4,18.21-45.15,18.21h-52.5c-8.25,0-15,6.75-15,15v163.12c0,8.25,6.75,15,15,15h52.5c25.75,0,28.67,2.33,45.15,18.22l85.76,82.63c10.39,10.02,18.9,6.4,18.9-8.03v-378.74c0-14.44-8.51-18.05-18.9-8.04Z"/>
  <path class="st0" d="M2297.59,469c-8.29-9.94-23.06-11.29-33.01-3-9.94,8.29-11.28,23.07-3,33.01,73.63,88.34,71.91,220.1-4,306.51-8.54,9.73-7.59,24.54,2.14,33.08,4.45,3.91,9.97,5.83,15.46,5.83,6.51,0,12.98-2.7,17.62-7.97,44.37-50.5,69.26-115.51,70.08-183.05.82-67.41-22.37-132.91-65.29-184.41Z"/>
  <path class="st0" d="M2235.57,532.47c-7.82-10.32-22.52-12.35-32.83-4.54-10.32,7.81-12.35,22.52-4.54,32.83,41.37,54.63,39.88,129.77-3.63,182.73-8.22,10-6.77,24.77,3.23,32.99,4.36,3.58,9.63,5.32,14.87,5.32,6.77,0,13.49-2.92,18.12-8.56,27.6-33.61,43.26-76.14,44.07-119.76.81-43.51-13.14-86.49-39.3-121.02Z"/>
  <path class="st0" d="M2555.41,652.5c0-222.52-180.39-402.9-402.91-402.9s-402.9,180.39-402.9,402.9,180.39,402.9,402.9,402.9,402.91-180.39,402.91-402.9ZM2513.41,652.5c0,199.32-161.58,360.9-360.91,360.9s-360.9-161.58-360.9-360.9,161.58-360.9,360.9-360.9,360.91,161.58,360.91,360.9Z"/>
</svg>