<svg width="156" height="115" viewBox="0 0 156 115" fill="none" xmlns="http://www.w3.org/2000/svg">
<rect x="3" y="3" width="150" height="100" rx="27" fill="#D9D9D9" stroke="black" stroke-width="6"/>
<path d="M59.737 74V67.28L77.017 50.96C78.3823 49.7227 79.385 48.6133 80.025 47.632C80.665 46.6507 81.0917 45.7547 81.305 44.944C81.561 44.1333 81.689 43.3867 81.689 42.704C81.689 40.912 81.0703 39.5467 79.833 38.608C78.6383 37.6267 76.8677 37.136 74.521 37.136C72.6437 37.136 70.8943 37.4987 69.273 38.224C67.6943 38.9493 66.3503 40.08 65.241 41.616L57.689 36.752C59.3957 34.192 61.785 32.1653 64.857 30.672C67.929 29.1787 71.4703 28.432 75.481 28.432C78.809 28.432 81.7103 28.9867 84.185 30.096C86.7023 31.1627 88.6437 32.6773 90.009 34.64C91.417 36.6027 92.121 38.9493 92.121 41.68C92.121 43.1307 91.929 44.5813 91.545 46.032C91.2037 47.44 90.4783 48.9333 89.369 50.512C88.3023 52.0907 86.7237 53.8613 84.633 55.824L70.297 69.328L68.313 65.552H93.593V74H59.737Z" fill="black"/>
</svg>
