<svg width="156" height="114" viewBox="0 0 156 114" fill="none" xmlns="http://www.w3.org/2000/svg">
<rect x="3" y="3" width="150" height="100" rx="27" fill="#D9D9D9" stroke="black" stroke-width="6"/>
<path d="M79.653 73.768C75.557 73.768 71.9943 72.9147 68.965 71.208C65.9783 69.5013 63.6743 67.0053 62.053 63.72C60.4317 60.4347 59.621 56.3813 59.621 51.56C59.621 46.3973 60.581 42.024 62.501 38.44C64.4637 34.856 67.1517 32.1253 70.565 30.248C74.021 28.3707 77.989 27.432 82.469 27.432C84.8583 27.432 87.141 27.688 89.317 28.2C91.493 28.712 93.3703 29.48 94.949 30.504L91.109 38.12C89.8717 37.2667 88.549 36.6907 87.141 36.392C85.733 36.0507 84.261 35.88 82.725 35.88C78.8423 35.88 75.7703 37.0533 73.509 39.4C71.2477 41.7467 70.117 45.224 70.117 49.832C70.117 50.6 70.117 51.4533 70.117 52.392C70.1597 53.3307 70.2877 54.2693 70.501 55.208L67.621 52.52C68.4317 50.856 69.477 49.4693 70.757 48.36C72.037 47.208 73.5517 46.3547 75.301 45.8C77.093 45.2027 79.0557 44.904 81.189 44.904C84.0903 44.904 86.693 45.48 88.997 46.632C91.301 47.784 93.1357 49.4053 94.501 51.496C95.909 53.5867 96.613 56.04 96.613 58.856C96.613 61.8853 95.845 64.5307 94.309 66.792C92.8157 69.0107 90.789 70.7387 88.229 71.976C85.7117 73.1707 82.853 73.768 79.653 73.768ZM79.077 66.024C80.5277 66.024 81.8077 65.768 82.917 65.256C84.069 64.7013 84.965 63.912 85.605 62.888C86.245 61.864 86.565 60.6907 86.565 59.368C86.565 57.32 85.861 55.6987 84.453 54.504C83.0877 53.2667 81.253 52.648 78.949 52.648C77.413 52.648 76.069 52.9467 74.917 53.544C73.765 54.0987 72.8477 54.888 72.165 55.912C71.525 56.8933 71.205 58.0453 71.205 59.368C71.205 60.648 71.525 61.8 72.165 62.824C72.805 63.8053 73.701 64.5947 74.853 65.192C76.005 65.7467 77.413 66.024 79.077 66.024Z" fill="black"/>
</svg>
