<svg width="535" height="119" viewBox="0 0 535 119" fill="none" xmlns="http://www.w3.org/2000/svg">
<rect x="381.5" y="3.5" width="150" height="100" rx="27" fill="#D9D9D9" stroke="black" stroke-width="6"/>
<path d="M434.922 64.092V57.116L456.042 28.7H466.922L446.25 57.116L441.194 55.644H476.458V64.092H434.922ZM459.05 73.5V64.092L459.37 55.644V47.26H469.162V73.5H459.05Z" fill="black"/>
<rect x="3" y="3" width="150" height="100" rx="27" fill="#D9D9D9" stroke="black" stroke-width="6"/>
<path d="M63.237 77.5V70.78L80.517 54.46C81.8823 53.2227 82.885 52.1133 83.525 51.132C84.165 50.1507 84.5917 49.2547 84.805 48.444C85.061 47.6333 85.189 46.8867 85.189 46.204C85.189 44.412 84.5703 43.0467 83.333 42.108C82.1383 41.1267 80.3677 40.636 78.021 40.636C76.1437 40.636 74.3943 40.9987 72.773 41.724C71.1943 42.4493 69.8503 43.58 68.741 45.116L61.189 40.252C62.8957 37.692 65.285 35.6653 68.357 34.172C71.429 32.6787 74.9703 31.932 78.981 31.932C82.309 31.932 85.2103 32.4867 87.685 33.596C90.2023 34.6627 92.1437 36.1773 93.509 38.14C94.917 40.1027 95.621 42.4493 95.621 45.18C95.621 46.6307 95.429 48.0813 95.045 49.532C94.7037 50.94 93.9783 52.4333 92.869 54.012C91.8023 55.5907 90.2237 57.3613 88.133 59.324L73.797 72.828L71.813 69.052H97.093V77.5H63.237Z" fill="black"/>
<rect x="192.5" y="3.5" width="150" height="100" rx="27" fill="#D9D9D9" stroke="black" stroke-width="6"/>
<path d="M269.153 74.268C265.057 74.268 261.494 73.4147 258.465 71.708C255.478 70.0013 253.174 67.5053 251.553 64.22C249.932 60.9347 249.121 56.8813 249.121 52.06C249.121 46.8973 250.081 42.524 252.001 38.94C253.964 35.356 256.652 32.6253 260.065 30.748C263.521 28.8707 267.489 27.932 271.969 27.932C274.358 27.932 276.641 28.188 278.817 28.7C280.993 29.212 282.87 29.98 284.449 31.004L280.609 38.62C279.372 37.7667 278.049 37.1907 276.641 36.892C275.233 36.5507 273.761 36.38 272.225 36.38C268.342 36.38 265.27 37.5533 263.009 39.9C260.748 42.2467 259.617 45.724 259.617 50.332C259.617 51.1 259.617 51.9533 259.617 52.892C259.66 53.8307 259.788 54.7693 260.001 55.708L257.121 53.02C257.932 51.356 258.977 49.9693 260.257 48.86C261.537 47.708 263.052 46.8547 264.801 46.3C266.593 45.7027 268.556 45.404 270.689 45.404C273.59 45.404 276.193 45.98 278.497 47.132C280.801 48.284 282.636 49.9053 284.001 51.996C285.409 54.0867 286.113 56.54 286.113 59.356C286.113 62.3853 285.345 65.0307 283.809 67.292C282.316 69.5107 280.289 71.2387 277.729 72.476C275.212 73.6707 272.353 74.268 269.153 74.268ZM268.577 66.524C270.028 66.524 271.308 66.268 272.417 65.756C273.569 65.2013 274.465 64.412 275.105 63.388C275.745 62.364 276.065 61.1907 276.065 59.868C276.065 57.82 275.361 56.1987 273.953 55.004C272.588 53.7667 270.753 53.148 268.449 53.148C266.913 53.148 265.569 53.4467 264.417 54.044C263.265 54.5987 262.348 55.388 261.665 56.412C261.025 57.3933 260.705 58.5453 260.705 59.868C260.705 61.148 261.025 62.3 261.665 63.324C262.305 64.3053 263.201 65.0947 264.353 65.692C265.505 66.2467 266.913 66.524 268.577 66.524Z" fill="black"/>
</svg>
