<svg width="535" height="319" viewBox="0 0 535 319" fill="none" xmlns="http://www.w3.org/2000/svg">
<path d="M30 3H505C519.912 3 532 15.0883 532 30V289C532 303.912 519.912 316 505 316H30C15.0883 316 3 303.912 3 289V30C3 15.0883 15.0883 3 30 3Z" fill="#D9D9D9" stroke="black" stroke-width="6"/>
<path d="M509.5 259C509.5 279.681 492.516 296.5 471.5 296.5C450.484 296.5 433.5 279.681 433.5 259C433.5 238.319 450.484 221.5 471.5 221.5C492.516 221.5 509.5 238.319 509.5 259Z" stroke="black" stroke-width="5"/>
<path d="M486.14 245.86C489.889 249.611 491.996 254.697 491.996 260C491.996 265.304 489.889 270.39 486.14 274.14M479.08 252.92C480.955 254.796 482.008 257.339 482.008 259.99C482.008 262.642 480.955 265.185 479.08 267.06M470 246L460 254H452V266H460L470 274V246Z" stroke="#1E1E1E" stroke-width="4" stroke-linecap="round" stroke-linejoin="round"/>
<path d="M65.296 55V36.824H58.128V32.6H77.648V36.824H70.48V55H65.296ZM90.5493 37.528C91.9146 37.528 93.1306 37.8053 94.1973 38.36C95.2853 38.8933 96.1386 39.7253 96.7573 40.856C97.3759 41.9653 97.6853 43.3947 97.6853 45.144V55H92.6933V45.912C92.6933 44.5253 92.3839 43.5013 91.7653 42.84C91.1679 42.1787 90.3146 41.848 89.2053 41.848C88.4159 41.848 87.7013 42.0187 87.0613 42.36C86.4426 42.68 85.9519 43.1813 85.5893 43.864C85.2479 44.5467 85.0773 45.4213 85.0773 46.488V55H80.0853V31.256H85.0773V42.552L83.9573 41.112C84.5759 39.96 85.4613 39.0747 86.6133 38.456C87.7653 37.8373 89.0773 37.528 90.5493 37.528ZM110.879 55.256C108.917 55.256 107.189 54.872 105.695 54.104C104.223 53.336 103.082 52.2907 102.271 50.968C101.461 49.624 101.055 48.0987 101.055 46.392C101.055 44.664 101.45 43.1387 102.239 41.816C103.05 40.472 104.149 39.4267 105.535 38.68C106.922 37.912 108.49 37.528 110.239 37.528C111.925 37.528 113.439 37.8907 114.783 38.616C116.149 39.32 117.226 40.344 118.015 41.688C118.805 43.0107 119.199 44.6 119.199 46.456C119.199 46.648 119.189 46.872 119.167 47.128C119.146 47.3627 119.125 47.5867 119.103 47.8H105.119V44.888H116.479L114.559 45.752C114.559 44.856 114.378 44.0773 114.015 43.416C113.653 42.7547 113.151 42.2427 112.511 41.88C111.871 41.496 111.125 41.304 110.271 41.304C109.418 41.304 108.661 41.496 107.999 41.88C107.359 42.2427 106.858 42.7653 106.495 43.448C106.133 44.1093 105.951 44.8987 105.951 45.816V46.584C105.951 47.5227 106.154 48.3547 106.559 49.08C106.986 49.784 107.573 50.328 108.319 50.712C109.087 51.0747 109.983 51.256 111.007 51.256C111.925 51.256 112.725 51.1173 113.407 50.84C114.111 50.5627 114.751 50.1467 115.327 49.592L117.983 52.472C117.194 53.368 116.202 54.0613 115.007 54.552C113.813 55.0213 112.437 55.256 110.879 55.256ZM153.633 37.528C154.999 37.528 156.204 37.8053 157.249 38.36C158.316 38.8933 159.148 39.7253 159.745 40.856C160.364 41.9653 160.673 43.3947 160.673 45.144V55H155.681V45.912C155.681 44.5253 155.393 43.5013 154.817 42.84C154.241 42.1787 153.431 41.848 152.385 41.848C151.66 41.848 151.009 42.0187 150.433 42.36C149.857 42.68 149.409 43.1707 149.089 43.832C148.769 44.4933 148.609 45.336 148.609 46.36V55H143.617V45.912C143.617 44.5253 143.329 43.5013 142.753 42.84C142.199 42.1787 141.399 41.848 140.353 41.848C139.628 41.848 138.977 42.0187 138.401 42.36C137.825 42.68 137.377 43.1707 137.057 43.832C136.737 44.4933 136.577 45.336 136.577 46.36V55H131.585V37.784H136.353V42.488L135.457 41.112C136.055 39.9387 136.897 39.0533 137.985 38.456C139.095 37.8373 140.353 37.528 141.761 37.528C143.34 37.528 144.716 37.9333 145.889 38.744C147.084 39.5333 147.873 40.7493 148.257 42.392L146.497 41.912C147.073 40.568 147.991 39.5013 149.249 38.712C150.529 37.9227 151.991 37.528 153.633 37.528ZM175.708 55V51.64L175.388 50.904V44.888C175.388 43.8213 175.057 42.9893 174.396 42.392C173.756 41.7947 172.764 41.496 171.42 41.496C170.502 41.496 169.596 41.6453 168.7 41.944C167.825 42.2213 167.078 42.6053 166.46 43.096L164.668 39.608C165.606 38.9467 166.737 38.4347 168.06 38.072C169.382 37.7093 170.726 37.528 172.092 37.528C174.716 37.528 176.753 38.1467 178.204 39.384C179.654 40.6213 180.38 42.552 180.38 45.176V55H175.708ZM170.46 55.256C169.116 55.256 167.964 55.032 167.004 54.584C166.044 54.1147 165.308 53.4853 164.796 52.696C164.284 51.9067 164.028 51.0213 164.028 50.04C164.028 49.016 164.273 48.12 164.764 47.352C165.276 46.584 166.076 45.9867 167.164 45.56C168.252 45.112 169.67 44.888 171.42 44.888H175.996V47.8H171.964C170.79 47.8 169.98 47.992 169.532 48.376C169.105 48.76 168.892 49.24 168.892 49.816C168.892 50.456 169.137 50.968 169.628 51.352C170.14 51.7147 170.833 51.896 171.708 51.896C172.54 51.896 173.286 51.704 173.948 51.32C174.609 50.9147 175.089 50.328 175.388 49.56L176.156 51.864C175.793 52.9733 175.132 53.816 174.172 54.392C173.212 54.968 171.974 55.256 170.46 55.256ZM195.362 37.528C196.727 37.528 197.943 37.8053 199.01 38.36C200.098 38.8933 200.951 39.7253 201.57 40.856C202.188 41.9653 202.498 43.3947 202.498 45.144V55H197.506V45.912C197.506 44.5253 197.196 43.5013 196.578 42.84C195.98 42.1787 195.127 41.848 194.018 41.848C193.228 41.848 192.514 42.0187 191.874 42.36C191.255 42.68 190.764 43.1813 190.402 43.864C190.06 44.5467 189.89 45.4213 189.89 46.488V55H184.898V37.784H189.666V42.552L188.77 41.112C189.388 39.96 190.274 39.0747 191.426 38.456C192.578 37.8373 193.89 37.528 195.362 37.528ZM223.349 55.256C221.92 55.256 220.64 54.9787 219.509 54.424C218.4 53.8693 217.536 53.0267 216.917 51.896C216.299 50.744 215.989 49.2827 215.989 47.512V37.784H220.981V46.776C220.981 48.2053 221.28 49.2613 221.877 49.944C222.496 50.6053 223.36 50.936 224.469 50.936C225.237 50.936 225.92 50.776 226.517 50.456C227.115 50.1147 227.584 49.6027 227.925 48.92C228.267 48.216 228.437 47.3413 228.437 46.296V37.784H233.429V55H228.693V50.264L229.557 51.64C228.981 52.8347 228.128 53.7413 226.997 54.36C225.888 54.9573 224.672 55.256 223.349 55.256ZM243.846 55.256C242.374 55.256 240.955 55.0853 239.59 54.744C238.246 54.3813 237.179 53.9333 236.39 53.4L238.054 49.816C238.843 50.3067 239.771 50.712 240.838 51.032C241.926 51.3307 242.993 51.48 244.038 51.48C245.19 51.48 246.001 51.3413 246.47 51.064C246.961 50.7867 247.206 50.4027 247.206 49.912C247.206 49.5067 247.014 49.208 246.63 49.016C246.267 48.8027 245.777 48.6427 245.158 48.536C244.539 48.4293 243.857 48.3227 243.11 48.216C242.385 48.1093 241.649 47.9707 240.902 47.8C240.155 47.608 239.473 47.3307 238.854 46.968C238.235 46.6053 237.734 46.1147 237.35 45.496C236.987 44.8773 236.806 44.0773 236.806 43.096C236.806 42.008 237.115 41.048 237.734 40.216C238.374 39.384 239.291 38.7333 240.486 38.264C241.681 37.7733 243.11 37.528 244.774 37.528C245.947 37.528 247.142 37.656 248.358 37.912C249.574 38.168 250.587 38.5413 251.398 39.032L249.734 42.584C248.902 42.0933 248.059 41.7627 247.206 41.592C246.374 41.4 245.563 41.304 244.774 41.304C243.665 41.304 242.854 41.4533 242.342 41.752C241.83 42.0507 241.574 42.4347 241.574 42.904C241.574 43.3307 241.755 43.6507 242.118 43.864C242.502 44.0773 243.003 44.248 243.622 44.376C244.241 44.504 244.913 44.6213 245.638 44.728C246.385 44.8133 247.131 44.952 247.878 45.144C248.625 45.336 249.297 45.6133 249.894 45.976C250.513 46.3173 251.014 46.7973 251.398 47.416C251.782 48.0133 251.974 48.8027 251.974 49.784C251.974 50.8507 251.654 51.8 251.014 52.632C250.374 53.4427 249.446 54.0827 248.23 54.552C247.035 55.0213 245.574 55.256 243.846 55.256ZM263.598 55.256C261.635 55.256 259.907 54.872 258.414 54.104C256.942 53.336 255.801 52.2907 254.99 50.968C254.179 49.624 253.774 48.0987 253.774 46.392C253.774 44.664 254.169 43.1387 254.958 41.816C255.769 40.472 256.867 39.4267 258.254 38.68C259.641 37.912 261.209 37.528 262.958 37.528C264.643 37.528 266.158 37.8907 267.502 38.616C268.867 39.32 269.945 40.344 270.734 41.688C271.523 43.0107 271.918 44.6 271.918 46.456C271.918 46.648 271.907 46.872 271.886 47.128C271.865 47.3627 271.843 47.5867 271.822 47.8H257.838V44.888H269.198L267.278 45.752C267.278 44.856 267.097 44.0773 266.734 43.416C266.371 42.7547 265.87 42.2427 265.23 41.88C264.59 41.496 263.843 41.304 262.99 41.304C262.137 41.304 261.379 41.496 260.718 41.88C260.078 42.2427 259.577 42.7653 259.214 43.448C258.851 44.1093 258.67 44.8987 258.67 45.816V46.584C258.67 47.5227 258.873 48.3547 259.278 49.08C259.705 49.784 260.291 50.328 261.038 50.712C261.806 51.0747 262.702 51.256 263.726 51.256C264.643 51.256 265.443 51.1173 266.126 50.84C266.83 50.5627 267.47 50.1467 268.046 49.592L270.702 52.472C269.913 53.368 268.921 54.0613 267.726 54.552C266.531 55.0213 265.155 55.256 263.598 55.256ZM282.634 55.256C281.012 55.256 279.551 54.8933 278.25 54.168C276.948 53.4213 275.914 52.3867 275.146 51.064C274.399 49.7413 274.026 48.184 274.026 46.392C274.026 44.5787 274.399 43.0107 275.146 41.688C275.914 40.3653 276.948 39.3413 278.25 38.616C279.551 37.8907 281.012 37.528 282.634 37.528C284.084 37.528 285.354 37.848 286.442 38.488C287.53 39.128 288.372 40.0987 288.97 41.4C289.567 42.7013 289.866 44.3653 289.866 46.392C289.866 48.3973 289.578 50.0613 289.002 51.384C288.426 52.6853 287.594 53.656 286.506 54.296C285.439 54.936 284.148 55.256 282.634 55.256ZM283.498 51.16C284.308 51.16 285.044 50.968 285.706 50.584C286.367 50.2 286.89 49.656 287.274 48.952C287.679 48.2267 287.882 47.3733 287.882 46.392C287.882 45.3893 287.679 44.536 287.274 43.832C286.89 43.128 286.367 42.584 285.706 42.2C285.044 41.816 284.308 41.624 283.498 41.624C282.666 41.624 281.919 41.816 281.258 42.2C280.596 42.584 280.063 43.128 279.658 43.832C279.274 44.536 279.082 45.3893 279.082 46.392C279.082 47.3733 279.274 48.2267 279.658 48.952C280.063 49.656 280.596 50.2 281.258 50.584C281.919 50.968 282.666 51.16 283.498 51.16ZM288.01 55V51.48L288.106 46.36L287.786 41.272V31.256H292.778V55H288.01ZM316.924 37.528C318.29 37.528 319.506 37.8053 320.572 38.36C321.66 38.8933 322.514 39.7253 323.132 40.856C323.751 41.9653 324.06 43.3947 324.06 45.144V55H319.068V45.912C319.068 44.5253 318.759 43.5013 318.14 42.84C317.543 42.1787 316.69 41.848 315.58 41.848C314.791 41.848 314.076 42.0187 313.436 42.36C312.818 42.68 312.327 43.1813 311.964 43.864C311.623 44.5467 311.452 45.4213 311.452 46.488V55H306.46V31.256H311.452V42.552L310.332 41.112C310.951 39.96 311.836 39.0747 312.988 38.456C314.14 37.8373 315.452 37.528 316.924 37.528ZM339.145 55V51.64L338.825 50.904V44.888C338.825 43.8213 338.495 42.9893 337.833 42.392C337.193 41.7947 336.201 41.496 334.857 41.496C333.94 41.496 333.033 41.6453 332.137 41.944C331.263 42.2213 330.516 42.6053 329.897 43.096L328.105 39.608C329.044 38.9467 330.175 38.4347 331.497 38.072C332.82 37.7093 334.164 37.528 335.529 37.528C338.153 37.528 340.191 38.1467 341.641 39.384C343.092 40.6213 343.817 42.552 343.817 45.176V55H339.145ZM333.897 55.256C332.553 55.256 331.401 55.032 330.441 54.584C329.481 54.1147 328.745 53.4853 328.233 52.696C327.721 51.9067 327.465 51.0213 327.465 50.04C327.465 49.016 327.711 48.12 328.201 47.352C328.713 46.584 329.513 45.9867 330.601 45.56C331.689 45.112 333.108 44.888 334.857 44.888H339.433V47.8H335.401C334.228 47.8 333.417 47.992 332.969 48.376C332.543 48.76 332.329 49.24 332.329 49.816C332.329 50.456 332.575 50.968 333.065 51.352C333.577 51.7147 334.271 51.896 335.145 51.896C335.977 51.896 336.724 51.704 337.385 51.32C338.047 50.9147 338.527 50.328 338.825 49.56L339.593 51.864C339.231 52.9733 338.569 53.816 337.609 54.392C336.649 54.968 335.412 55.256 333.897 55.256ZM348.335 55V31.256H353.327V55H348.335ZM358.568 55V37.4C358.568 35.4587 359.144 33.912 360.296 32.76C361.448 31.5867 363.091 31 365.224 31C365.95 31 366.643 31.0747 367.304 31.224C367.987 31.3733 368.563 31.608 369.032 31.928L367.72 35.544C367.443 35.352 367.134 35.2027 366.792 35.096C366.451 34.9893 366.088 34.936 365.704 34.936C364.979 34.936 364.414 35.1493 364.008 35.576C363.624 35.9813 363.432 36.6 363.432 37.432V39.032L363.56 41.176V55H358.568ZM355.912 42.008V38.168H367.848V42.008H355.912ZM387.59 55.256C385.755 55.256 384.123 54.872 382.694 54.104C381.286 53.336 380.166 52.2907 379.334 50.968C378.523 49.624 378.118 48.0987 378.118 46.392C378.118 44.664 378.523 43.1387 379.334 41.816C380.166 40.472 381.286 39.4267 382.694 38.68C384.123 37.912 385.755 37.528 387.59 37.528C389.403 37.528 391.024 37.912 392.454 38.68C393.883 39.4267 395.003 40.4613 395.814 41.784C396.624 43.1067 397.03 44.6427 397.03 46.392C397.03 48.0987 396.624 49.624 395.814 50.968C395.003 52.2907 393.883 53.336 392.454 54.104C391.024 54.872 389.403 55.256 387.59 55.256ZM387.59 51.16C388.422 51.16 389.168 50.968 389.83 50.584C390.491 50.2 391.014 49.656 391.398 48.952C391.782 48.2267 391.974 47.3733 391.974 46.392C391.974 45.3893 391.782 44.536 391.398 43.832C391.014 43.128 390.491 42.584 389.83 42.2C389.168 41.816 388.422 41.624 387.59 41.624C386.758 41.624 386.011 41.816 385.35 42.2C384.688 42.584 384.155 43.128 383.75 43.832C383.366 44.536 383.174 45.3893 383.174 46.392C383.174 47.3733 383.366 48.2267 383.75 48.952C384.155 49.656 384.688 50.2 385.35 50.584C386.011 50.968 386.758 51.16 387.59 51.16ZM400.975 55V37.4C400.975 35.4587 401.551 33.912 402.703 32.76C403.855 31.5867 405.497 31 407.631 31C408.356 31 409.049 31.0747 409.711 31.224C410.393 31.3733 410.969 31.608 411.439 31.928L410.127 35.544C409.849 35.352 409.54 35.2027 409.199 35.096C408.857 34.9893 408.495 34.936 408.111 34.936C407.385 34.936 406.82 35.1493 406.415 35.576C406.031 35.9813 405.839 36.6 405.839 37.432V39.032L405.967 41.176V55H400.975ZM398.319 42.008V38.168H410.255V42.008H398.319ZM432.364 55V51.64L432.044 50.904V44.888C432.044 43.8213 431.713 42.9893 431.052 42.392C430.412 41.7947 429.42 41.496 428.076 41.496C427.159 41.496 426.252 41.6453 425.356 41.944C424.481 42.2213 423.735 42.6053 423.116 43.096L421.324 39.608C422.263 38.9467 423.393 38.4347 424.716 38.072C426.039 37.7093 427.383 37.528 428.748 37.528C431.372 37.528 433.409 38.1467 434.86 39.384C436.311 40.6213 437.036 42.552 437.036 45.176V55H432.364ZM427.116 55.256C425.772 55.256 424.62 55.032 423.66 54.584C422.7 54.1147 421.964 53.4853 421.452 52.696C420.94 51.9067 420.684 51.0213 420.684 50.04C420.684 49.016 420.929 48.12 421.42 47.352C421.932 46.584 422.732 45.9867 423.82 45.56C424.908 45.112 426.327 44.888 428.076 44.888H432.652V47.8H428.62C427.447 47.8 426.636 47.992 426.188 48.376C425.761 48.76 425.548 49.24 425.548 49.816C425.548 50.456 425.793 50.968 426.284 51.352C426.796 51.7147 427.489 51.896 428.364 51.896C429.196 51.896 429.943 51.704 430.604 51.32C431.265 50.9147 431.745 50.328 432.044 49.56L432.812 51.864C432.449 52.9733 431.788 53.816 430.828 54.392C429.868 54.968 428.631 55.256 427.116 55.256ZM70.48 90.256C69.0293 90.256 67.76 89.936 66.672 89.296C65.584 88.656 64.7307 87.6853 64.112 86.384C63.5147 85.0613 63.216 83.3973 63.216 81.392C63.216 79.3653 63.504 77.7013 64.08 76.4C64.656 75.0987 65.488 74.128 66.576 73.488C67.664 72.848 68.9653 72.528 70.48 72.528C72.1013 72.528 73.552 72.9013 74.832 73.648C76.1333 74.3733 77.1573 75.3973 77.904 76.72C78.672 78.0427 79.056 79.6 79.056 81.392C79.056 83.2053 78.672 84.7733 77.904 86.096C77.1573 87.4187 76.1333 88.4427 74.832 89.168C73.552 89.8933 72.1013 90.256 70.48 90.256ZM60.304 96.208V72.784H65.072V76.304L64.976 81.424L65.296 86.512V96.208H60.304ZM69.616 86.16C70.448 86.16 71.184 85.968 71.824 85.584C72.4853 85.2 73.008 84.656 73.392 83.952C73.7973 83.2267 74 82.3733 74 81.392C74 80.3893 73.7973 79.536 73.392 78.832C73.008 78.128 72.4853 77.584 71.824 77.2C71.184 76.816 70.448 76.624 69.616 76.624C68.784 76.624 68.0373 76.816 67.376 77.2C66.7147 77.584 66.192 78.128 65.808 78.832C65.424 79.536 65.232 80.3893 65.232 81.392C65.232 82.3733 65.424 83.2267 65.808 83.952C66.192 84.656 66.7147 85.2 67.376 85.584C68.0373 85.968 68.784 86.16 69.616 86.16ZM92.6765 90V86.64L92.3565 85.904V79.888C92.3565 78.8213 92.0258 77.9893 91.3645 77.392C90.7245 76.7947 89.7325 76.496 88.3885 76.496C87.4712 76.496 86.5645 76.6453 85.6685 76.944C84.7938 77.2213 84.0472 77.6053 83.4285 78.096L81.6365 74.608C82.5752 73.9467 83.7058 73.4347 85.0285 73.072C86.3512 72.7093 87.6952 72.528 89.0605 72.528C91.6845 72.528 93.7218 73.1467 95.1725 74.384C96.6232 75.6213 97.3485 77.552 97.3485 80.176V90H92.6765ZM87.4285 90.256C86.0845 90.256 84.9325 90.032 83.9725 89.584C83.0125 89.1147 82.2765 88.4853 81.7645 87.696C81.2525 86.9067 80.9965 86.0213 80.9965 85.04C80.9965 84.016 81.2418 83.12 81.7325 82.352C82.2445 81.584 83.0445 80.9867 84.1325 80.56C85.2205 80.112 86.6392 79.888 88.3885 79.888H92.9645V82.8H88.9325C87.7592 82.8 86.9485 82.992 86.5005 83.376C86.0738 83.76 85.8605 84.24 85.8605 84.816C85.8605 85.456 86.1058 85.968 86.5965 86.352C87.1085 86.7147 87.8018 86.896 88.6765 86.896C89.5085 86.896 90.2552 86.704 90.9165 86.32C91.5778 85.9147 92.0578 85.328 92.3565 84.56L93.1245 86.864C92.7618 87.9733 92.1005 88.816 91.1405 89.392C90.1805 89.968 88.9432 90.256 87.4285 90.256ZM110.312 90.256C108.456 90.256 106.802 89.8827 105.352 89.136C103.901 88.368 102.76 87.312 101.928 85.968C101.117 84.624 100.712 83.0987 100.712 81.392C100.712 79.664 101.117 78.1387 101.928 76.816C102.76 75.472 103.901 74.4267 105.352 73.68C106.802 72.912 108.456 72.528 110.312 72.528C112.125 72.528 113.704 72.912 115.048 73.68C116.392 74.4267 117.384 75.504 118.024 76.912L114.152 78.992C113.704 78.1813 113.138 77.584 112.456 77.2C111.794 76.816 111.069 76.624 110.28 76.624C109.426 76.624 108.658 76.816 107.976 77.2C107.293 77.584 106.749 78.128 106.344 78.832C105.96 79.536 105.768 80.3893 105.768 81.392C105.768 82.3947 105.96 83.248 106.344 83.952C106.749 84.656 107.293 85.2 107.976 85.584C108.658 85.968 109.426 86.16 110.28 86.16C111.069 86.16 111.794 85.9787 112.456 85.616C113.138 85.232 113.704 84.624 114.152 83.792L118.024 85.904C117.384 87.2907 116.392 88.368 115.048 89.136C113.704 89.8827 112.125 90.256 110.312 90.256ZM124.932 86.48L125.06 80.4L133.092 72.784H139.044L131.332 80.624L128.74 82.736L124.932 86.48ZM120.804 90V66.256H125.796V90H120.804ZM133.636 90L127.812 82.768L130.948 78.896L139.684 90H133.636ZM149.754 90.256C147.792 90.256 146.064 89.872 144.57 89.104C143.098 88.336 141.957 87.2907 141.146 85.968C140.336 84.624 139.93 83.0987 139.93 81.392C139.93 79.664 140.325 78.1387 141.114 76.816C141.925 75.472 143.024 74.4267 144.41 73.68C145.797 72.912 147.365 72.528 149.114 72.528C150.8 72.528 152.314 72.8907 153.658 73.616C155.024 74.32 156.101 75.344 156.89 76.688C157.68 78.0107 158.074 79.6 158.074 81.456C158.074 81.648 158.064 81.872 158.042 82.128C158.021 82.3627 158 82.5867 157.978 82.8H143.994V79.888H155.354L153.434 80.752C153.434 79.856 153.253 79.0773 152.89 78.416C152.528 77.7547 152.026 77.2427 151.386 76.88C150.746 76.496 150 76.304 149.146 76.304C148.293 76.304 147.536 76.496 146.874 76.88C146.234 77.2427 145.733 77.7653 145.37 78.448C145.008 79.1093 144.826 79.8987 144.826 80.816V81.584C144.826 82.5227 145.029 83.3547 145.434 84.08C145.861 84.784 146.448 85.328 147.194 85.712C147.962 86.0747 148.858 86.256 149.882 86.256C150.8 86.256 151.6 86.1173 152.282 85.84C152.986 85.5627 153.626 85.1467 154.202 84.592L156.858 87.472C156.069 88.368 155.077 89.0613 153.882 89.552C152.688 90.0213 151.312 90.256 149.754 90.256ZM168.438 90.256C166.411 90.256 164.832 89.744 163.702 88.72C162.571 87.6747 162.006 86.128 162.006 84.08V68.976H166.998V84.016C166.998 84.7413 167.19 85.3067 167.574 85.712C167.958 86.096 168.48 86.288 169.142 86.288C169.931 86.288 170.603 86.0747 171.158 85.648L172.502 89.168C171.99 89.5307 171.371 89.808 170.646 90C169.942 90.1707 169.206 90.256 168.438 90.256ZM159.35 77.008V73.168H171.286V77.008H159.35ZM192.559 90.256C190.724 90.256 189.092 89.872 187.663 89.104C186.255 88.336 185.135 87.2907 184.303 85.968C183.492 84.624 183.087 83.0987 183.087 81.392C183.087 79.664 183.492 78.1387 184.303 76.816C185.135 75.472 186.255 74.4267 187.663 73.68C189.092 72.912 190.724 72.528 192.559 72.528C194.372 72.528 195.993 72.912 197.423 73.68C198.852 74.4267 199.972 75.4613 200.783 76.784C201.593 78.1067 201.999 79.6427 201.999 81.392C201.999 83.0987 201.593 84.624 200.783 85.968C199.972 87.2907 198.852 88.336 197.423 89.104C195.993 89.872 194.372 90.256 192.559 90.256ZM192.559 86.16C193.391 86.16 194.137 85.968 194.799 85.584C195.46 85.2 195.983 84.656 196.367 83.952C196.751 83.2267 196.943 82.3733 196.943 81.392C196.943 80.3893 196.751 79.536 196.367 78.832C195.983 78.128 195.46 77.584 194.799 77.2C194.137 76.816 193.391 76.624 192.559 76.624C191.727 76.624 190.98 76.816 190.319 77.2C189.657 77.584 189.124 78.128 188.719 78.832C188.335 79.536 188.143 80.3893 188.143 81.392C188.143 82.3733 188.335 83.2267 188.719 83.952C189.124 84.656 189.657 85.2 190.319 85.584C190.98 85.968 191.727 86.16 192.559 86.16ZM205.943 90V72.4C205.943 70.4587 206.519 68.912 207.671 67.76C208.823 66.5867 210.466 66 212.599 66C213.325 66 214.018 66.0747 214.679 66.224C215.362 66.3733 215.938 66.608 216.407 66.928L215.095 70.544C214.818 70.352 214.509 70.2027 214.167 70.096C213.826 69.9893 213.463 69.936 213.079 69.936C212.354 69.936 211.789 70.1493 211.383 70.576C210.999 70.9813 210.807 71.6 210.807 72.432V74.032L210.935 76.176V90H205.943ZM203.287 77.008V73.168H215.223V77.008H203.287ZM234.997 90.384C233.119 90.384 231.477 90.1067 230.069 89.552C228.661 88.976 227.562 88.176 226.773 87.152C225.983 86.1067 225.589 84.8907 225.589 83.504C225.589 82.1173 225.973 80.944 226.741 79.984C227.53 79.0027 228.629 78.2667 230.037 77.776C231.445 77.264 233.098 77.008 234.997 77.008C236.917 77.008 238.581 77.264 239.989 77.776C241.418 78.2667 242.517 79.0027 243.285 79.984C244.074 80.944 244.469 82.1173 244.469 83.504C244.469 84.8907 244.074 86.1067 243.285 87.152C242.495 88.176 241.386 88.976 239.957 89.552C238.549 90.1067 236.895 90.384 234.997 90.384ZM234.997 86.576C236.298 86.576 237.322 86.288 238.069 85.712C238.837 85.136 239.221 84.3467 239.221 83.344C239.221 82.3413 238.837 81.5627 238.069 81.008C237.322 80.432 236.298 80.144 234.997 80.144C233.717 80.144 232.703 80.432 231.957 81.008C231.21 81.5627 230.837 82.3413 230.837 83.344C230.837 84.3467 231.21 85.136 231.957 85.712C232.703 86.288 233.717 86.576 234.997 86.576ZM234.997 79.632C233.269 79.632 231.754 79.3973 230.453 78.928C229.173 78.4587 228.17 77.776 227.445 76.88C226.741 75.9627 226.389 74.8747 226.389 73.616C226.389 72.2933 226.751 71.1627 227.477 70.224C228.202 69.264 229.215 68.528 230.517 68.016C231.818 67.4827 233.311 67.216 234.997 67.216C236.725 67.216 238.229 67.4827 239.509 68.016C240.81 68.528 241.823 69.264 242.549 70.224C243.295 71.1627 243.669 72.2933 243.669 73.616C243.669 74.8747 243.306 75.9627 242.581 76.88C241.877 77.776 240.874 78.4587 239.573 78.928C238.271 79.3973 236.746 79.632 234.997 79.632ZM234.997 76.592C236.085 76.592 236.938 76.3467 237.557 75.856C238.197 75.3653 238.517 74.6933 238.517 73.84C238.517 72.944 238.186 72.2507 237.525 71.76C236.885 71.2693 236.042 71.024 234.997 71.024C233.973 71.024 233.141 71.2693 232.501 71.76C231.861 72.2507 231.541 72.944 231.541 73.84C231.541 74.6933 231.85 75.3653 232.469 75.856C233.087 76.3467 233.93 76.592 234.997 76.592ZM250.098 90.256C249.245 90.256 248.509 89.968 247.89 89.392C247.293 88.7947 246.994 88.0373 246.994 87.12C246.994 86.2027 247.293 85.4667 247.89 84.912C248.509 84.336 249.245 84.048 250.098 84.048C250.973 84.048 251.709 84.336 252.306 84.912C252.904 85.4667 253.202 86.2027 253.202 87.12C253.202 88.0373 252.904 88.7947 252.306 89.392C251.709 89.968 250.973 90.256 250.098 90.256ZM281.36 67.6H286.544V90H281.36V67.6ZM271.184 90H266V67.6H271.184V90ZM281.744 80.816H270.8V76.432H281.744V80.816ZM299.684 90.256C297.849 90.256 296.217 89.872 294.788 89.104C293.38 88.336 292.26 87.2907 291.428 85.968C290.617 84.624 290.212 83.0987 290.212 81.392C290.212 79.664 290.617 78.1387 291.428 76.816C292.26 75.472 293.38 74.4267 294.788 73.68C296.217 72.912 297.849 72.528 299.684 72.528C301.497 72.528 303.118 72.912 304.548 73.68C305.977 74.4267 307.097 75.4613 307.908 76.784C308.718 78.1067 309.124 79.6427 309.124 81.392C309.124 83.0987 308.718 84.624 307.908 85.968C307.097 87.2907 305.977 88.336 304.548 89.104C303.118 89.872 301.497 90.256 299.684 90.256ZM299.684 86.16C300.516 86.16 301.262 85.968 301.924 85.584C302.585 85.2 303.108 84.656 303.492 83.952C303.876 83.2267 304.068 82.3733 304.068 81.392C304.068 80.3893 303.876 79.536 303.492 78.832C303.108 78.128 302.585 77.584 301.924 77.2C301.262 76.816 300.516 76.624 299.684 76.624C298.852 76.624 298.105 76.816 297.444 77.2C296.782 77.584 296.249 78.128 295.844 78.832C295.46 79.536 295.268 80.3893 295.268 81.392C295.268 82.3733 295.46 83.2267 295.844 83.952C296.249 84.656 296.782 85.2 297.444 85.584C298.105 85.968 298.852 86.16 299.684 86.16ZM315.928 90L309.72 72.784H314.424L319.576 87.6H317.336L322.712 72.784H326.936L332.152 87.6H329.912L335.224 72.784H339.64L333.4 90H328.568L323.992 77.296H325.464L320.728 90H315.928ZM373.071 72.528C374.436 72.528 375.641 72.8053 376.687 73.36C377.753 73.8933 378.585 74.7253 379.183 75.856C379.801 76.9653 380.111 78.3947 380.111 80.144V90H375.119V80.912C375.119 79.5253 374.831 78.5013 374.255 77.84C373.679 77.1787 372.868 76.848 371.823 76.848C371.097 76.848 370.447 77.0187 369.871 77.36C369.295 77.68 368.847 78.1707 368.527 78.832C368.207 79.4933 368.047 80.336 368.047 81.36V90H363.055V80.912C363.055 79.5253 362.767 78.5013 362.191 77.84C361.636 77.1787 360.836 76.848 359.791 76.848C359.065 76.848 358.415 77.0187 357.839 77.36C357.263 77.68 356.815 78.1707 356.495 78.832C356.175 79.4933 356.015 80.336 356.015 81.36V90H351.023V72.784H355.791V77.488L354.895 76.112C355.492 74.9387 356.335 74.0533 357.423 73.456C358.532 72.8373 359.791 72.528 361.199 72.528C362.777 72.528 364.153 72.9333 365.327 73.744C366.521 74.5333 367.311 75.7493 367.695 77.392L365.935 76.912C366.511 75.568 367.428 74.5013 368.687 73.712C369.967 72.9227 371.428 72.528 373.071 72.528ZM395.145 90V86.64L394.825 85.904V79.888C394.825 78.8213 394.495 77.9893 393.833 77.392C393.193 76.7947 392.201 76.496 390.857 76.496C389.94 76.496 389.033 76.6453 388.137 76.944C387.263 77.2213 386.516 77.6053 385.897 78.096L384.105 74.608C385.044 73.9467 386.175 73.4347 387.497 73.072C388.82 72.7093 390.164 72.528 391.529 72.528C394.153 72.528 396.191 73.1467 397.641 74.384C399.092 75.6213 399.817 77.552 399.817 80.176V90H395.145ZM389.897 90.256C388.553 90.256 387.401 90.032 386.441 89.584C385.481 89.1147 384.745 88.4853 384.233 87.696C383.721 86.9067 383.465 86.0213 383.465 85.04C383.465 84.016 383.711 83.12 384.201 82.352C384.713 81.584 385.513 80.9867 386.601 80.56C387.689 80.112 389.108 79.888 390.857 79.888H395.433V82.8H391.401C390.228 82.8 389.417 82.992 388.969 83.376C388.543 83.76 388.329 84.24 388.329 84.816C388.329 85.456 388.575 85.968 389.065 86.352C389.577 86.7147 390.271 86.896 391.145 86.896C391.977 86.896 392.724 86.704 393.385 86.32C394.047 85.9147 394.527 85.328 394.825 84.56L395.593 86.864C395.231 87.9733 394.569 88.816 393.609 89.392C392.649 89.968 391.412 90.256 389.897 90.256ZM414.799 72.528C416.165 72.528 417.381 72.8053 418.447 73.36C419.535 73.8933 420.389 74.7253 421.007 75.856C421.626 76.9653 421.935 78.3947 421.935 80.144V90H416.943V80.912C416.943 79.5253 416.634 78.5013 416.015 77.84C415.418 77.1787 414.565 76.848 413.455 76.848C412.666 76.848 411.951 77.0187 411.311 77.36C410.693 77.68 410.202 78.1813 409.839 78.864C409.498 79.5467 409.327 80.4213 409.327 81.488V90H404.335V72.784H409.103V77.552L408.207 76.112C408.826 74.96 409.711 74.0747 410.863 73.456C412.015 72.8373 413.327 72.528 414.799 72.528ZM428.324 96.464C427.428 96.464 426.542 96.3253 425.668 96.048C424.793 95.7707 424.078 95.3867 423.524 94.896L425.348 91.344C425.732 91.6853 426.169 91.952 426.66 92.144C427.172 92.336 427.673 92.432 428.164 92.432C428.868 92.432 429.422 92.2613 429.828 91.92C430.254 91.6 430.638 91.056 430.98 90.288L431.876 88.176L432.26 87.632L438.436 72.784H443.236L435.46 91.056C434.905 92.4427 434.265 93.5307 433.54 94.32C432.836 95.1093 432.046 95.664 431.172 95.984C430.318 96.304 429.369 96.464 428.324 96.464ZM431.268 90.672L423.588 72.784H428.74L434.692 87.184L431.268 90.672ZM66.096 125.256C64.624 125.256 63.2053 125.085 61.84 124.744C60.496 124.381 59.4293 123.933 58.64 123.4L60.304 119.816C61.0933 120.307 62.0213 120.712 63.088 121.032C64.176 121.331 65.2427 121.48 66.288 121.48C67.44 121.48 68.2507 121.341 68.72 121.064C69.2107 120.787 69.456 120.403 69.456 119.912C69.456 119.507 69.264 119.208 68.88 119.016C68.5173 118.803 68.0267 118.643 67.408 118.536C66.7893 118.429 66.1067 118.323 65.36 118.216C64.6347 118.109 63.8987 117.971 63.152 117.8C62.4053 117.608 61.7227 117.331 61.104 116.968C60.4853 116.605 59.984 116.115 59.6 115.496C59.2373 114.877 59.056 114.077 59.056 113.096C59.056 112.008 59.3653 111.048 59.984 110.216C60.624 109.384 61.5413 108.733 62.736 108.264C63.9307 107.773 65.36 107.528 67.024 107.528C68.1973 107.528 69.392 107.656 70.608 107.912C71.824 108.168 72.8373 108.541 73.648 109.032L71.984 112.584C71.152 112.093 70.3093 111.763 69.456 111.592C68.624 111.4 67.8133 111.304 67.024 111.304C65.9147 111.304 65.104 111.453 64.592 111.752C64.08 112.051 63.824 112.435 63.824 112.904C63.824 113.331 64.0053 113.651 64.368 113.864C64.752 114.077 65.2533 114.248 65.872 114.376C66.4907 114.504 67.1627 114.621 67.888 114.728C68.6347 114.813 69.3813 114.952 70.128 115.144C70.8747 115.336 71.5467 115.613 72.144 115.976C72.7627 116.317 73.264 116.797 73.648 117.416C74.032 118.013 74.224 118.803 74.224 119.784C74.224 120.851 73.904 121.8 73.264 122.632C72.624 123.443 71.696 124.083 70.48 124.552C69.2853 125.021 67.824 125.256 66.096 125.256ZM85.848 125.256C83.8853 125.256 82.1573 124.872 80.664 124.104C79.192 123.336 78.0507 122.291 77.24 120.968C76.4293 119.624 76.024 118.099 76.024 116.392C76.024 114.664 76.4187 113.139 77.208 111.816C78.0187 110.472 79.1173 109.427 80.504 108.68C81.8907 107.912 83.4587 107.528 85.208 107.528C86.8933 107.528 88.408 107.891 89.752 108.616C91.1173 109.32 92.1947 110.344 92.984 111.688C93.7733 113.011 94.168 114.6 94.168 116.456C94.168 116.648 94.1573 116.872 94.136 117.128C94.1147 117.363 94.0933 117.587 94.072 117.8H80.088V114.888H91.448L89.528 115.752C89.528 114.856 89.3467 114.077 88.984 113.416C88.6213 112.755 88.12 112.243 87.48 111.88C86.84 111.496 86.0933 111.304 85.24 111.304C84.3867 111.304 83.6293 111.496 82.968 111.88C82.328 112.243 81.8267 112.765 81.464 113.448C81.1013 114.109 80.92 114.899 80.92 115.816V116.584C80.92 117.523 81.1227 118.355 81.528 119.08C81.9547 119.784 82.5413 120.328 83.288 120.712C84.056 121.075 84.952 121.256 85.976 121.256C86.8933 121.256 87.6933 121.117 88.376 120.84C89.08 120.563 89.72 120.147 90.296 119.592L92.952 122.472C92.1627 123.368 91.1707 124.061 89.976 124.552C88.7813 125.021 87.4053 125.256 85.848 125.256ZM106.036 125.256C104.073 125.256 102.345 124.872 100.852 124.104C99.3795 123.336 98.2382 122.291 97.4275 120.968C96.6168 119.624 96.2115 118.099 96.2115 116.392C96.2115 114.664 96.6062 113.139 97.3955 111.816C98.2062 110.472 99.3048 109.427 100.692 108.68C102.078 107.912 103.646 107.528 105.396 107.528C107.081 107.528 108.596 107.891 109.94 108.616C111.305 109.32 112.382 110.344 113.172 111.688C113.961 113.011 114.356 114.6 114.356 116.456C114.356 116.648 114.345 116.872 114.324 117.128C114.302 117.363 114.281 117.587 114.26 117.8H100.276V114.888H111.635L109.716 115.752C109.716 114.856 109.534 114.077 109.172 113.416C108.809 112.755 108.308 112.243 107.668 111.88C107.028 111.496 106.281 111.304 105.428 111.304C104.574 111.304 103.817 111.496 103.156 111.88C102.516 112.243 102.014 112.765 101.652 113.448C101.289 114.109 101.108 114.899 101.108 115.816V116.584C101.108 117.523 101.31 118.355 101.716 119.08C102.142 119.784 102.729 120.328 103.476 120.712C104.244 121.075 105.14 121.256 106.164 121.256C107.081 121.256 107.881 121.117 108.564 120.84C109.268 120.563 109.908 120.147 110.484 119.592L113.14 122.472C112.35 123.368 111.358 124.061 110.164 124.552C108.969 125.021 107.593 125.256 106.036 125.256ZM125.071 125.256C123.45 125.256 121.988 124.893 120.687 124.168C119.386 123.421 118.351 122.387 117.583 121.064C116.836 119.741 116.463 118.184 116.463 116.392C116.463 114.579 116.836 113.011 117.583 111.688C118.351 110.365 119.386 109.341 120.687 108.616C121.988 107.891 123.45 107.528 125.071 107.528C126.522 107.528 127.791 107.848 128.879 108.488C129.967 109.128 130.81 110.099 131.407 111.4C132.004 112.701 132.303 114.365 132.303 116.392C132.303 118.397 132.015 120.061 131.439 121.384C130.863 122.685 130.031 123.656 128.943 124.296C127.876 124.936 126.586 125.256 125.071 125.256ZM125.935 121.16C126.746 121.16 127.482 120.968 128.143 120.584C128.804 120.2 129.327 119.656 129.711 118.952C130.116 118.227 130.319 117.373 130.319 116.392C130.319 115.389 130.116 114.536 129.711 113.832C129.327 113.128 128.804 112.584 128.143 112.2C127.482 111.816 126.746 111.624 125.935 111.624C125.103 111.624 124.356 111.816 123.695 112.2C123.034 112.584 122.5 113.128 122.095 113.832C121.711 114.536 121.519 115.389 121.519 116.392C121.519 117.373 121.711 118.227 122.095 118.952C122.5 119.656 123.034 120.2 123.695 120.584C124.356 120.968 125.103 121.16 125.935 121.16ZM130.447 125V121.48L130.543 116.36L130.223 111.272V101.256H135.215V125H130.447ZM145.627 125.256C144.155 125.256 142.737 125.085 141.371 124.744C140.027 124.381 138.961 123.933 138.171 123.4L139.835 119.816C140.625 120.307 141.553 120.712 142.619 121.032C143.707 121.331 144.774 121.48 145.819 121.48C146.971 121.48 147.782 121.341 148.251 121.064C148.742 120.787 148.987 120.403 148.987 119.912C148.987 119.507 148.795 119.208 148.411 119.016C148.049 118.803 147.558 118.643 146.939 118.536C146.321 118.429 145.638 118.323 144.891 118.216C144.166 118.109 143.43 117.971 142.683 117.8C141.937 117.608 141.254 117.331 140.635 116.968C140.017 116.605 139.515 116.115 139.131 115.496C138.769 114.877 138.587 114.077 138.587 113.096C138.587 112.008 138.897 111.048 139.515 110.216C140.155 109.384 141.073 108.733 142.267 108.264C143.462 107.773 144.891 107.528 146.555 107.528C147.729 107.528 148.923 107.656 150.139 107.912C151.355 108.168 152.369 108.541 153.179 109.032L151.515 112.584C150.683 112.093 149.841 111.763 148.987 111.592C148.155 111.4 147.345 111.304 146.555 111.304C145.446 111.304 144.635 111.453 144.123 111.752C143.611 112.051 143.355 112.435 143.355 112.904C143.355 113.331 143.537 113.651 143.899 113.864C144.283 114.077 144.785 114.248 145.403 114.376C146.022 114.504 146.694 114.621 147.419 114.728C148.166 114.813 148.913 114.952 149.659 115.144C150.406 115.336 151.078 115.613 151.675 115.976C152.294 116.317 152.795 116.797 153.179 117.416C153.563 118.013 153.755 118.803 153.755 119.784C153.755 120.851 153.435 121.8 152.795 122.632C152.155 123.443 151.227 124.083 150.011 124.552C148.817 125.021 147.355 125.256 145.627 125.256ZM176.458 125V121.64L176.138 120.904V114.888C176.138 113.821 175.807 112.989 175.146 112.392C174.506 111.795 173.514 111.496 172.17 111.496C171.252 111.496 170.346 111.645 169.45 111.944C168.575 112.221 167.828 112.605 167.21 113.096L165.418 109.608C166.356 108.947 167.487 108.435 168.81 108.072C170.132 107.709 171.476 107.528 172.842 107.528C175.466 107.528 177.503 108.147 178.954 109.384C180.404 110.621 181.13 112.552 181.13 115.176V125H176.458ZM171.21 125.256C169.866 125.256 168.714 125.032 167.754 124.584C166.794 124.115 166.058 123.485 165.546 122.696C165.034 121.907 164.778 121.021 164.778 120.04C164.778 119.016 165.023 118.12 165.514 117.352C166.026 116.584 166.826 115.987 167.914 115.56C169.002 115.112 170.42 114.888 172.17 114.888H176.746V117.8H172.714C171.54 117.8 170.73 117.992 170.282 118.376C169.855 118.76 169.642 119.24 169.642 119.816C169.642 120.456 169.887 120.968 170.378 121.352C170.89 121.715 171.583 121.896 172.458 121.896C173.29 121.896 174.036 121.704 174.698 121.32C175.359 120.915 175.839 120.328 176.138 119.56L176.906 121.864C176.543 122.973 175.882 123.816 174.922 124.392C173.962 124.968 172.724 125.256 171.21 125.256ZM185.648 125V107.784H190.416V112.648L189.744 111.24C190.256 110.024 191.077 109.107 192.208 108.488C193.338 107.848 194.714 107.528 196.336 107.528V112.136C196.122 112.115 195.93 112.104 195.76 112.104C195.589 112.083 195.408 112.072 195.216 112.072C193.85 112.072 192.741 112.467 191.888 113.256C191.056 114.024 190.64 115.229 190.64 116.872V125H185.648ZM207.723 125.256C205.76 125.256 204.032 124.872 202.539 124.104C201.067 123.336 199.926 122.291 199.115 120.968C198.304 119.624 197.899 118.099 197.899 116.392C197.899 114.664 198.294 113.139 199.083 111.816C199.894 110.472 200.992 109.427 202.379 108.68C203.766 107.912 205.334 107.528 207.083 107.528C208.768 107.528 210.283 107.891 211.627 108.616C212.992 109.32 214.07 110.344 214.859 111.688C215.648 113.011 216.043 114.6 216.043 116.456C216.043 116.648 216.032 116.872 216.011 117.128C215.99 117.363 215.968 117.587 215.947 117.8H201.963V114.888H213.323L211.403 115.752C211.403 114.856 211.222 114.077 210.859 113.416C210.496 112.755 209.995 112.243 209.355 111.88C208.715 111.496 207.968 111.304 207.115 111.304C206.262 111.304 205.504 111.496 204.843 111.88C204.203 112.243 203.702 112.765 203.339 113.448C202.976 114.109 202.795 114.899 202.795 115.816V116.584C202.795 117.523 202.998 118.355 203.403 119.08C203.83 119.784 204.416 120.328 205.163 120.712C205.931 121.075 206.827 121.256 207.851 121.256C208.768 121.256 209.568 121.117 210.251 120.84C210.955 120.563 211.595 120.147 212.171 119.592L214.827 122.472C214.038 123.368 213.046 124.061 211.851 124.552C210.656 125.021 209.28 125.256 207.723 125.256ZM228.429 125V107.784H233.421V125H228.429ZM230.925 105.384C230.008 105.384 229.261 105.117 228.685 104.584C228.109 104.051 227.821 103.389 227.821 102.6C227.821 101.811 228.109 101.149 228.685 100.616C229.261 100.083 230.008 99.816 230.925 99.816C231.842 99.816 232.589 100.072 233.165 100.584C233.741 101.075 234.029 101.715 234.029 102.504C234.029 103.336 233.741 104.029 233.165 104.584C232.61 105.117 231.864 105.384 230.925 105.384ZM248.518 107.528C249.883 107.528 251.099 107.805 252.166 108.36C253.254 108.893 254.107 109.725 254.726 110.856C255.345 111.965 255.654 113.395 255.654 115.144V125H250.662V115.912C250.662 114.525 250.353 113.501 249.734 112.84C249.137 112.179 248.283 111.848 247.174 111.848C246.385 111.848 245.67 112.019 245.03 112.36C244.411 112.68 243.921 113.181 243.558 113.864C243.217 114.547 243.046 115.421 243.046 116.488V125H238.054V107.784H242.822V112.552L241.926 111.112C242.545 109.96 243.43 109.075 244.582 108.456C245.734 107.837 247.046 107.528 248.518 107.528ZM276.282 125.256C274.255 125.256 272.676 124.744 271.546 123.72C270.415 122.675 269.85 121.128 269.85 119.08V103.976H274.842V119.016C274.842 119.741 275.034 120.307 275.418 120.712C275.802 121.096 276.324 121.288 276.986 121.288C277.775 121.288 278.447 121.075 279.002 120.648L280.346 124.168C279.834 124.531 279.215 124.808 278.49 125C277.786 125.171 277.05 125.256 276.282 125.256ZM267.194 112.008V108.168H279.13V112.008H267.194ZM293.612 107.528C294.977 107.528 296.193 107.805 297.26 108.36C298.348 108.893 299.201 109.725 299.82 110.856C300.438 111.965 300.748 113.395 300.748 115.144V125H295.756V115.912C295.756 114.525 295.446 113.501 294.828 112.84C294.23 112.179 293.377 111.848 292.268 111.848C291.478 111.848 290.764 112.019 290.124 112.36C289.505 112.68 289.014 113.181 288.652 113.864C288.31 114.547 288.14 115.421 288.14 116.488V125H283.148V101.256H288.14V112.552L287.02 111.112C287.638 109.96 288.524 109.075 289.676 108.456C290.828 107.837 292.14 107.528 293.612 107.528ZM313.942 125.256C311.979 125.256 310.251 124.872 308.758 124.104C307.286 123.336 306.144 122.291 305.334 120.968C304.523 119.624 304.118 118.099 304.118 116.392C304.118 114.664 304.512 113.139 305.302 111.816C306.112 110.472 307.211 109.427 308.598 108.68C309.984 107.912 311.552 107.528 313.302 107.528C314.987 107.528 316.502 107.891 317.846 108.616C319.211 109.32 320.288 110.344 321.078 111.688C321.867 113.011 322.262 114.6 322.262 116.456C322.262 116.648 322.251 116.872 322.23 117.128C322.208 117.363 322.187 117.587 322.166 117.8H308.182V114.888H319.542L317.622 115.752C317.622 114.856 317.44 114.077 317.078 113.416C316.715 112.755 316.214 112.243 315.574 111.88C314.934 111.496 314.187 111.304 313.334 111.304C312.48 111.304 311.723 111.496 311.062 111.88C310.422 112.243 309.92 112.765 309.558 113.448C309.195 114.109 309.014 114.899 309.014 115.816V116.584C309.014 117.523 309.216 118.355 309.622 119.08C310.048 119.784 310.635 120.328 311.382 120.712C312.15 121.075 313.046 121.256 314.07 121.256C314.987 121.256 315.787 121.117 316.47 120.84C317.174 120.563 317.814 120.147 318.39 119.592L321.046 122.472C320.256 123.368 319.264 124.061 318.07 124.552C316.875 125.021 315.499 125.256 313.942 125.256ZM344.824 125.256C343.373 125.256 342.104 124.936 341.016 124.296C339.928 123.656 339.074 122.685 338.456 121.384C337.858 120.061 337.56 118.397 337.56 116.392C337.56 114.365 337.848 112.701 338.424 111.4C339 110.099 339.832 109.128 340.92 108.488C342.008 107.848 343.309 107.528 344.824 107.528C346.445 107.528 347.896 107.901 349.176 108.648C350.477 109.373 351.501 110.397 352.248 111.72C353.016 113.043 353.4 114.6 353.4 116.392C353.4 118.205 353.016 119.773 352.248 121.096C351.501 122.419 350.477 123.443 349.176 124.168C347.896 124.893 346.445 125.256 344.824 125.256ZM334.648 131.208V107.784H339.416V111.304L339.32 116.424L339.64 121.512V131.208H334.648ZM343.96 121.16C344.792 121.16 345.528 120.968 346.168 120.584C346.829 120.2 347.352 119.656 347.736 118.952C348.141 118.227 348.344 117.373 348.344 116.392C348.344 115.389 348.141 114.536 347.736 113.832C347.352 113.128 346.829 112.584 346.168 112.2C345.528 111.816 344.792 111.624 343.96 111.624C343.128 111.624 342.381 111.816 341.72 112.2C341.058 112.584 340.536 113.128 340.152 113.832C339.768 114.536 339.576 115.389 339.576 116.392C339.576 117.373 339.768 118.227 340.152 118.952C340.536 119.656 341.058 120.2 341.72 120.584C342.381 120.968 343.128 121.16 343.96 121.16ZM367.02 125V121.64L366.7 120.904V114.888C366.7 113.821 366.37 112.989 365.708 112.392C365.068 111.795 364.076 111.496 362.732 111.496C361.815 111.496 360.908 111.645 360.012 111.944C359.138 112.221 358.391 112.605 357.772 113.096L355.98 109.608C356.919 108.947 358.05 108.435 359.372 108.072C360.695 107.709 362.039 107.528 363.404 107.528C366.028 107.528 368.066 108.147 369.516 109.384C370.967 110.621 371.692 112.552 371.692 115.176V125H367.02ZM361.772 125.256C360.428 125.256 359.276 125.032 358.316 124.584C357.356 124.115 356.62 123.485 356.108 122.696C355.596 121.907 355.34 121.021 355.34 120.04C355.34 119.016 355.586 118.12 356.076 117.352C356.588 116.584 357.388 115.987 358.476 115.56C359.564 115.112 360.983 114.888 362.732 114.888H367.308V117.8H363.276C362.103 117.8 361.292 117.992 360.844 118.376C360.418 118.76 360.204 119.24 360.204 119.816C360.204 120.456 360.45 120.968 360.94 121.352C361.452 121.715 362.146 121.896 363.02 121.896C363.852 121.896 364.599 121.704 365.26 121.32C365.922 120.915 366.402 120.328 366.7 119.56L367.468 121.864C367.106 122.973 366.444 123.816 365.484 124.392C364.524 124.968 363.287 125.256 361.772 125.256ZM384.655 125.256C382.799 125.256 381.146 124.883 379.695 124.136C378.245 123.368 377.103 122.312 376.271 120.968C375.461 119.624 375.055 118.099 375.055 116.392C375.055 114.664 375.461 113.139 376.271 111.816C377.103 110.472 378.245 109.427 379.695 108.68C381.146 107.912 382.799 107.528 384.655 107.528C386.469 107.528 388.047 107.912 389.391 108.68C390.735 109.427 391.727 110.504 392.367 111.912L388.495 113.992C388.047 113.181 387.482 112.584 386.799 112.2C386.138 111.816 385.413 111.624 384.623 111.624C383.77 111.624 383.002 111.816 382.319 112.2C381.637 112.584 381.093 113.128 380.687 113.832C380.303 114.536 380.111 115.389 380.111 116.392C380.111 117.395 380.303 118.248 380.687 118.952C381.093 119.656 381.637 120.2 382.319 120.584C383.002 120.968 383.77 121.16 384.623 121.16C385.413 121.16 386.138 120.979 386.799 120.616C387.482 120.232 388.047 119.624 388.495 118.792L392.367 120.904C391.727 122.291 390.735 123.368 389.391 124.136C388.047 124.883 386.469 125.256 384.655 125.256ZM399.276 121.48L399.404 115.4L407.436 107.784H413.388L405.676 115.624L403.084 117.736L399.276 121.48ZM395.148 125V101.256H400.14V125H395.148ZM407.98 125L402.156 117.768L405.292 113.896L414.028 125H407.98ZM424.098 125.256C422.135 125.256 420.407 124.872 418.914 124.104C417.442 123.336 416.301 122.291 415.49 120.968C414.679 119.624 414.274 118.099 414.274 116.392C414.274 114.664 414.669 113.139 415.458 111.816C416.269 110.472 417.367 109.427 418.754 108.68C420.141 107.912 421.709 107.528 423.458 107.528C425.143 107.528 426.658 107.891 428.002 108.616C429.367 109.32 430.445 110.344 431.234 111.688C432.023 113.011 432.418 114.6 432.418 116.456C432.418 116.648 432.407 116.872 432.386 117.128C432.365 117.363 432.343 117.587 432.322 117.8H418.338V114.888H429.698L427.778 115.752C427.778 114.856 427.597 114.077 427.234 113.416C426.871 112.755 426.37 112.243 425.73 111.88C425.09 111.496 424.343 111.304 423.49 111.304C422.637 111.304 421.879 111.496 421.218 111.88C420.578 112.243 420.077 112.765 419.714 113.448C419.351 114.109 419.17 114.899 419.17 115.816V116.584C419.17 117.523 419.373 118.355 419.778 119.08C420.205 119.784 420.791 120.328 421.538 120.712C422.306 121.075 423.202 121.256 424.226 121.256C425.143 121.256 425.943 121.117 426.626 120.84C427.33 120.563 427.97 120.147 428.546 119.592L431.202 122.472C430.413 123.368 429.421 124.061 428.226 124.552C427.031 125.021 425.655 125.256 424.098 125.256ZM442.782 125.256C440.755 125.256 439.176 124.744 438.046 123.72C436.915 122.675 436.35 121.128 436.35 119.08V103.976H441.342V119.016C441.342 119.741 441.534 120.307 441.918 120.712C442.302 121.096 442.824 121.288 443.486 121.288C444.275 121.288 444.947 121.075 445.502 120.648L446.846 124.168C446.334 124.531 445.715 124.808 444.99 125C444.286 125.171 443.55 125.256 442.782 125.256ZM433.694 112.008V108.168H445.63V112.008H433.694ZM70.768 142.528C72.1333 142.528 73.3493 142.805 74.416 143.36C75.504 143.893 76.3573 144.725 76.976 145.856C77.5947 146.965 77.904 148.395 77.904 150.144V160H72.912V150.912C72.912 149.525 72.6027 148.501 71.984 147.84C71.3867 147.179 70.5333 146.848 69.424 146.848C68.6347 146.848 67.92 147.019 67.28 147.36C66.6613 147.68 66.1707 148.181 65.808 148.864C65.4667 149.547 65.296 150.421 65.296 151.488V160H60.304V142.784H65.072V147.552L64.176 146.112C64.7947 144.96 65.68 144.075 66.832 143.456C67.984 142.837 69.296 142.528 70.768 142.528ZM90.746 160.256C88.9113 160.256 87.2793 159.872 85.85 159.104C84.442 158.336 83.322 157.291 82.49 155.968C81.6793 154.624 81.274 153.099 81.274 151.392C81.274 149.664 81.6793 148.139 82.49 146.816C83.322 145.472 84.442 144.427 85.85 143.68C87.2793 142.912 88.9113 142.528 90.746 142.528C92.5593 142.528 94.1807 142.912 95.61 143.68C97.0393 144.427 98.1593 145.461 98.97 146.784C99.7807 148.107 100.186 149.643 100.186 151.392C100.186 153.099 99.7807 154.624 98.97 155.968C98.1593 157.291 97.0393 158.336 95.61 159.104C94.1807 159.872 92.5593 160.256 90.746 160.256ZM90.746 156.16C91.578 156.16 92.3247 155.968 92.986 155.584C93.6473 155.2 94.17 154.656 94.554 153.952C94.938 153.227 95.13 152.373 95.13 151.392C95.13 150.389 94.938 149.536 94.554 148.832C94.17 148.128 93.6473 147.584 92.986 147.2C92.3247 146.816 91.578 146.624 90.746 146.624C89.914 146.624 89.1673 146.816 88.506 147.2C87.8447 147.584 87.3113 148.128 86.906 148.832C86.522 149.536 86.33 150.389 86.33 151.392C86.33 152.373 86.522 153.227 86.906 153.952C87.3113 154.656 87.8447 155.2 88.506 155.584C89.1673 155.968 89.914 156.16 90.746 156.16ZM106.99 160L100.782 142.784H105.486L110.638 157.6H108.398L113.774 142.784H117.998L123.214 157.6H120.974L126.286 142.784H130.702L124.462 160H119.63L115.054 147.296H116.526L111.79 160H106.99ZM146.725 152.224C146.725 151.477 146.843 150.816 147.077 150.24C147.333 149.664 147.643 149.152 148.005 148.704C148.389 148.256 148.795 147.84 149.221 147.456C149.648 147.072 150.043 146.709 150.405 146.368C150.789 146.005 151.099 145.632 151.333 145.248C151.589 144.864 151.717 144.437 151.717 143.968C151.717 143.2 151.397 142.581 150.757 142.112C150.139 141.643 149.307 141.408 148.261 141.408C147.259 141.408 146.363 141.621 145.573 142.048C144.784 142.453 144.133 143.029 143.621 143.776L139.749 141.504C140.603 140.203 141.787 139.168 143.301 138.4C144.816 137.611 146.651 137.216 148.805 137.216C150.405 137.216 151.813 137.451 153.029 137.92C154.245 138.368 155.195 139.029 155.877 139.904C156.581 140.779 156.933 141.856 156.933 143.136C156.933 143.968 156.805 144.704 156.549 145.344C156.293 145.984 155.963 146.539 155.557 147.008C155.152 147.477 154.715 147.915 154.245 148.32C153.797 148.725 153.371 149.12 152.965 149.504C152.56 149.888 152.219 150.293 151.941 150.72C151.685 151.147 151.557 151.648 151.557 152.224H146.725ZM149.157 160.256C148.261 160.256 147.525 159.968 146.949 159.392C146.373 158.816 146.085 158.133 146.085 157.344C146.085 156.533 146.373 155.861 146.949 155.328C147.525 154.773 148.261 154.496 149.157 154.496C150.075 154.496 150.811 154.773 151.365 155.328C151.941 155.861 152.229 156.533 152.229 157.344C152.229 158.133 151.941 158.816 151.365 159.392C150.811 159.968 150.075 160.256 149.157 160.256Z" fill="black"/>
<rect x="35" y="183" width="156" height="106" rx="30" fill="white"/>
</svg>
