<svg width="75" height="71" viewBox="0 0 75 71" fill="none" xmlns="http://www.w3.org/2000/svg">
<g clip-path="url(#clip0_40_549)">
<path d="M28.125 35.4997C28.125 40.4012 32.3223 44.3747 37.5 44.3747C42.6777 44.3747 46.875 40.4012 46.875 35.4997C46.875 30.5981 42.6777 26.6247 37.5 26.6247C32.3223 26.6247 28.125 30.5981 28.125 35.4997Z" stroke="#1E1E1E" stroke-width="4" stroke-linecap="round" stroke-linejoin="round"/>
<path d="M28.125 57.3913C27.1824 56.9975 26.1369 56.8801 25.1232 57.0541C24.1094 57.2281 23.174 57.6856 22.4375 58.3676L22.25 58.5451C21.6695 59.0952 20.9802 59.5316 20.2215 59.8294C19.4628 60.1271 18.6495 60.2804 17.8281 60.2804C17.0068 60.2804 16.1935 60.1271 15.4347 59.8294C14.676 59.5316 13.9867 59.0952 13.4063 58.5451C12.8252 57.9956 12.3642 57.343 12.0496 56.6248C11.7351 55.9065 11.5732 55.1366 11.5732 54.359C11.5732 53.5815 11.7351 52.8116 12.0496 52.0933C12.3642 51.375 12.8252 50.7225 13.4063 50.173L13.5938 49.9955C14.3142 49.2983 14.7975 48.4127 14.9813 47.4531C15.1651 46.4934 15.041 45.5036 14.625 44.6113C14.2289 43.7364 13.5711 42.9901 12.7327 42.4645C11.8943 41.9389 10.9118 41.6568 9.90625 41.653H9.375C7.7174 41.653 6.12769 41.0296 4.95558 39.9201C3.78348 38.8105 3.125 37.3055 3.125 35.7363C3.125 34.1671 3.78348 32.6622 4.95558 31.5526C6.12769 30.443 7.7174 29.8197 9.375 29.8197H9.65625C10.6906 29.7968 11.6938 29.4798 12.5353 28.91C13.3769 28.3402 14.0179 27.5439 14.375 26.6247C14.791 25.7324 14.9151 24.7426 14.7313 23.7829C14.5475 22.8233 14.0642 21.9377 13.3438 21.2405L13.1562 21.063C12.5751 20.5135 12.1142 19.861 11.7996 19.1427C11.4851 18.4244 11.3232 17.6545 11.3232 16.877C11.3232 16.0994 11.4851 15.3295 11.7996 14.6112C12.1142 13.893 12.5751 13.2404 13.1562 12.6909C13.7367 12.1408 14.426 11.7044 15.1847 11.4067C15.9435 11.1089 16.7568 10.9556 17.5781 10.9556C18.3995 10.9556 19.2128 11.1089 19.9715 11.4067C20.7302 11.7044 21.4195 12.1408 22 12.6909L22.1875 12.8684C22.924 13.5504 23.8594 14.0079 24.8732 14.1819C25.8869 14.3559 26.9325 14.2385 27.875 13.8447C28.7993 13.4697 29.5876 12.847 30.1428 12.0533C30.698 11.2596 30.996 10.3295 31 9.37759V8.87467C31 7.30548 31.6585 5.80055 32.8306 4.69096C34.0027 3.58137 35.5924 2.95801 37.25 2.95801C38.9076 2.95801 40.4973 3.58137 41.6694 4.69096C42.8415 5.80055 43.5 7.30548 43.5 8.87467V9.14092C43.5242 10.1201 43.859 11.0698 44.4609 11.8664C45.0628 12.6631 45.904 13.2699 46.875 13.608C47.8176 14.0018 48.8631 14.1193 49.8768 13.9453C50.8906 13.7713 51.826 13.3138 52.5625 12.6318L52.75 12.4543C53.3305 11.9041 54.0198 11.4677 54.7785 11.17C55.5372 10.8722 56.3505 10.719 57.1719 10.719C57.9932 10.719 58.8065 10.8722 59.5653 11.17C60.324 11.4677 61.0133 11.9041 61.5938 12.4543C62.1749 13.0038 62.6358 13.6563 62.9504 14.3746C63.2649 15.0928 63.4268 15.8628 63.4268 16.6403C63.4268 17.4178 63.2649 18.1878 62.9504 18.906C62.6358 19.6243 62.1749 20.2768 61.5938 20.8263L61.4063 21.0038C60.6858 21.7011 60.2025 22.5866 60.0187 23.5463C59.8349 24.5059 59.959 25.4957 60.375 26.388V26.6247C60.7711 27.4997 61.4289 28.2459 62.2673 28.7715C63.1057 29.2971 64.0882 29.5792 65.0937 29.583H65.625C67.2826 29.583 68.8723 30.2064 70.0444 31.316C71.2165 32.4255 71.875 33.9305 71.875 35.4997C71.875 37.0689 71.2165 38.5738 70.0444 39.6834C68.8723 40.793 67.2826 41.4163 65.625 41.4163H65.3438C64.3382 41.4201 63.3557 41.7022 62.5173 42.2278C61.6789 42.7535 61.0211 43.4997 60.625 44.3747C60.209 45.267 60.0849 46.2567 60.2687 47.2164C60.4525 48.1761 60.9358 49.0616 61.6563 49.7588L61.8437 49.9363C62.4249 50.4858 62.8858 51.1384 63.2004 51.8566C63.5149 52.5749 63.6768 53.3448 63.6768 54.1224C63.6768 54.8999 63.5149 55.6698 63.2004 56.3881C62.8858 57.1064 62.4249 57.7589 61.8437 58.3084C61.2633 58.8585 60.574 59.2949 59.8153 59.5927C59.0565 59.8904 58.2432 60.0437 57.4219 60.0437C56.6005 60.0437 55.7872 59.8904 55.0285 59.5927C54.2698 59.2949 53.5805 58.8585 53 58.3084L52.8125 58.1309C52.076 57.4489 51.1406 56.9914 50.1268 56.8174C49.1131 56.6434 48.0675 56.7609 47.125 57.1547H46.875C45.9507 57.5297 45.1624 58.1524 44.6072 58.946C44.052 59.7397 43.754 60.6698 43.75 61.6218V62.1247C43.75 63.6939 43.0915 65.1988 41.9194 66.3084C40.7473 67.418 39.1576 68.0413 37.5 68.0413C35.8424 68.0413 34.2527 67.418 33.0806 66.3084C31.9085 65.1988 31.25 63.6939 31.25 62.1247V61.8584C31.246 60.9065 30.948 59.9764 30.3928 59.1827C29.8376 58.389 29.0493 57.7663 28.125 57.3913Z" stroke="#1E1E1E" stroke-width="4" stroke-linecap="round" stroke-linejoin="round"/>
</g>
<defs>
<clipPath id="clip0_40_549">
<rect width="71" height="75" fill="white" transform="matrix(0 1 -1 0 75 0)"/>
</clipPath>
</defs>
</svg>
