<svg width="34" height="33" viewBox="0 0 34 33" fill="none" xmlns="http://www.w3.org/2000/svg">
<path d="M12.4442 24.2998V6.7498L29.0368 4.0498V21.5998M12.4442 24.2998C12.4442 26.5366 10.5871 28.3498 8.2961 28.3498C6.00514 28.3498 4.14795 26.5366 4.14795 24.2998C4.14795 22.0631 6.00514 20.2498 8.2961 20.2498C10.5871 20.2498 12.4442 22.0631 12.4442 24.2998ZM29.0368 21.5998C29.0368 23.8366 27.1796 25.6498 24.8887 25.6498C22.5977 25.6498 20.7405 23.8366 20.7405 21.5998C20.7405 19.3631 22.5977 17.5498 24.8887 17.5498C27.1796 17.5498 29.0368 19.3631 29.0368 21.5998Z" stroke="black" stroke-width="4" stroke-linecap="round" stroke-linejoin="round"/>
</svg>
