<?xml version="1.0" encoding="UTF-8"?>
<svg id="_x2014_ÎÓÈ_x5F_1" xmlns="http://www.w3.org/2000/svg" version="1.1" viewBox="0 0 3500 1000">
  <!-- Generator: Adobe Illustrator 29.3.1, SVG Export Plug-In . SVG Version: 2.1.0 Build 151)  -->
  <defs>
    <style>
      .st0 {
        fill: #232323;
      }
    </style>
  </defs>
  <path class="st0" d="M1405.53,705.37h-56.58c-11.57,0-21.52-8.64-23.15-20.09l-3.96-27.88c-5.7-2.01-11.33-4.34-16.78-6.95l-22.15,16.64c-9.25,6.95-22.4,6.02-30.58-2.16l-40.01-40.01c-8.18-8.18-9.11-21.33-2.16-30.58l16.64-22.15c-2.61-5.44-4.95-11.07-6.95-16.78l-27.88-3.96c-11.45-1.63-20.09-11.58-20.09-23.15v-56.58c0-11.57,8.64-21.52,20.09-23.15l27.87-3.96c2-5.7,4.34-11.33,6.95-16.78l-16.64-22.16c-6.95-9.25-6.02-22.4,2.16-30.58l40.01-40.01c8.18-8.18,21.33-9.11,30.58-2.16l22.16,16.64c5.44-2.61,11.07-4.95,16.78-6.95l3.96-27.88c1.63-11.45,11.58-20.09,23.15-20.09h56.58c11.57,0,21.52,8.64,23.15,20.09l3.96,27.87c5.71,2.01,11.34,4.34,16.78,6.95l22.15-16.64c9.25-6.95,22.4-6.02,30.58,2.16l40.01,40.01c8.18,8.18,9.11,21.33,2.16,30.58l-16.64,22.16c2.61,5.44,4.95,11.07,6.95,16.78l27.88,3.96c11.45,1.63,20.09,11.58,20.09,23.15v56.58c0,11.57-8.64,21.52-20.09,23.15l-27.88,3.96c-2.01,5.7-4.34,11.33-6.95,16.78l16.64,22.16c6.95,9.25,6.02,22.4-2.16,30.58l-40.01,40.01c-8.18,8.18-21.33,9.11-30.58,2.16l-22.15-16.64c-5.44,2.61-11.07,4.95-16.78,6.95l-3.96,27.88c-1.63,11.45-11.58,20.09-23.15,20.09ZM1351.21,679.38h52.07l3.87-27.21c1.24-8.76,7.26-15.99,15.69-18.87,5.61-1.92,11.15-4.21,16.46-6.82,8.01-3.93,17.38-3.07,24.45,2.24l21.62,16.24,36.82-36.82-16.24-21.62c-5.32-7.08-6.17-16.45-2.24-24.45,2.61-5.31,4.91-10.85,6.82-16.47,2.88-8.43,10.11-14.44,18.87-15.69l27.22-3.87v-52.07l-27.22-3.87c-8.76-1.24-15.99-7.26-18.87-15.69-1.92-5.61-4.21-11.15-6.82-16.47-3.93-8.01-3.07-17.37,2.24-24.45l16.24-21.62-36.82-36.82-21.62,16.24c-7.08,5.32-16.45,6.17-24.45,2.24-5.31-2.61-10.85-4.91-16.47-6.82-8.43-2.88-14.45-10.11-15.69-18.87l-3.87-27.22h-52.07l-3.87,27.22c-1.25,8.76-7.26,15.99-15.69,18.87-5.61,1.92-11.16,4.21-16.47,6.82-8,3.93-17.37,3.07-24.45-2.24l-21.62-16.24-36.82,36.82,16.24,21.62c5.32,7.08,6.17,16.45,2.24,24.45-2.61,5.31-4.91,10.85-6.82,16.47-2.88,8.43-10.11,14.45-18.87,15.69l-27.22,3.87v52.07l27.22,3.87c8.76,1.25,15.99,7.26,18.87,15.69,1.92,5.61,4.21,11.15,6.82,16.47,3.93,8.01,3.08,17.38-2.24,24.45l-16.24,21.62,36.82,36.82,21.62-16.24c7.08-5.32,16.45-6.17,24.45-2.24,5.31,2.61,10.85,4.91,16.47,6.82,8.43,2.88,14.44,10.11,15.69,18.87l3.87,27.22ZM1377.36,599.23c-26.24,0-51.62-10.46-70.25-29.09-19.7-19.7-30.26-46.96-28.99-74.78,1.13-24.64,11.44-47.89,29.01-65.46,17.58-17.58,40.83-27.88,65.47-29.01,27.83-1.28,55.08,9.29,74.78,28.99,19.7,19.7,30.26,46.96,28.99,74.78-1.13,24.64-11.44,47.89-29.01,65.46-17.58,17.58-40.83,27.88-65.46,29.01h0c-1.51.07-3.02.1-4.53.1ZM1377.3,426.75c-1.16,0-2.33.03-3.5.08-37.38,1.72-68,32.34-69.72,69.72-.96,20.85,6.64,40.46,21.4,55.22,14.76,14.76,34.38,22.35,55.22,21.4h0c37.37-1.72,68-32.34,69.72-69.72.96-20.85-6.64-40.46-21.4-55.22-13.93-13.93-32.18-21.48-51.71-21.48Z"/>
</svg>