<?xml version="1.0" encoding="UTF-8"?>
<svg id="_x2014_ÎÓÈ_x5F_1" xmlns="http://www.w3.org/2000/svg" version="1.1" viewBox="0 0 3500 1000">
  <!-- Generator: Adobe Illustrator 29.3.1, SVG Export Plug-In . SVG Version: 2.1.0 Build 151)  -->
  <defs>
    <style>
      .st0 {
        fill: #232323;
      }
    </style>
  </defs>
  <path class="st0" d="M1621.75,705.37h-58.05c-9.23,0-17.17-6.89-18.47-16.03l-4.3-30.21c-.14-1-.86-1.83-1.88-2.18-6.61-2.26-13.14-4.96-19.41-8.04-.97-.48-2.07-.39-2.88.21l-24.03,18.05c-7.38,5.54-17.87,4.8-24.4-1.73l-41.05-41.05c-6.53-6.53-7.27-17.02-1.73-24.4l18.05-24.03c.61-.81.69-1.91.21-2.88-3.08-6.26-5.78-12.79-8.04-19.4-.35-1.02-1.18-1.74-2.18-1.88l-30.21-4.3c-9.14-1.3-16.03-9.24-16.03-18.47v-58.05c0-9.23,6.89-17.17,16.03-18.47l30.21-4.3c1-.14,1.83-.86,2.18-1.88,2.26-6.62,4.97-13.14,8.04-19.41.48-.97.39-2.07-.21-2.88l-18.05-24.03c-5.54-7.38-4.8-17.87,1.73-24.4l41.05-41.05c6.53-6.53,17.02-7.27,24.4-1.73l24.03,18.05c.81.61,1.91.69,2.88.21,6.26-3.08,12.79-5.78,19.4-8.04,1.02-.35,1.74-1.18,1.88-2.18l4.3-30.21c1.3-9.14,9.24-16.03,18.47-16.03h58.05c9.23,0,17.17,6.89,18.47,16.03l4.3,30.21c.14,1,.86,1.83,1.88,2.18,6.62,2.26,13.15,4.97,19.41,8.04.97.48,2.07.39,2.88-.21l24.03-18.05c7.38-5.54,17.87-4.8,24.4,1.73l41.05,41.05c6.53,6.53,7.27,17.02,1.73,24.4l-18.05,24.03c-.6.81-.69,1.91-.21,2.88,3.07,6.26,5.78,12.79,8.04,19.41.35,1.02,1.18,1.74,2.18,1.88l30.21,4.3c9.14,1.3,16.03,9.24,16.03,18.47v58.05c0,9.23-6.89,17.17-16.03,18.47l-30.21,4.3c-1,.14-1.83.86-2.18,1.88-2.26,6.62-4.97,13.15-8.04,19.4-.48.97-.39,2.07.21,2.88l18.05,24.03c5.54,7.38,4.8,17.87-1.73,24.4l-41.05,41.05c-6.53,6.53-17.02,7.27-24.4,1.73l-24.03-18.05c-.81-.6-1.91-.69-2.88-.21-6.26,3.08-12.79,5.78-19.4,8.04-1.02.35-1.74,1.18-1.88,2.18l-4.3,30.21c-1.3,9.14-9.24,16.03-18.47,16.03ZM1518.34,632.59c2.84,0,5.69.65,8.36,1.96,5.66,2.78,11.55,5.22,17.52,7.26,6.74,2.3,11.55,8.07,12.54,15.06l4.3,30.21c.19,1.3,1.32,2.29,2.64,2.29h58.05c1.32,0,2.45-.99,2.64-2.29l4.3-30.21c.99-6.99,5.8-12.76,12.54-15.06,5.97-2.04,11.86-4.48,17.52-7.26,6.4-3.15,13.89-2.46,19.54,1.78l24.03,18.05c1.06.79,2.55.69,3.49-.25l41.05-41.05c.93-.93,1.04-2.43.25-3.49l-18.05-24.03c-4.24-5.65-4.92-13.13-1.78-19.53,2.78-5.65,5.22-11.55,7.26-17.52,2.3-6.74,8.08-11.55,15.06-12.54l30.21-4.3c1.3-.19,2.29-1.32,2.29-2.64v-58.05c0-1.32-.98-2.45-2.29-2.64l-30.21-4.3c-6.99-.99-12.76-5.8-15.06-12.54-2.04-5.98-4.48-11.87-7.26-17.52-3.14-6.4-2.46-13.89,1.78-19.53l18.05-24.03c.79-1.05.69-2.55-.25-3.49l-41.05-41.04c-.93-.93-2.43-1.04-3.49-.25l-24.03,18.05c-5.65,4.24-13.13,4.92-19.53,1.78-5.65-2.78-11.55-5.22-17.52-7.26-6.74-2.3-11.55-8.07-12.54-15.06l-4.3-30.21c-.19-1.31-1.32-2.29-2.64-2.29h-58.05c-1.32,0-2.45.99-2.64,2.29l-4.3,30.21c-.99,6.99-5.8,12.76-12.54,15.06-5.97,2.04-11.87,4.48-17.52,7.26-6.4,3.15-13.89,2.46-19.54-1.78l-24.03-18.05c-1.05-.79-2.55-.69-3.49.25l-41.05,41.05c-.93.93-1.04,2.43-.25,3.49l18.05,24.03c4.24,5.65,4.92,13.13,1.78,19.53-2.78,5.65-5.22,11.55-7.26,17.52-2.3,6.74-8.08,11.55-15.06,12.54l-30.21,4.3c-1.31.19-2.29,1.32-2.29,2.64v58.05c0,1.32.99,2.45,2.29,2.64l30.21,4.3c6.99.99,12.76,5.8,15.06,12.54,2.04,5.97,4.48,11.87,7.26,17.52,3.15,6.4,2.46,13.89-1.78,19.54l-18.05,24.03c-.79,1.05-.69,2.55.25,3.49l41.05,41.05c.93.93,2.43,1.04,3.49.25l24.03-18.05c3.29-2.47,7.21-3.74,11.17-3.74ZM1592.72,596.47c-53.2,0-96.47-43.28-96.47-96.47s43.28-96.47,96.47-96.47,96.47,43.28,96.47,96.47-43.28,96.47-96.47,96.47ZM1592.72,419.52c-44.38,0-80.48,36.1-80.48,80.48s36.1,80.48,80.48,80.48,80.48-36.1,80.48-80.48-36.1-80.48-80.48-80.48Z"/>
</svg>