<svg width="173" height="65" viewBox="0 0 173 65" fill="none" xmlns="http://www.w3.org/2000/svg">
<rect x="2.5" y="2.5" width="168" height="60" rx="30" fill="#8F8F8F"/>
<rect x="2.5" y="2.5" width="168" height="60" rx="30" stroke="black" stroke-width="5"/>
<path d="M40.9026 29.855C39.718 31.0133 39.6966 32.9127 40.855 34.0974L59.7312 53.4025C60.8895 54.5872 62.7889 54.6085 63.9735 53.4502C65.1582 52.2919 65.1795 50.3925 64.0212 49.2078L47.2424 32.0477L64.4025 15.2688C65.5872 14.1105 65.6085 12.2111 64.4502 11.0265C63.2919 9.84181 61.3925 9.82047 60.2078 10.9788L40.9026 29.855ZM132.034 30.0002L43.0337 29.0002L42.9663 34.9998L131.966 35.9998L132.034 30.0002Z" fill="black"/>
</svg>
