<svg width="80" height="82" viewBox="0 0 80 82" fill="none" xmlns="http://www.w3.org/2000/svg">
<path d="M38.936 60V34.368H44.936V60H38.936ZM41.96 30.144C40.84 30.144 39.912 29.792 39.176 29.088C38.472 28.384 38.12 27.536 38.12 26.544C38.12 25.52 38.472 24.672 39.176 24C39.912 23.296 40.84 22.944 41.96 22.944C43.08 22.944 43.992 23.28 44.696 23.952C45.432 24.592 45.8 25.408 45.8 26.4C45.8 27.456 45.448 28.352 44.744 29.088C44.04 29.792 43.112 30.144 41.96 30.144Z" fill="black"/>
<path d="M77.5 41C77.5 62.3215 60.6528 79.5 40 79.5C19.3472 79.5 2.5 62.3215 2.5 41C2.5 19.6785 19.3472 2.5 40 2.5C60.6528 2.5 77.5 19.6785 77.5 41Z" stroke="black" stroke-width="5"/>
</svg>
