<svg width="71" height="74" viewBox="0 0 71 74" fill="none" xmlns="http://www.w3.org/2000/svg">
<path d="M68.0326 37.4119C68.0326 56.3346 53.3265 71.5 35.3964 71.5C17.4664 71.5 2.76025 56.3346 2.76025 37.4119C2.76025 18.4892 17.4664 3.32385 35.3964 3.32385C53.3265 3.32385 68.0326 18.4892 68.0326 37.4119Z" fill="#979797" stroke="black" stroke-width="5"/>
<path d="M28.1843 48.6593V24.8771L47.9471 21.2183V45.0005M28.1843 48.6593C28.1843 51.6904 25.9723 54.1475 23.2437 54.1475C20.515 54.1475 18.303 51.6904 18.303 48.6593C18.303 45.6283 20.515 43.1711 23.2437 43.1711C25.9723 43.1711 28.1843 45.6283 28.1843 48.6593ZM47.9471 45.0005C47.9471 48.0316 45.735 50.4887 43.0064 50.4887C40.2777 50.4887 38.0657 48.0316 38.0657 45.0005C38.0657 41.9695 40.2777 39.5123 43.0064 39.5123C45.735 39.5123 47.9471 41.9695 47.9471 45.0005Z" stroke="black" stroke-width="4" stroke-linecap="round" stroke-linejoin="round"/>
</svg>
