<svg width="90" height="90" viewBox="0 0 90 90" fill="none" xmlns="http://www.w3.org/2000/svg">
<circle cx="45" cy="45" r="42.5" stroke="black" stroke-width="5"/>
<line x1="16.2672" y1="13.7931" x2="76.2672" y2="76.7931" stroke="black" stroke-width="3.5"/>
<path d="M39 57V31L63 27V53M39 57C39 60.3137 36.3137 63 33 63C29.6863 63 27 60.3137 27 57C27 53.6863 29.6863 51 33 51C36.3137 51 39 53.6863 39 57ZM63 53C63 56.3137 60.3137 59 57 59C53.6863 59 51 56.3137 51 53C51 49.6863 53.6863 47 57 47C60.3137 47 63 49.6863 63 53Z" stroke="#1E1E1E" stroke-width="4" stroke-linecap="round" stroke-linejoin="round"/>
</svg>
