<svg width="312" height="86" viewBox="0 0 312 86" fill="none" xmlns="http://www.w3.org/2000/svg">
<rect width="1366" height="1024" transform="translate(-508 -886)" fill="white"/>
<rect x="2.5" y="2.5" width="307" height="81" rx="37.5" fill="#D9D9D9" stroke="black" stroke-width="5"/>
<path d="M91.6658 62.768C88.1244 62.768 84.8391 62.192 81.8098 61.04C78.8231 59.888 76.2204 58.2667 74.0017 56.176C71.8258 54.0853 70.1191 51.632 68.8818 48.816C67.6871 46 67.0898 42.928 67.0898 39.6C67.0898 36.272 67.6871 33.2 68.8818 30.384C70.1191 27.568 71.8471 25.1147 74.0658 23.024C76.2844 20.9333 78.8871 19.312 81.8738 18.16C84.8604 17.008 88.1031 16.432 91.6018 16.432C95.1431 16.432 98.3857 17.008 101.33 18.16C104.316 19.312 106.898 20.9333 109.074 23.024C111.292 25.1147 113.02 27.568 114.258 30.384C115.495 33.1573 116.114 36.2293 116.114 39.6C116.114 42.928 115.495 46.0213 114.258 48.88C113.02 51.696 111.292 54.1493 109.074 56.24C106.898 58.288 104.316 59.888 101.33 61.04C98.3857 62.192 95.1644 62.768 91.6658 62.768ZM91.6018 53.936C93.6071 53.936 95.4418 53.5947 97.1058 52.912C98.8124 52.2293 100.306 51.248 101.586 49.968C102.866 48.688 103.847 47.1733 104.53 45.424C105.255 43.6747 105.618 41.7333 105.618 39.6C105.618 37.4667 105.255 35.5253 104.53 33.776C103.847 32.0267 102.866 30.512 101.586 29.232C100.348 27.952 98.8764 26.9707 97.1698 26.288C95.4631 25.6053 93.6071 25.264 91.6018 25.264C89.5964 25.264 87.7404 25.6053 86.0338 26.288C84.3698 26.9707 82.8978 27.952 81.6178 29.232C80.3378 30.512 79.3351 32.0267 78.6098 33.776C77.9271 35.5253 77.5858 37.4667 77.5858 39.6C77.5858 41.6907 77.9271 43.632 78.6098 45.424C79.3351 47.1733 80.3164 48.688 81.5538 49.968C82.8338 51.248 84.3271 52.2293 86.0338 52.912C87.7404 53.5947 89.5964 53.936 91.6018 53.936ZM143.554 62.512C140.652 62.512 138.114 61.872 135.938 60.592C133.762 59.312 132.055 57.3707 130.818 54.768C129.623 52.1227 129.026 48.7947 129.026 44.784C129.026 40.7307 129.602 37.4027 130.754 34.8C131.906 32.1973 133.57 30.256 135.746 28.976C137.922 27.696 140.524 27.056 143.554 27.056C146.796 27.056 149.698 27.8027 152.258 29.296C154.86 30.7467 156.908 32.7947 158.402 35.44C159.938 38.0853 160.706 41.2 160.706 44.784C160.706 48.4107 159.938 51.5467 158.402 54.192C156.908 56.8373 154.86 58.8853 152.258 60.336C149.698 61.7867 146.796 62.512 143.554 62.512ZM123.202 74.416V27.568H132.738V34.608L132.546 44.848L133.186 55.024V74.416H123.202ZM141.826 54.32C143.49 54.32 144.962 53.936 146.242 53.168C147.564 52.4 148.61 51.312 149.378 49.904C150.188 48.4533 150.594 46.7467 150.594 44.784C150.594 42.7787 150.188 41.072 149.378 39.664C148.61 38.256 147.564 37.168 146.242 36.4C144.962 35.632 143.49 35.248 141.826 35.248C140.162 35.248 138.668 35.632 137.346 36.4C136.023 37.168 134.978 38.256 134.21 39.664C133.442 41.072 133.058 42.7787 133.058 44.784C133.058 46.7467 133.442 48.4533 134.21 49.904C134.978 51.312 136.023 52.4 137.346 53.168C138.668 53.936 140.162 54.32 141.826 54.32ZM184.477 62.512C180.552 62.512 177.096 61.744 174.109 60.208C171.165 58.672 168.883 56.5813 167.261 53.936C165.64 51.248 164.829 48.1973 164.829 44.784C164.829 41.328 165.619 38.2773 167.197 35.632C168.819 32.944 171.016 30.8533 173.789 29.36C176.563 27.824 179.699 27.056 183.197 27.056C186.568 27.056 189.597 27.7813 192.285 29.232C195.016 30.64 197.171 32.688 198.749 35.376C200.328 38.0213 201.117 41.2 201.117 44.912C201.117 45.296 201.096 45.744 201.053 46.256C201.011 46.7253 200.968 47.1733 200.925 47.6H172.957V41.776H195.677L191.837 43.504C191.837 41.712 191.475 40.1547 190.749 38.832C190.024 37.5093 189.021 36.4853 187.741 35.76C186.461 34.992 184.968 34.608 183.261 34.608C181.555 34.608 180.04 34.992 178.717 35.76C177.437 36.4853 176.435 37.5307 175.709 38.896C174.984 40.2187 174.621 41.7973 174.621 43.632V45.168C174.621 47.0453 175.027 48.7093 175.837 50.16C176.691 51.568 177.864 52.656 179.357 53.424C180.893 54.1493 182.685 54.512 184.733 54.512C186.568 54.512 188.168 54.2347 189.533 53.68C190.941 53.1253 192.221 52.2933 193.373 51.184L198.685 56.944C197.107 58.736 195.123 60.1227 192.733 61.104C190.344 62.0427 187.592 62.512 184.477 62.512ZM228.692 27.056C231.423 27.056 233.855 27.6107 235.988 28.72C238.164 29.7867 239.871 31.4507 241.108 33.712C242.346 35.9307 242.964 38.7893 242.964 42.288V62H232.98V43.824C232.98 41.0507 232.362 39.0027 231.124 37.68C229.93 36.3573 228.223 35.696 226.004 35.696C224.426 35.696 222.996 36.0373 221.716 36.72C220.479 37.36 219.498 38.3627 218.772 39.728C218.09 41.0933 217.748 42.8427 217.748 44.976V62H207.764V27.568H217.3V37.104L215.508 34.224C216.746 31.92 218.516 30.1493 220.82 28.912C223.124 27.6747 225.748 27.056 228.692 27.056Z" fill="black"/>
</svg>
