<svg width="78" height="76" viewBox="0 0 78 76" fill="none" xmlns="http://www.w3.org/2000/svg">
<path d="M39 47.5C44.3848 47.5 48.75 43.2467 48.75 38C48.75 32.7533 44.3848 28.5 39 28.5C33.6152 28.5 29.25 32.7533 29.25 38C29.25 43.2467 33.6152 47.5 39 47.5Z" stroke="#1E1E1E" stroke-width="4" stroke-linecap="round" stroke-linejoin="round"/>
<path d="M63.05 47.5C62.6174 48.4551 62.4883 49.5146 62.6795 50.5418C62.8706 51.5691 63.3733 52.517 64.1225 53.2633L64.3175 53.4533C64.9218 54.0415 65.4013 54.74 65.7284 55.5088C66.0555 56.2777 66.2239 57.1018 66.2239 57.9341C66.2239 58.7664 66.0555 59.5906 65.7284 60.3594C65.4013 61.1283 64.9218 61.8268 64.3175 62.415C63.7138 63.0038 62.9969 63.471 62.2079 63.7897C61.4188 64.1084 60.573 64.2724 59.7188 64.2724C58.8645 64.2724 58.0187 64.1084 57.2296 63.7897C56.4406 63.471 55.7237 63.0038 55.12 62.415L54.925 62.225C54.159 61.4949 53.1862 61.0052 52.1319 60.819C51.0776 60.6327 49.9903 60.7584 49.01 61.18C48.0487 61.5814 47.2289 62.2479 46.6515 63.0975C46.0741 63.9471 45.7642 64.9426 45.76 65.9616V66.5C45.76 68.1797 45.0752 69.7906 43.8562 70.9783C42.6372 72.166 40.9839 72.8333 39.26 72.8333C37.5361 72.8333 35.8828 72.166 34.6638 70.9783C33.4448 69.7906 32.76 68.1797 32.76 66.5V66.215C32.7348 65.1668 32.3866 64.1503 31.7607 63.2975C31.1347 62.4448 30.2599 61.7952 29.25 61.4333C28.2697 61.0118 27.1824 60.886 26.1281 61.0723C25.0738 61.2585 24.101 61.7483 23.335 62.4783L23.14 62.6683C22.5363 63.2572 21.8194 63.7243 21.0304 64.043C20.2413 64.3617 19.3955 64.5258 18.5412 64.5258C17.687 64.5258 16.8412 64.3617 16.0521 64.043C15.2631 63.7243 14.5462 63.2572 13.9425 62.6683C13.3382 62.0801 12.8587 61.3816 12.5316 60.6128C12.2045 59.8439 12.0361 59.0198 12.0361 58.1875C12.0361 57.3552 12.2045 56.531 12.5316 55.7622C12.8587 54.9933 13.3382 54.2948 13.9425 53.7066L14.1375 53.5166C14.8867 52.7703 15.3894 51.8224 15.5805 50.7952C15.7717 49.7679 15.6426 48.7084 15.21 47.7533C14.798 46.8167 14.114 46.0179 13.242 45.4553C12.3701 44.8926 11.3483 44.5907 10.3025 44.5866H9.75C8.02609 44.5866 6.37279 43.9194 5.15381 42.7316C3.93482 41.5439 3.25 39.933 3.25 38.2533C3.25 36.5736 3.93482 34.9627 5.15381 33.775C6.37279 32.5872 8.02609 31.92 9.75 31.92H10.0425C11.1182 31.8954 12.1615 31.5562 13.0367 30.9462C13.9119 30.3363 14.5786 29.484 14.95 28.5C15.3826 27.5448 15.5117 26.4853 15.3205 25.4581C15.1294 24.4308 14.6267 23.4829 13.8775 22.7366L13.6825 22.5466C13.0782 21.9584 12.5987 21.2599 12.2716 20.4911C11.9445 19.7222 11.7761 18.8981 11.7761 18.0658C11.7761 17.2335 11.9445 16.4094 12.2716 15.6405C12.5987 14.8717 13.0782 14.1732 13.6825 13.585C14.2862 12.9961 15.0031 12.529 15.7921 12.2102C16.5812 11.8915 17.427 11.7275 18.2812 11.7275C19.1355 11.7275 19.9813 11.8915 20.7704 12.2102C21.5594 12.529 22.2763 12.9961 22.88 13.585L23.075 13.775C23.841 14.505 24.8138 14.9947 25.8681 15.181C26.9224 15.3672 28.0097 15.2415 28.99 14.82H29.25C30.2112 14.4185 31.0311 13.752 31.6085 12.9024C32.1859 12.0528 32.4958 11.0573 32.5 10.0383V9.49996C32.5 7.82026 33.1848 6.20935 34.4038 5.02162C35.6228 3.83389 37.2761 3.16663 39 3.16663C40.7239 3.16663 42.3772 3.83389 43.5962 5.02162C44.8152 6.20935 45.5 7.82026 45.5 9.49996V9.78496C45.5042 10.804 45.8141 11.7995 46.3915 12.6491C46.9689 13.4987 47.7888 14.1652 48.75 14.5666C49.7303 14.9882 50.8176 15.1139 51.8719 14.9276C52.9262 14.7414 53.899 14.2517 54.665 13.5216L54.86 13.3316C55.4637 12.7428 56.1806 12.2756 56.9696 11.9569C57.7587 11.6382 58.6045 11.4741 59.4588 11.4741C60.313 11.4741 61.1588 11.6382 61.9479 11.9569C62.7369 12.2756 63.4538 12.7428 64.0575 13.3316C64.6618 13.9198 65.1413 14.6183 65.4684 15.3872C65.7955 16.156 65.9639 16.9802 65.9639 17.8125C65.9639 18.6448 65.7955 19.4689 65.4684 20.2377C65.1413 21.0066 64.6618 21.7051 64.0575 22.2933L63.8625 22.4833C63.1133 23.2296 62.6106 24.1775 62.4195 25.2048C62.2283 26.232 62.3574 27.2915 62.79 28.2466V28.5C63.202 29.4366 63.886 30.2353 64.758 30.798C65.6299 31.3606 66.6517 31.6626 67.6975 31.6666H68.25C69.9739 31.6666 71.6272 32.3339 72.8462 33.5216C74.0652 34.7094 74.75 36.3203 74.75 38C74.75 39.6797 74.0652 41.2906 72.8462 42.4783C71.6272 43.666 69.9739 44.3333 68.25 44.3333H67.9575C66.9117 44.3374 65.8899 44.6393 65.018 45.2019C64.146 45.7646 63.462 46.5634 63.05 47.5Z" stroke="#1E1E1E" stroke-width="4" stroke-linecap="round" stroke-linejoin="round"/>
</svg>
