<svg width="80" height="82" viewBox="0 0 80 82" fill="none" xmlns="http://www.w3.org/2000/svg">
<path d="M54.14 27.86C57.8894 31.6106 59.9957 36.6967 59.9957 42C59.9957 47.3033 57.8894 52.3894 54.14 56.14M47.08 34.92C48.9547 36.7953 50.0079 39.3384 50.0079 41.99C50.0079 44.6416 48.9547 47.1847 47.08 49.06M38 28L28 36H20V48H28L38 56V28Z" stroke="#1E1E1E" stroke-width="4" stroke-linecap="round" stroke-linejoin="round"/>
<path d="M77.5 41C77.5 62.3215 60.6528 79.5 40 79.5C19.3472 79.5 2.5 62.3215 2.5 41C2.5 19.6785 19.3472 2.5 40 2.5C60.6528 2.5 77.5 19.6785 77.5 41Z" stroke="black" stroke-width="5"/>
</svg>
