<svg width="71" height="74" viewBox="0 0 71 74" fill="none" xmlns="http://www.w3.org/2000/svg">
<path d="M67.7724 36.5881C67.7724 55.5108 53.0662 70.6761 35.1362 70.6761C17.2062 70.6761 2.5 55.5108 2.5 36.5881C2.5 17.6654 17.2062 2.5 35.1362 2.5C53.0662 2.5 67.7724 17.6654 67.7724 36.5881Z" fill="#979797" stroke="black" stroke-width="5"/>
<path d="M47.7562 17.5575C51.2713 22.7145 53.246 29.708 53.246 37C53.246 44.292 51.2713 51.2855 47.7562 56.4425M41.1375 27.265C42.895 29.8435 43.8824 33.3402 43.8824 36.9862C43.8824 40.6323 42.895 44.129 41.1375 46.7075M32.625 17.75L23.25 28.75H15.75V45.25H23.25L32.625 56.25V17.75Z" stroke="#1E1E1E" stroke-width="4" stroke-linecap="round" stroke-linejoin="round"/>
</svg>
