<?xml version="1.0" encoding="UTF-8"?>
<svg id="_圖層_1" data-name="圖層_1" xmlns="http://www.w3.org/2000/svg" viewBox="0 0 402.29 324.1">
  <defs>
    <style>
      .cls-1 {
        fill: #c79968;
      }

      .cls-2 {
        fill: #231815;
      }

      .cls-3 {
        fill: #fff;
      }

      .cls-4 {
        fill: #d0c33b;
      }

      .cls-5 {
        fill: #4c2d1b;
      }

      .cls-6 {
        fill: #ca2231;
      }

      .cls-7 {
        fill: #e8b12f;
      }
    </style>
  </defs>
  <polygon class="cls-6" points="301.13 118.47 300.75 81.29 200.55 7.75 200.55 7.71 200.5 7.73 200.45 7.71 200.45 7.75 100.25 81.29 100.63 119.64 22.17 163.13 22.17 317.87 381.71 317.87 381.71 163.13 301.13 118.47"/>
  <polygon class="cls-1" points="305.35 87.1 201.56 10.95 97.78 87.1 92.55 79.99 201.56 0 310.57 79.99 305.35 87.1"/>
  <polygon class="cls-1" points="12.05 158.39 16.39 166.44 100.89 119.43 100.89 108.97 12.05 158.39"/>
  <polygon class="cls-1" points="392.03 158.39 301.39 107.97 301.39 118.43 387.69 166.44 392.03 158.39"/>
  <rect class="cls-5" x="168.01" y="166.44" width="66.91" height="144.29"/>
  <g>
    <path class="cls-3" d="M298.62,320.79h-65.67v-157.27h65.67v157.27ZM238.78,314.96h54v-145.6h-54v145.6Z"/>
    <rect class="cls-3" x="264.05" y="203.59" width="5.83" height="121.51" transform="translate(-93.28 157.7) rotate(-28.23)"/>
    <rect class="cls-3" x="206.21" y="261.42" width="121.51" height="5.83" transform="translate(-92.22 374.49) rotate(-61.77)"/>
    <rect class="cls-3" x="235.86" y="207.89" width="59.84" height="5.83"/>
  </g>
  <g>
    <path class="cls-3" d="M170.93,320.79h-65.67v-157.27h65.67v157.27ZM111.1,314.96h54v-145.6h-54v145.6Z"/>
    <rect class="cls-3" x="136.36" y="203.59" width="5.83" height="121.51" transform="translate(-108.46 97.31) rotate(-28.23)"/>
    <rect class="cls-3" x="78.52" y="261.42" width="121.51" height="5.83" transform="translate(-159.5 262) rotate(-61.77)"/>
    <rect class="cls-3" x="108.18" y="207.89" width="59.84" height="5.83"/>
  </g>
  <rect class="cls-3" x="92.37" y="162.72" width="218.2" height="7.44"/>
  <g>
    <rect class="cls-1" x="339.45" y="225.74" width="3.52" height="97.58" rx="1.62" ry="1.62"/>
    <rect class="cls-2" x="315.92" y="219.27" width="50.58" height="3.09"/>
    <rect class="cls-2" x="338.64" y="220.81" width="5.14" height="9.85"/>
    <g>
      <rect class="cls-2" x="315.92" y="204.99" width="2.65" height="14.66"/>
      <rect class="cls-2" x="323.91" y="204.99" width="2.65" height="14.66"/>
      <rect class="cls-2" x="331.9" y="204.99" width="2.65" height="14.66"/>
      <rect class="cls-2" x="339.89" y="204.99" width="2.65" height="14.66"/>
      <rect class="cls-2" x="347.88" y="204.99" width="2.65" height="14.66"/>
      <rect class="cls-2" x="355.87" y="204.99" width="2.65" height="14.66"/>
      <rect class="cls-2" x="363.86" y="204.99" width="2.65" height="14.66"/>
    </g>
  </g>
  <path class="cls-4" d="M.25,318.07c1.84-7.89,20.08-8.51,29.63-8.77,10.07-.28,19.63,1.12,29.2,2.99,7.97,1.56,25.46,1.55,34.42.39,1.46-.19,2.92-.36,4.38-.51.27-.07.52-.14.81-.21,17.3-4.26,37.21-2.32,50.79.03,7.8,1.35,18.24,1.3,25.46-.24,27.42-5.89,57.47-3.45,72.41-.49,8.92,1.77,22.81,3.29,32.02,1.62,22.98-4.16,45.79-1.96,58.31.49,7.94,1.55,14.75.48,23.67-.68,9.44-1.22,18.71-2.6,27.61-2.42.77.02,1.54.03,2.29.06,11.8.51,18.96,13.77-4.05,13.77H16.9c-6.89,0-13.68.02-15.52-1.27s-1.34-3.84-1.13-4.77Z"/>
  <rect class="cls-7" x="28.59" y="275.97" width="45.12" height="38.29" rx="7.28" ry="7.28"/>
  <rect class="cls-7" x="75.23" y="275.97" width="45.12" height="38.29" rx="7.28" ry="7.28"/>
  <rect class="cls-7" x="46.19" y="236.92" width="45.12" height="38.29" rx="7.28" ry="7.28"/>
  <g>
    <path class="cls-3" d="M228.26,131.95h-55.58v-55.58h55.58v55.58ZM177.98,126.66h44.99v-44.99h-44.99v44.99Z"/>
    <rect class="cls-3" x="198.82" y="69.3" width="5.29" height="69.72" transform="translate(-15.99 168.6) rotate(-43.84)"/>
    <rect class="cls-3" x="166.61" y="101.52" width="69.72" height="5.29" transform="translate(-13.21 177.33) rotate(-46.16)"/>
  </g>
</svg>