<?xml version="1.0" encoding="UTF-8"?>
<!DOCTYPE svg PUBLIC "-//W3C//DTD SVG 1.1//EN" "http://www.w3.org/Graphics/SVG/1.1/DTD/svg11.dtd">
<svg xmlns="http://www.w3.org/2000/svg" version="1.1" width="840px" height="1130px" style="shape-rendering:geometricPrecision; text-rendering:geometricPrecision; image-rendering:optimizeQuality; fill-rule:evenodd; clip-rule:evenodd" xmlns:xlink="http://www.w3.org/1999/xlink">
<g><path style="opacity:1" fill="#654f41" d="M 722.5,108.5 C 722.5,108.833 722.5,109.167 722.5,109.5C 718.954,116.558 715.287,123.558 711.5,130.5C 712.315,126.856 713.148,123.189 714,119.5C 716.146,116.874 717.479,113.874 718,110.5C 719.049,108.893 720.549,108.227 722.5,108.5 Z"/></g>
<g><path style="opacity:1" fill="#75644c" d="M 691.5,91.5 C 693.574,92.5139 695.574,93.5139 697.5,94.5C 695.5,94.5 693.5,94.5 691.5,94.5C 690.571,98.1268 689.737,101.793 689,105.5C 686.54,108.534 685.04,112.034 684.5,116C 685.085,118.134 686.418,119.634 688.5,120.5C 686.11,125.18 683.443,129.68 680.5,134C 681.167,134.333 681.833,134.667 682.5,135C 679.347,139.472 676.847,144.306 675,149.5C 673.149,152.064 671.316,152.064 669.5,149.5C 666.077,154.105 663.411,159.105 661.5,164.5C 661.043,165.298 660.376,165.631 659.5,165.5C 663.233,157.297 666.566,148.963 669.5,140.5C 672.225,136.732 674.725,132.732 677,128.5C 682.361,116.433 687.195,104.1 691.5,91.5 Z"/></g>
<g><path style="opacity:1" fill="#645646" d="M 711.5,130.5 C 702.894,147.043 695.394,164.043 689,181.5C 687.855,183.926 686.522,186.259 685,188.5C 684.329,189.252 683.496,189.586 682.5,189.5C 688.647,176.362 694.481,163.028 700,149.5C 701.333,148.833 702.333,147.833 703,146.5C 703.525,139.776 706.358,134.443 711.5,130.5 Z"/></g>
<g><path style="opacity:0.969" fill="#1e2713" d="M 723.5,105.5 C 726.216,107.467 729.216,108.967 732.5,110C 733.804,110.804 734.471,111.971 734.5,113.5C 728.998,124.513 723.998,135.847 719.5,147.5C 718.527,146.209 717.527,146.209 716.5,147.5C 716.167,147 715.833,146.5 715.5,146C 720.38,135.076 725.38,124.243 730.5,113.5C 729.675,112.614 728.675,112.281 727.5,112.5C 726.101,111.11 724.434,110.11 722.5,109.5C 722.5,109.167 722.5,108.833 722.5,108.5C 723.404,107.791 723.737,106.791 723.5,105.5 Z"/></g>
<g><path style="opacity:1" fill="#141a10" d="M 727.5,112.5 C 728.675,112.281 729.675,112.614 730.5,113.5C 725.38,124.243 720.38,135.076 715.5,146C 715.833,146.5 716.167,147 716.5,147.5C 717.527,146.209 718.527,146.209 719.5,147.5C 719.167,148.167 718.833,148.833 718.5,149.5C 717.504,149.586 716.671,149.252 716,148.5C 706.794,164.922 698.628,181.922 691.5,199.5C 691.863,200.183 692.196,200.85 692.5,201.5C 692.5,201.833 692.5,202.167 692.5,202.5C 691.5,202.5 690.5,202.5 689.5,202.5C 689.421,201.07 689.754,199.736 690.5,198.5C 689.975,197.808 689.308,197.308 688.5,197C 689.667,196.5 690.5,195.667 691,194.5C 696.235,183.02 701.235,171.353 706,159.5C 714.441,144.309 721.608,128.643 727.5,112.5 Z"/></g>
<g><path style="opacity:1" fill="#8c7964" d="M 716.5,102.5 C 718.645,103.989 720.978,104.989 723.5,105.5C 723.737,106.791 723.404,107.791 722.5,108.5C 720.549,108.227 719.049,108.893 718,110.5C 717.479,113.874 716.146,116.874 714,119.5C 713.148,123.189 712.315,126.856 711.5,130.5C 706.358,134.443 703.525,139.776 703,146.5C 702.333,147.833 701.333,148.833 700,149.5C 694.481,163.028 688.647,176.362 682.5,189.5C 682.443,190.609 682.11,191.609 681.5,192.5C 679.755,194.033 678.755,196.033 678.5,198.5C 676.807,199.475 675.307,200.808 674,202.5C 672.605,206.519 670.772,210.186 668.5,213.5C 671.873,200.594 677.04,188.594 684,177.5C 689.423,163.186 694.757,149.186 700,135.5C 700.333,135.833 700.667,136.167 701,136.5C 701.639,133.888 702.806,131.554 704.5,129.5C 703.892,127.316 704.559,125.316 706.5,123.5C 704.168,120.94 703.835,118.106 705.5,115C 708.421,112.374 711.754,110.54 715.5,109.5C 715.351,108.448 715.517,107.448 716,106.5C 717.183,107.731 718.349,107.731 719.5,106.5C 717.712,105.717 716.712,104.384 716.5,102.5 Z"/></g>
<g><path style="opacity:1" fill="#1a1919" d="M 722.5,109.5 C 724.434,110.11 726.101,111.11 727.5,112.5C 721.608,128.643 714.441,144.309 706,159.5C 701.235,171.353 696.235,183.02 691,194.5C 690.5,195.667 689.667,196.5 688.5,197C 689.308,197.308 689.975,197.808 690.5,198.5C 689.754,199.736 689.421,201.07 689.5,202.5C 690.5,202.5 691.5,202.5 692.5,202.5C 688.495,208.885 684.495,215.219 680.5,221.5C 680.196,220.85 679.863,220.183 679.5,219.5C 681.07,216.963 681.903,214.296 682,211.5C 676.85,217.138 672.183,223.138 668,229.5C 664.238,235.348 661.905,241.681 661,248.5C 656.017,255.468 652.351,263.135 650,271.5C 647.302,276.997 644.469,282.331 641.5,287.5C 636.579,295.679 632.412,304.345 629,313.5C 627.984,314.634 627.317,314.301 627,312.5C 619.539,326.748 612.705,341.081 606.5,355.5C 604.239,354.182 602.239,352.515 600.5,350.5C 601.727,347.269 603.394,344.269 605.5,341.5C 606.587,335.725 608.921,330.558 612.5,326C 611.748,325.329 611.414,324.496 611.5,323.5C 611.69,319.643 613.69,317.976 617.5,318.5C 617.421,315.729 617.921,313.063 619,310.5C 620.861,308.112 622.194,305.446 623,302.5C 624.011,301.663 625.178,301.33 626.5,301.5C 630.986,289.885 636.152,278.552 642,267.5C 642.495,265.527 642.662,263.527 642.5,261.5C 644.677,258.975 646.677,256.308 648.5,253.5C 655.859,243.462 661.525,232.462 665.5,220.5C 666.914,219.376 668.414,218.376 670,217.5C 672.33,210.848 675.164,204.514 678.5,198.5C 678.755,196.033 679.755,194.033 681.5,192.5C 681.262,196.099 682.262,196.433 684.5,193.5C 691.885,181.722 697.385,169.055 701,155.5C 709.217,143.739 715.217,131.072 719,117.5C 721.944,115.628 723.111,112.961 722.5,109.5 Z"/></g>
<g><path style="opacity:1" fill="#423b2e" d="M 669.5,140.5 C 666.566,148.963 663.233,157.297 659.5,165.5C 658.833,165.833 658.167,166.167 657.5,166.5C 661.006,157.494 665.006,148.828 669.5,140.5 Z"/></g>
<g><path style="opacity:0.682" fill="#010800" d="M 718.5,149.5 C 710.845,167.477 702.178,184.811 692.5,201.5C 692.196,200.85 691.863,200.183 691.5,199.5C 698.628,181.922 706.794,164.922 716,148.5C 716.671,149.252 717.504,149.586 718.5,149.5 Z"/></g>
<g><path style="opacity:1" fill="#2b1e17" d="M 722.5,109.5 C 723.111,112.961 721.944,115.628 719,117.5C 715.217,131.072 709.217,143.739 701,155.5C 697.385,169.055 691.885,181.722 684.5,193.5C 682.262,196.433 681.262,196.099 681.5,192.5C 682.11,191.609 682.443,190.609 682.5,189.5C 683.496,189.586 684.329,189.252 685,188.5C 686.522,186.259 687.855,183.926 689,181.5C 695.394,164.043 702.894,147.043 711.5,130.5C 715.287,123.558 718.954,116.558 722.5,109.5 Z"/></g>
<g><path style="opacity:1" fill="#1e1c1a" d="M 691.5,91.5 C 687.195,104.1 682.361,116.433 677,128.5C 674.725,132.732 672.225,136.732 669.5,140.5C 665.006,148.828 661.006,157.494 657.5,166.5C 649.727,180.71 643.06,195.377 637.5,210.5C 634.16,214.156 632.16,218.489 631.5,223.5C 622.467,240.233 613.967,257.233 606,274.5C 605.51,275.793 605.343,277.127 605.5,278.5C 603.166,280.176 602.166,282.509 602.5,285.5C 600.489,287.667 599.322,290.334 599,293.5C 596.108,294.842 594.775,297.175 595,300.5C 591.002,308.451 587.002,316.451 583,324.5C 581.959,326.585 580.459,328.252 578.5,329.5C 576.862,335.442 574.196,340.776 570.5,345.5C 571.417,340.524 573.25,335.858 576,331.5C 576.667,330.167 576.667,328.833 576,327.5C 570.103,335.19 564.936,343.19 560.5,351.5C 561.476,353.123 560.976,354.457 559,355.5C 558.562,358.376 557.562,361.043 556,363.5C 556.068,365.342 555.901,367.009 555.5,368.5C 553.983,368.511 552.816,369.177 552,370.5C 551.667,369.833 551.333,369.167 551,368.5C 550,369.833 549,371.167 548,372.5C 543.796,384.487 538.463,395.82 532,406.5C 531.257,408.441 531.424,410.274 532.5,412C 531.107,413.171 530.273,414.671 530,416.5C 529.333,415.833 528.667,415.167 528,414.5C 527.802,416.382 527.302,418.048 526.5,419.5C 526.338,417.473 526.505,415.473 527,413.5C 533.688,398.451 540.688,383.451 548,368.5C 551.529,366.448 553.862,363.448 555,359.5C 565.262,336.079 575.928,312.745 587,289.5C 589.374,287.461 591.374,285.128 593,282.5C 595.224,276.385 597.724,270.385 600.5,264.5C 602.167,263.333 603.833,262.167 605.5,261C 605.043,260.586 604.709,260.086 604.5,259.5C 606.894,253.713 609.56,248.046 612.5,242.5C 612.291,241.914 611.957,241.414 611.5,241C 614.776,238.057 617.276,234.557 619,230.5C 639.667,185.833 660.333,141.167 681,96.5C 681.991,94.5527 682.325,92.5527 682,90.5C 681.292,91.3805 680.458,92.0472 679.5,92.5C 679.663,89.8171 680.996,88.1505 683.5,87.5C 686.222,88.8611 688.889,90.1945 691.5,91.5 Z"/></g>
<g><path style="opacity:1" fill="#59483b" d="M 657.5,166.5 C 656.696,171.118 655.029,175.451 652.5,179.5C 652.833,180.167 653.167,180.833 653.5,181.5C 650.394,187.379 647.56,193.379 645,199.5C 641.971,202.92 639.471,206.587 637.5,210.5C 643.06,195.377 649.727,180.71 657.5,166.5 Z"/></g>
<g><path style="opacity:1" fill="#0f150b" d="M 680.5,221.5 C 668.868,244.089 656.868,266.422 644.5,288.5C 644.631,287.761 644.464,287.094 644,286.5C 643.081,289.402 642.248,289.735 641.5,287.5C 644.469,282.331 647.302,276.997 650,271.5C 652.351,263.135 656.017,255.468 661,248.5C 661.905,241.681 664.238,235.348 668,229.5C 672.183,223.138 676.85,217.138 682,211.5C 681.903,214.296 681.07,216.963 679.5,219.5C 679.863,220.183 680.196,220.85 680.5,221.5 Z"/></g>
<g><path style="opacity:1" fill="#3c3428" d="M 678.5,198.5 C 675.164,204.514 672.33,210.848 670,217.5C 668.414,218.376 666.914,219.376 665.5,220.5C 661.525,232.462 655.859,243.462 648.5,253.5C 649.891,247.381 652.391,241.715 656,236.5C 657.525,231.344 659.358,226.344 661.5,221.5C 663.362,218.459 665.695,215.792 668.5,213.5C 670.772,210.186 672.605,206.519 674,202.5C 675.307,200.808 676.807,199.475 678.5,198.5 Z"/></g>
<g><path style="opacity:1" fill="#54493e" d="M 631.5,223.5 C 627.652,232.873 623.485,242.206 619,251.5C 618.667,253.5 618.333,255.5 618,257.5C 612.803,263.971 608.637,270.971 605.5,278.5C 605.343,277.127 605.51,275.793 606,274.5C 613.967,257.233 622.467,240.233 631.5,223.5 Z"/></g>
<g><path style="opacity:1" fill="#947c5e" d="M 701.5,96.5 C 706.5,98.5 711.5,100.5 716.5,102.5C 716.712,104.384 717.712,105.717 719.5,106.5C 718.349,107.731 717.183,107.731 716,106.5C 715.517,107.448 715.351,108.448 715.5,109.5C 711.754,110.54 708.421,112.374 705.5,115C 703.835,118.106 704.168,120.94 706.5,123.5C 704.559,125.316 703.892,127.316 704.5,129.5C 702.806,131.554 701.639,133.888 701,136.5C 700.667,136.167 700.333,135.833 700,135.5C 694.757,149.186 689.423,163.186 684,177.5C 677.04,188.594 671.873,200.594 668.5,213.5C 665.695,215.792 663.362,218.459 661.5,221.5C 659.213,222.619 657.379,224.285 656,226.5C 652.236,235.964 647.736,244.964 642.5,253.5C 641.264,254.246 639.93,254.579 638.5,254.5C 638.38,256.199 638.046,257.865 637.5,259.5C 633.801,265.565 630.634,271.898 628,278.5C 627.25,279.126 626.416,279.626 625.5,280C 626.214,281.343 625.88,282.676 624.5,284C 622.899,284.273 621.399,284.773 620,285.5C 619.252,287.332 618.252,288.999 617,290.5C 608.291,313.635 597.958,336.635 586,359.5C 582.667,364.167 579.333,368.833 576,373.5C 575.896,379.145 574.563,384.478 572,389.5C 566.767,401.634 560.767,413.301 554,424.5C 551.933,432.038 549.433,439.371 546.5,446.5C 544.663,447.838 542.997,449.338 541.5,451C 539.71,456.384 537.543,461.551 535,466.5C 528.008,477.126 522.341,488.46 518,500.5C 514.517,507.294 510.851,513.96 507,520.5C 503.911,531.727 499.577,542.727 494,553.5C 493.29,554.973 492.124,555.64 490.5,555.5C 490.313,557.564 489.813,559.564 489,561.5C 484.005,568.164 480.338,575.497 478,583.5C 477.25,584.126 476.416,584.626 475.5,585C 476.554,586.388 476.72,587.888 476,589.5C 473.386,593.578 471.553,597.911 470.5,602.5C 467.623,603.518 464.623,603.351 461.5,602C 460.663,600.989 460.33,599.822 460.5,598.5C 472.111,578.62 482.777,557.953 492.5,536.5C 492.291,535.914 491.957,535.414 491.5,535C 497.278,526.869 501.778,518.035 505,508.5C 516.863,486.107 528.196,463.44 539,440.5C 559.776,396.565 580.776,352.565 602,308.5C 605.667,299.167 609.333,289.833 613,280.5C 615.268,276.949 617.768,273.616 620.5,270.5C 631.838,247.495 642.338,224.162 652,200.5C 661.634,182.583 670.301,164.25 678,145.5C 683.027,138.447 686.694,130.78 689,122.5C 692.781,116.273 695.447,109.607 697,102.5C 697.881,99.9861 699.381,97.9861 701.5,96.5 Z"/></g>
<g><path style="opacity:1" fill="#5c4e3e" d="M 632.5,279.5 C 632.657,280.873 632.49,282.207 632,283.5C 629.497,288.876 626.997,294.209 624.5,299.5C 622.807,300.228 621.307,301.228 620,302.5C 618.906,308.332 616.406,313.332 612.5,317.5C 613.954,311.879 616.121,306.545 619,301.5C 622.803,298.374 624.803,294.374 625,289.5C 626.306,285.199 628.806,281.866 632.5,279.5 Z"/></g>
<g><path style="opacity:0.498" fill="#050606" d="M 644.5,288.5 C 623.231,329.372 602.231,370.372 581.5,411.5C 580.624,411.631 579.957,411.298 579.5,410.5C 587.178,393.023 595.011,375.689 603,358.5C 603.333,359.5 603.667,360.5 604,361.5C 605.319,359.713 606.152,357.713 606.5,355.5C 612.705,341.081 619.539,326.748 627,312.5C 627.317,314.301 627.984,314.634 629,313.5C 632.412,304.345 636.579,295.679 641.5,287.5C 642.248,289.735 643.081,289.402 644,286.5C 644.464,287.094 644.631,287.761 644.5,288.5 Z"/></g>
<g><path style="opacity:1" fill="#292019" d="M 642.5,261.5 C 642.662,263.527 642.495,265.527 642,267.5C 636.152,278.552 630.986,289.885 626.5,301.5C 625.178,301.33 624.011,301.663 623,302.5C 622.194,305.446 620.861,308.112 619,310.5C 617.921,313.063 617.421,315.729 617.5,318.5C 613.69,317.976 611.69,319.643 611.5,323.5C 607.143,331.208 602.976,339.208 599,347.5C 600.127,350.888 599.627,354.055 597.5,357C 598.685,359.778 597.685,361.278 594.5,361.5C 594.286,363.144 594.62,364.644 595.5,366C 592.843,368.156 591.51,370.656 591.5,373.5C 590.372,374.262 589.205,374.929 588,375.5C 587.326,378.196 586.826,380.529 586.5,382.5C 584.955,383.58 583.455,383.58 582,382.5C 580.739,382.759 579.739,383.426 579,384.5C 574.665,398.168 568.498,410.834 560.5,422.5C 560.343,421.127 560.51,419.793 561,418.5C 564.208,411.403 567.875,404.736 572,398.5C 576.003,386.717 581.67,376.051 589,366.5C 592.228,356.707 596.562,347.374 602,338.5C 601.778,334.708 603.111,331.708 606,329.5C 606.245,324.431 608.412,320.431 612.5,317.5C 616.406,313.332 618.906,308.332 620,302.5C 621.307,301.228 622.807,300.228 624.5,299.5C 626.997,294.209 629.497,288.876 632,283.5C 632.49,282.207 632.657,280.873 632.5,279.5C 635.303,273.229 638.636,267.229 642.5,261.5 Z"/></g>
<g><path style="opacity:1" fill="#86745f" d="M 661.5,221.5 C 659.358,226.344 657.525,231.344 656,236.5C 652.391,241.715 649.891,247.381 648.5,253.5C 646.677,256.308 644.677,258.975 642.5,261.5C 638.636,267.229 635.303,273.229 632.5,279.5C 628.806,281.866 626.306,285.199 625,289.5C 624.803,294.374 622.803,298.374 619,301.5C 616.121,306.545 613.954,311.879 612.5,317.5C 608.412,320.431 606.245,324.431 606,329.5C 603.111,331.708 601.778,334.708 602,338.5C 596.562,347.374 592.228,356.707 589,366.5C 581.67,376.051 576.003,386.717 572,398.5C 567.875,404.736 564.208,411.403 561,418.5C 560.51,419.793 560.343,421.127 560.5,422.5C 555.178,430.357 551.345,439.023 549,448.5C 545.667,455.167 542.333,461.833 539,468.5C 538.292,469.381 537.458,470.047 536.5,470.5C 534.387,476.034 531.221,481.034 527,485.5C 526.333,491.506 524,496.839 520,501.5C 519,504.5 518,507.5 517,510.5C 513.319,514.862 510.986,519.862 510,525.5C 508.488,526.257 507.154,527.257 506,528.5C 505.132,532.27 503.966,535.936 502.5,539.5C 497.848,545.807 494.514,552.807 492.5,560.5C 491.147,561.685 489.98,563.019 489,564.5C 488.076,568.651 486.909,572.651 485.5,576.5C 484.965,580.458 483.298,583.792 480.5,586.5C 479.542,586.953 478.708,587.619 478,588.5C 475.713,592.654 473.88,596.987 472.5,601.5C 472.043,602.298 471.376,602.631 470.5,602.5C 471.553,597.911 473.386,593.578 476,589.5C 476.72,587.888 476.554,586.388 475.5,585C 476.416,584.626 477.25,584.126 478,583.5C 480.338,575.497 484.005,568.164 489,561.5C 489.813,559.564 490.313,557.564 490.5,555.5C 492.124,555.64 493.29,554.973 494,553.5C 499.577,542.727 503.911,531.727 507,520.5C 510.851,513.96 514.517,507.294 518,500.5C 522.341,488.46 528.008,477.126 535,466.5C 537.543,461.551 539.71,456.384 541.5,451C 542.997,449.338 544.663,447.838 546.5,446.5C 549.433,439.371 551.933,432.038 554,424.5C 560.767,413.301 566.767,401.634 572,389.5C 574.563,384.478 575.896,379.145 576,373.5C 579.333,368.833 582.667,364.167 586,359.5C 597.958,336.635 608.291,313.635 617,290.5C 618.252,288.999 619.252,287.332 620,285.5C 621.399,284.773 622.899,284.273 624.5,284C 625.88,282.676 626.214,281.343 625.5,280C 626.416,279.626 627.25,279.126 628,278.5C 630.634,271.898 633.801,265.565 637.5,259.5C 638.046,257.865 638.38,256.199 638.5,254.5C 639.93,254.579 641.264,254.246 642.5,253.5C 647.736,244.964 652.236,235.964 656,226.5C 657.379,224.285 659.213,222.619 661.5,221.5 Z"/></g>
<g><path style="opacity:1" fill="#3e3226" d="M 570.5,345.5 C 569.24,350.277 567.574,354.944 565.5,359.5C 564.758,360.287 563.925,360.953 563,361.5C 558.711,370.345 554.878,379.345 551.5,388.5C 546.918,397.98 542.418,407.647 538,417.5C 537.241,419.063 536.074,420.063 534.5,420.5C 544.51,397.314 555.01,374.314 566,351.5C 566.792,348.894 568.292,346.894 570.5,345.5 Z"/></g>
<g><path style="opacity:1" fill="#7d6c55" d="M 602.5,285.5 C 602.019,288.522 601.353,291.522 600.5,294.5C 597.314,297.872 595.148,301.872 594,306.5C 593.703,309.914 593.036,313.247 592,316.5C 588.008,325.132 584.008,333.799 580,342.5C 579.107,341.289 578.274,341.289 577.5,342.5C 575.079,346.34 572.912,350.34 571,354.5C 569.773,359.518 567.773,364.185 565,368.5C 564.892,372.177 564.892,375.843 565,379.5C 555.201,398.768 546.201,418.434 538,438.5C 535.328,443.203 532.662,447.87 530,452.5C 522.177,469.736 514.177,487.069 506,504.5C 505.147,502.875 504.147,502.542 503,503.5C 497.576,515.657 490.576,526.99 482,537.5C 480.171,541.65 478.337,545.816 476.5,550C 476.833,550.333 477.167,550.667 477.5,551C 476.051,552.102 474.718,553.269 473.5,554.5C 473.5,553.167 473.5,551.833 473.5,550.5C 474.458,550.047 475.292,549.381 476,548.5C 478.733,540.92 482.066,533.586 486,526.5C 491.649,512.383 497.483,498.383 503.5,484.5C 507.126,477.291 511.126,470.291 515.5,463.5C 517.512,459.149 520.178,455.149 523.5,451.5C 526.406,443.859 529.906,436.526 534,429.5C 533.684,425.863 535.018,423.196 538,421.5C 540.155,415.857 542.822,410.523 546,405.5C 548.73,400.142 550.564,394.476 551.5,388.5C 554.878,379.345 558.711,370.345 563,361.5C 563.925,360.953 564.758,360.287 565.5,359.5C 567.574,354.944 569.24,350.277 570.5,345.5C 574.196,340.776 576.862,335.442 578.5,329.5C 580.459,328.252 581.959,326.585 583,324.5C 587.002,316.451 591.002,308.451 595,300.5C 594.775,297.175 596.108,294.842 599,293.5C 599.322,290.334 600.489,287.667 602.5,285.5 Z"/></g>
<g><path style="opacity:0.925" fill="#070c06" d="M 526.5,419.5 C 522.717,421.705 520.383,425.039 519.5,429.5C 518.844,430.278 518.011,430.944 517,431.5C 516.235,431.43 515.735,431.097 515.5,430.5C 523.75,412.936 531.917,395.269 540,377.5C 588.116,283.333 634.616,188.333 679.5,92.5C 680.458,92.0472 681.292,91.3805 682,90.5C 682.325,92.5527 681.991,94.5527 681,96.5C 660.333,141.167 639.667,185.833 619,230.5C 617.276,234.557 614.776,238.057 611.5,241C 611.957,241.414 612.291,241.914 612.5,242.5C 609.56,248.046 606.894,253.713 604.5,259.5C 604.709,260.086 605.043,260.586 605.5,261C 603.833,262.167 602.167,263.333 600.5,264.5C 597.724,270.385 595.224,276.385 593,282.5C 591.374,285.128 589.374,287.461 587,289.5C 575.928,312.745 565.262,336.079 555,359.5C 553.862,363.448 551.529,366.448 548,368.5C 540.688,383.451 533.688,398.451 527,413.5C 526.505,415.473 526.338,417.473 526.5,419.5 Z"/></g>
<g><path style="opacity:1" fill="#867054" d="M 697.5,94.5 C 699.153,94.6596 700.486,95.3263 701.5,96.5C 699.381,97.9861 697.881,99.9861 697,102.5C 695.447,109.607 692.781,116.273 689,122.5C 686.694,130.78 683.027,138.447 678,145.5C 670.301,164.25 661.634,182.583 652,200.5C 642.338,224.162 631.838,247.495 620.5,270.5C 617.768,273.616 615.268,276.949 613,280.5C 609.333,289.833 605.667,299.167 602,308.5C 580.776,352.565 559.776,396.565 539,440.5C 528.196,463.44 516.863,486.107 505,508.5C 501.778,518.035 497.278,526.869 491.5,535C 491.957,535.414 492.291,535.914 492.5,536.5C 482.777,557.953 472.111,578.62 460.5,598.5C 458.364,597.597 456.364,596.431 454.5,595C 460.627,581.382 466.961,567.882 473.5,554.5C 474.718,553.269 476.051,552.102 477.5,551C 477.167,550.667 476.833,550.333 476.5,550C 478.337,545.816 480.171,541.65 482,537.5C 490.576,526.99 497.576,515.657 503,503.5C 504.147,502.542 505.147,502.875 506,504.5C 514.177,487.069 522.177,469.736 530,452.5C 532.662,447.87 535.328,443.203 538,438.5C 546.201,418.434 555.201,398.768 565,379.5C 564.892,375.843 564.892,372.177 565,368.5C 567.773,364.185 569.773,359.518 571,354.5C 572.912,350.34 575.079,346.34 577.5,342.5C 578.274,341.289 579.107,341.289 580,342.5C 584.008,333.799 588.008,325.132 592,316.5C 593.036,313.247 593.703,309.914 594,306.5C 595.148,301.872 597.314,297.872 600.5,294.5C 601.353,291.522 602.019,288.522 602.5,285.5C 602.166,282.509 603.166,280.176 605.5,278.5C 608.637,270.971 612.803,263.971 618,257.5C 618.333,255.5 618.667,253.5 619,251.5C 623.485,242.206 627.652,232.873 631.5,223.5C 632.16,218.489 634.16,214.156 637.5,210.5C 639.471,206.587 641.971,202.92 645,199.5C 647.56,193.379 650.394,187.379 653.5,181.5C 653.167,180.833 652.833,180.167 652.5,179.5C 655.029,175.451 656.696,171.118 657.5,166.5C 658.167,166.167 658.833,165.833 659.5,165.5C 660.376,165.631 661.043,165.298 661.5,164.5C 663.411,159.105 666.077,154.105 669.5,149.5C 671.316,152.064 673.149,152.064 675,149.5C 676.847,144.306 679.347,139.472 682.5,135C 681.833,134.667 681.167,134.333 680.5,134C 683.443,129.68 686.11,125.18 688.5,120.5C 686.418,119.634 685.085,118.134 684.5,116C 685.04,112.034 686.54,108.534 689,105.5C 689.737,101.793 690.571,98.1268 691.5,94.5C 693.5,94.5 695.5,94.5 697.5,94.5 Z"/></g>
<g><path style="opacity:1" fill="#141a0f" d="M 611.5,323.5 C 611.414,324.496 611.748,325.329 612.5,326C 608.921,330.558 606.587,335.725 605.5,341.5C 603.394,344.269 601.727,347.269 600.5,350.5C 602.239,352.515 604.239,354.182 606.5,355.5C 606.152,357.713 605.319,359.713 604,361.5C 603.667,360.5 603.333,359.5 603,358.5C 595.011,375.689 587.178,393.023 579.5,410.5C 579.957,411.298 580.624,411.631 581.5,411.5C 573.917,429.279 565.584,446.612 556.5,463.5C 555.027,462.929 553.36,462.929 551.5,463.5C 551.771,465.38 551.104,466.713 549.5,467.5C 549.34,465.801 549.506,464.134 550,462.5C 555.495,453.212 559.495,443.546 562,433.5C 563,432.833 564,432.167 565,431.5C 572.732,415.638 580.232,399.804 587.5,384C 586.944,383.617 586.611,383.117 586.5,382.5C 586.826,380.529 587.326,378.196 588,375.5C 589.205,374.929 590.372,374.262 591.5,373.5C 591.51,370.656 592.843,368.156 595.5,366C 594.62,364.644 594.286,363.144 594.5,361.5C 597.685,361.278 598.685,359.778 597.5,357C 599.627,354.055 600.127,350.888 599,347.5C 602.976,339.208 607.143,331.208 611.5,323.5 Z"/></g>
<g><path style="opacity:1" fill="#251c1a" d="M 570.5,345.5 C 568.292,346.894 566.792,348.894 566,351.5C 555.01,374.314 544.51,397.314 534.5,420.5C 528.489,433.46 522.322,446.46 516,459.5C 515.51,460.793 515.343,462.127 515.5,463.5C 511.126,470.291 507.126,477.291 503.5,484.5C 502.624,484.369 501.957,484.702 501.5,485.5C 498.528,494.104 495.028,502.437 491,510.5C 486.227,518.043 482.56,526.043 480,534.5C 477.324,540.136 474.324,545.469 471,550.5C 469.455,554.9 467.955,559.233 466.5,563.5C 465.371,564.47 464.371,565.636 463.5,567C 459.579,575.808 455.579,584.642 451.5,593.5C 445.317,596.159 444.484,595.159 449,590.5C 449.667,587.833 450.333,585.167 451,582.5C 451.75,581.874 452.584,581.374 453.5,581C 453.167,580.667 452.833,580.333 452.5,580C 454.776,578.97 455.443,577.47 454.5,575.5C 456.415,573.929 457.415,571.929 457.5,569.5C 458.822,569.67 459.989,569.337 461,568.5C 470.351,546.947 480.185,525.613 490.5,504.5C 490.167,503.833 489.833,503.167 489.5,502.5C 492.696,498.136 495.696,493.636 498.5,489C 497.608,486.784 497.608,484.284 498.5,481.5C 499.672,481.081 500.672,480.415 501.5,479.5C 504.715,471.304 508.382,463.471 512.5,456C 511.483,454.951 511.316,453.784 512,452.5C 514.181,447.389 517.181,442.723 521,438.5C 521.019,435.692 522.019,433.359 524,431.5C 524.333,432.167 524.667,432.833 525,433.5C 528.008,424.485 532.341,416.152 538,408.5C 538.658,406.892 538.158,405.725 536.5,405C 537.333,402.833 538.833,401.333 541,400.5C 546.517,390.147 551.351,379.481 555.5,368.5C 555.901,367.009 556.068,365.342 556,363.5C 557.562,361.043 558.562,358.376 559,355.5C 560.976,354.457 561.476,353.123 560.5,351.5C 564.936,343.19 570.103,335.19 576,327.5C 576.667,328.833 576.667,330.167 576,331.5C 573.25,335.858 571.417,340.524 570.5,345.5 Z"/></g>
<g><path style="opacity:0.542" fill="#010500" d="M 556.5,463.5 C 540.498,496.836 524.498,530.17 508.5,563.5C 507.588,562.262 507.421,560.928 508,559.5C 521.588,529.328 535.421,499.328 549.5,469.5C 549.5,468.833 549.5,468.167 549.5,467.5C 551.104,466.713 551.771,465.38 551.5,463.5C 553.36,462.929 555.027,462.929 556.5,463.5 Z"/></g>
<g><path style="opacity:1" fill="#1e1c1d" d="M 555.5,368.5 C 551.351,379.481 546.517,390.147 541,400.5C 538.833,401.333 537.333,402.833 536.5,405C 538.158,405.725 538.658,406.892 538,408.5C 532.341,416.152 528.008,424.485 525,433.5C 524.667,432.833 524.333,432.167 524,431.5C 522.019,433.359 521.019,435.692 521,438.5C 517.181,442.723 514.181,447.389 512,452.5C 511.316,453.784 511.483,454.951 512.5,456C 508.382,463.471 504.715,471.304 501.5,479.5C 500.672,480.415 499.672,481.081 498.5,481.5C 497.608,484.284 497.608,486.784 498.5,489C 495.696,493.636 492.696,498.136 489.5,502.5C 489.833,503.167 490.167,503.833 490.5,504.5C 480.185,525.613 470.351,546.947 461,568.5C 459.989,569.337 458.822,569.67 457.5,569.5C 457.415,571.929 456.415,573.929 454.5,575.5C 455.443,577.47 454.776,578.97 452.5,580C 452.833,580.333 453.167,580.667 453.5,581C 452.584,581.374 451.75,581.874 451,582.5C 450.333,585.167 449.667,587.833 449,590.5C 444.484,595.159 445.317,596.159 451.5,593.5C 449.63,596.979 450.297,599.812 453.5,602C 458.691,604.091 463.858,606.257 469,608.5C 469.833,608.333 470.667,608.167 471.5,608C 475.726,601.298 478.726,594.131 480.5,586.5C 483.298,583.792 484.965,580.458 485.5,576.5C 491.435,565.684 497.269,554.684 503,543.5C 504.423,536.034 507.757,529.701 513,524.5C 513.988,521.576 514.654,518.576 515,515.5C 516.826,513.077 518.826,510.744 521,508.5C 525.525,496.969 530.525,485.636 536,474.5C 536.49,473.207 536.657,471.873 536.5,470.5C 537.458,470.047 538.292,469.381 539,468.5C 542.333,461.833 545.667,455.167 549,448.5C 551.345,439.023 555.178,430.357 560.5,422.5C 568.498,410.834 574.665,398.168 579,384.5C 579.739,383.426 580.739,382.759 582,382.5C 583.455,383.58 584.955,383.58 586.5,382.5C 586.611,383.117 586.944,383.617 587.5,384C 580.232,399.804 572.732,415.638 565,431.5C 564,432.167 563,432.833 562,433.5C 559.495,443.546 555.495,453.212 550,462.5C 549.506,464.134 549.34,465.801 549.5,467.5C 549.5,468.167 549.5,468.833 549.5,469.5C 547.567,470.642 546.067,472.308 545,474.5C 542.446,481.276 539.113,487.609 535,493.5C 532.463,501.032 529.463,508.365 526,515.5C 520.605,524.665 515.772,534.165 511.5,544C 504.394,556.388 499.061,569.555 495.5,583.5C 494.624,583.369 493.957,583.702 493.5,584.5C 490.058,592.379 486.392,600.046 482.5,607.5C 481.542,607.953 480.708,608.619 480,609.5C 479.667,609.167 479.333,608.833 479,608.5C 477.961,610.746 476.794,612.913 475.5,615C 475.957,615.414 476.291,615.914 476.5,616.5C 474.363,621.045 472.53,625.712 471,630.5C 470.311,631.357 469.478,632.023 468.5,632.5C 467.491,636.018 465.824,639.185 463.5,642C 456.944,657.837 449.778,673.337 442,688.5C 441.346,692.383 442.179,695.883 444.5,699C 443.398,701.401 443.231,703.901 444,706.5C 445.667,707.833 447.333,707.833 449,706.5C 449.417,707.756 450.25,708.423 451.5,708.5C 453.293,712.086 455.293,716.086 457.5,720.5C 456.975,721.192 456.308,721.692 455.5,722C 457.037,723.11 457.703,724.61 457.5,726.5C 455.597,723.542 452.93,721.542 449.5,720.5C 449.631,719.761 449.464,719.094 449,718.5C 445.324,714.631 441.324,710.964 437,707.5C 436.333,705.5 435.667,703.5 435,701.5C 434.318,693.382 434.818,685.382 436.5,677.5C 438.598,671.869 441.264,666.535 444.5,661.5C 446.044,658.443 448.211,655.776 451,653.5C 455.76,643.644 460.26,633.644 464.5,623.5C 464.125,621.541 463.459,619.707 462.5,618C 457.913,615.87 453.247,614.037 448.5,612.5C 446.183,611.058 444.016,611.392 442,613.5C 439.147,619.939 436.147,626.272 433,632.5C 433.101,637.038 431.435,640.705 428,643.5C 427.092,647.193 425.592,650.527 423.5,653.5C 418.994,659.802 413.994,665.802 408.5,671.5C 406.381,675.001 404.715,678.668 403.5,682.5C 401.017,683.77 398.35,684.436 395.5,684.5C 387.934,682.923 380.268,681.423 372.5,680C 352.76,678.927 333.26,676.76 314,673.5C 306.735,672.475 300.235,674.142 294.5,678.5C 291.068,677.102 290.068,674.769 291.5,671.5C 293.263,671.306 295.097,671.306 297,671.5C 300.201,670.231 302.868,668.231 305,665.5C 308.149,666.923 310.649,666.256 312.5,663.5C 315.508,662.862 318.508,662.529 321.5,662.5C 328.128,667.158 335.461,668.658 343.5,667C 342.304,666.346 342.304,665.846 343.5,665.5C 348.447,666.01 353.114,667.344 357.5,669.5C 358.373,666.878 360.206,666.878 363,669.5C 363.308,668.692 363.808,668.025 364.5,667.5C 369.051,667.568 373.384,668.901 377.5,671.5C 381.214,671.214 384.88,671.214 388.5,671.5C 390.453,672.024 392.12,673.024 393.5,674.5C 395.22,673.045 397.22,672.212 399.5,672C 400.823,671.184 401.489,670.017 401.5,668.5C 403.426,667.758 405.259,666.758 407,665.5C 407.2,659.666 410.367,656.166 416.5,655C 416.167,654 415.833,653 415.5,652C 416.101,648.642 417.767,645.476 420.5,642.5C 420.291,641.914 419.957,641.414 419.5,641C 422.088,637.41 424.421,634.243 426.5,631.5C 425.046,629.737 425.38,628.403 427.5,627.5C 428.842,620.503 431.008,613.836 434,607.5C 441.023,594.139 448.023,580.806 455,567.5C 457.717,562.063 459.883,556.396 461.5,550.5C 475.024,524.78 487.524,498.447 499,471.5C 507.713,458.408 514.546,444.408 519.5,429.5C 520.383,425.039 522.717,421.705 526.5,419.5C 527.302,418.048 527.802,416.382 528,414.5C 528.667,415.167 529.333,415.833 530,416.5C 530.273,414.671 531.107,413.171 532.5,412C 531.424,410.274 531.257,408.441 532,406.5C 538.463,395.82 543.796,384.487 548,372.5C 549,371.167 550,369.833 551,368.5C 551.333,369.167 551.667,369.833 552,370.5C 552.816,369.177 553.983,368.511 555.5,368.5 Z"/></g>
<g><path style="opacity:1" fill="#635544" d="M 551.5,388.5 C 550.564,394.476 548.73,400.142 546,405.5C 542.822,410.523 540.155,415.857 538,421.5C 535.018,423.196 533.684,425.863 534,429.5C 529.906,436.526 526.406,443.859 523.5,451.5C 520.178,455.149 517.512,459.149 515.5,463.5C 515.343,462.127 515.51,460.793 516,459.5C 522.322,446.46 528.489,433.46 534.5,420.5C 536.074,420.063 537.241,419.063 538,417.5C 542.418,407.647 546.918,397.98 551.5,388.5 Z"/></g>
<g><path style="opacity:0.585" fill="#010500" d="M 461.5,550.5 C 459.326,553.63 457.326,556.963 455.5,560.5C 454.575,561.562 453.575,561.562 452.5,560.5C 466.232,530.702 480.232,501.036 494.5,471.5C 496.074,471.063 497.241,470.063 498,468.5C 487.155,494.866 475.155,520.866 462,546.5C 461.51,547.793 461.343,549.127 461.5,550.5 Z"/></g>
<g><path style="opacity:1" fill="#121910" d="M 519.5,429.5 C 514.546,444.408 507.713,458.408 499,471.5C 487.524,498.447 475.024,524.78 461.5,550.5C 461.343,549.127 461.51,547.793 462,546.5C 475.155,520.866 487.155,494.866 498,468.5C 497.241,470.063 496.074,471.063 494.5,471.5C 498.17,464.82 501.336,457.82 504,450.5C 507.749,443.716 511.582,437.049 515.5,430.5C 515.735,431.097 516.235,431.43 517,431.5C 518.011,430.944 518.844,430.278 519.5,429.5 Z"/></g>
<g><path style="opacity:1" fill="#5c4c40" d="M 536.5,470.5 C 536.657,471.873 536.49,473.207 536,474.5C 530.525,485.636 525.525,496.969 521,508.5C 518.826,510.744 516.826,513.077 515,515.5C 514.654,518.576 513.988,521.576 513,524.5C 507.757,529.701 504.423,536.034 503,543.5C 497.269,554.684 491.435,565.684 485.5,576.5C 486.909,572.651 488.076,568.651 489,564.5C 489.98,563.019 491.147,561.685 492.5,560.5C 494.514,552.807 497.848,545.807 502.5,539.5C 503.966,535.936 505.132,532.27 506,528.5C 507.154,527.257 508.488,526.257 510,525.5C 510.986,519.862 513.319,514.862 517,510.5C 518,507.5 519,504.5 520,501.5C 524,496.839 526.333,491.506 527,485.5C 531.221,481.034 534.387,476.034 536.5,470.5 Z"/></g>
<g><path style="opacity:1" fill="#514338" d="M 503.5,484.5 C 497.483,498.383 491.649,512.383 486,526.5C 482.066,533.586 478.733,540.92 476,548.5C 475.292,549.381 474.458,550.047 473.5,550.5C 471.986,555.19 469.652,559.524 466.5,563.5C 467.955,559.233 469.455,554.9 471,550.5C 474.324,545.469 477.324,540.136 480,534.5C 482.56,526.043 486.227,518.043 491,510.5C 495.028,502.437 498.528,494.104 501.5,485.5C 501.957,484.702 502.624,484.369 503.5,484.5 Z"/></g>
<g><path style="opacity:1" fill="#141b11" d="M 549.5,469.5 C 535.421,499.328 521.588,529.328 508,559.5C 507.421,560.928 507.588,562.262 508.5,563.5C 506.674,568.484 504.341,573.151 501.5,577.5C 500.761,577.369 500.094,577.536 499.5,578C 498.512,580.167 497.179,582 495.5,583.5C 499.061,569.555 504.394,556.388 511.5,544C 515.772,534.165 520.605,524.665 526,515.5C 529.463,508.365 532.463,501.032 535,493.5C 539.113,487.609 542.446,481.276 545,474.5C 546.067,472.308 547.567,470.642 549.5,469.5 Z"/></g>
<g><path style="opacity:0.502" fill="#020501" d="M 501.5,577.5 C 482.406,615.77 464.072,654.437 446.5,693.5C 448.147,697.459 450.314,701.125 453,704.5C 458.397,709.729 463.564,715.062 468.5,720.5C 468.53,721.497 468.03,722.164 467,722.5C 465.5,722 464,721.5 462.5,721C 458.936,716.611 455.269,712.444 451.5,708.5C 450.766,707.292 450.433,705.959 450.5,704.5C 449.5,704.5 448.5,704.5 447.5,704.5C 446.285,701.03 444.951,697.53 443.5,694C 456.392,665.055 469.392,636.222 482.5,607.5C 486.392,600.046 490.058,592.379 493.5,584.5C 493.957,583.702 494.624,583.369 495.5,583.5C 497.179,582 498.512,580.167 499.5,578C 500.094,577.536 500.761,577.369 501.5,577.5 Z"/></g>
<g><path style="opacity:1" fill="#6b5c4f" d="M 473.5,550.5 C 473.5,551.833 473.5,553.167 473.5,554.5C 466.961,567.882 460.627,581.382 454.5,595C 456.364,596.431 458.364,597.597 460.5,598.5C 460.33,599.822 460.663,600.989 461.5,602C 464.623,603.351 467.623,603.518 470.5,602.5C 471.376,602.631 472.043,602.298 472.5,601.5C 473.88,596.987 475.713,592.654 478,588.5C 478.708,587.619 479.542,586.953 480.5,586.5C 478.726,594.131 475.726,601.298 471.5,608C 470.667,608.167 469.833,608.333 469,608.5C 463.858,606.257 458.691,604.091 453.5,602C 450.297,599.812 449.63,596.979 451.5,593.5C 455.579,584.642 459.579,575.808 463.5,567C 464.371,565.636 465.371,564.47 466.5,563.5C 469.652,559.524 471.986,555.19 473.5,550.5 Z"/></g>
<g><path style="opacity:1" fill="#0f150a" d="M 461.5,550.5 C 459.883,556.396 457.717,562.063 455,567.5C 448.023,580.806 441.023,594.139 434,607.5C 431.008,613.836 428.842,620.503 427.5,627.5C 425.38,628.403 425.046,629.737 426.5,631.5C 424.421,634.243 422.088,637.41 419.5,641C 419.957,641.414 420.291,641.914 420.5,642.5C 417.767,645.476 416.101,648.642 415.5,652C 415.833,653 416.167,654 416.5,655C 410.367,656.166 407.2,659.666 407,665.5C 405.259,666.758 403.426,667.758 401.5,668.5C 402.533,662.971 405.367,658.637 410,655.5C 410.747,652.049 410.08,651.716 408,654.5C 407.601,654.272 407.435,653.938 407.5,653.5C 422.196,622.44 437.196,591.44 452.5,560.5C 453.575,561.562 454.575,561.562 455.5,560.5C 457.326,556.963 459.326,553.63 461.5,550.5 Z"/></g>
<g><path style="opacity:1" fill="#141c13" d="M 482.5,607.5 C 469.392,636.222 456.392,665.055 443.5,694C 444.951,697.53 446.285,701.03 447.5,704.5C 448.5,704.5 449.5,704.5 450.5,704.5C 450.433,705.959 450.766,707.292 451.5,708.5C 450.25,708.423 449.417,707.756 449,706.5C 447.333,707.833 445.667,707.833 444,706.5C 443.231,703.901 443.398,701.401 444.5,699C 442.179,695.883 441.346,692.383 442,688.5C 449.778,673.337 456.944,657.837 463.5,642C 465.824,639.185 467.491,636.018 468.5,632.5C 469.478,632.023 470.311,631.357 471,630.5C 472.53,625.712 474.363,621.045 476.5,616.5C 476.291,615.914 475.957,615.414 475.5,615C 476.794,612.913 477.961,610.746 479,608.5C 479.333,608.833 479.667,609.167 480,609.5C 480.708,608.619 481.542,607.953 482.5,607.5 Z"/></g>
<g><path style="opacity:1" fill="#3c3c3f" d="M 448.5,612.5 C 453.247,614.037 457.913,615.87 462.5,618C 463.459,619.707 464.125,621.541 464.5,623.5C 460.26,633.644 455.76,643.644 451,653.5C 448.211,655.776 446.044,658.443 444.5,661.5C 444.343,660.127 444.51,658.793 445,657.5C 450.748,647.408 456.082,637.075 461,626.5C 462.176,622.807 461.009,620.474 457.5,619.5C 454.681,616.925 451.681,614.592 448.5,612.5 Z"/></g>
<g><path style="opacity:1" fill="#545153" d="M 423.5,653.5 C 423.509,655.308 423.009,656.975 422,658.5C 417.213,663.441 413.046,668.775 409.5,674.5C 407.987,677.524 405.987,680.191 403.5,682.5C 404.715,678.668 406.381,675.001 408.5,671.5C 413.994,665.802 418.994,659.802 423.5,653.5 Z"/></g>
<g><path style="opacity:1" fill="#191e16" d="M 312.5,663.5 C 310.649,666.256 308.149,666.923 305,665.5C 302.868,668.231 300.201,670.231 297,671.5C 295.097,671.306 293.263,671.306 291.5,671.5C 290.068,674.769 291.068,677.102 294.5,678.5C 291.875,680.8 289.541,683.466 287.5,686.5C 286.508,686.328 285.842,686.662 285.5,687.5C 283.408,687.561 281.908,688.561 281,690.5C 283.562,681.874 282.396,681.374 277.5,689C 275.76,690.694 273.76,691.861 271.5,692.5C 270.059,696.714 268.059,700.714 265.5,704.5C 266.485,706.098 266.651,707.765 266,709.5C 263.51,714.186 261.177,718.853 259,723.5C 258.667,723.833 258.333,724.167 258,724.5C 257,722.833 256,721.167 255,719.5C 254.586,719.957 254.086,720.291 253.5,720.5C 252.824,719.398 252.158,718.398 251.5,717.5C 252.594,715.641 253.427,713.641 254,711.5C 254.333,712.167 254.667,712.833 255,713.5C 257.81,709.547 259.81,705.213 261,700.5C 261.333,701.5 261.667,702.5 262,703.5C 264.377,699.71 266.377,695.71 268,691.5C 268.333,692.167 268.667,692.833 269,693.5C 271.091,690.318 272.925,686.985 274.5,683.5C 275.086,683.709 275.586,684.043 276,684.5C 277.439,682.725 278.439,680.725 279,678.5C 280.011,677.663 281.178,677.33 282.5,677.5C 282.312,675.897 282.812,674.563 284,673.5C 284.333,673.833 284.667,674.167 285,674.5C 286,673.167 287,671.833 288,670.5C 288.333,670.833 288.667,671.167 289,671.5C 293.545,667.224 298.878,664.224 305,662.5C 307.646,663.039 310.146,663.372 312.5,663.5 Z"/></g>
<g><path style="opacity:1" fill="#767476" d="M 403.5,682.5 C 405.987,680.191 407.987,677.524 409.5,674.5C 408.772,681.062 405.106,684.896 398.5,686C 394.833,686.667 391.167,686.667 387.5,686C 384.109,684.048 380.442,682.715 376.5,682C 362.836,680.963 349.17,679.963 335.5,679C 323.669,674.875 311.669,674.541 299.5,678C 295.228,680.619 291.228,683.453 287.5,686.5C 289.541,683.466 291.875,680.8 294.5,678.5C 300.235,674.142 306.735,672.475 314,673.5C 333.26,676.76 352.76,678.927 372.5,680C 380.268,681.423 387.934,682.923 395.5,684.5C 398.35,684.436 401.017,683.77 403.5,682.5 Z"/></g>
<g><path style="opacity:1" fill="#716f71" d="M 436.5,677.5 C 434.818,685.382 434.318,693.382 435,701.5C 435.667,703.5 436.333,705.5 437,707.5C 441.324,710.964 445.324,714.631 449,718.5C 449.464,719.094 449.631,719.761 449.5,720.5C 447.862,719.841 446.195,719.174 444.5,718.5C 441.179,713.848 437.513,709.515 433.5,705.5C 432.335,697.855 432.169,690.188 433,682.5C 434.189,680.767 435.356,679.1 436.5,677.5 Z"/></g>
<g><path style="opacity:1" fill="#b2b2b2" d="M 457.5,619.5 C 461.009,620.474 462.176,622.807 461,626.5C 456.082,637.075 450.748,647.408 445,657.5C 444.51,658.793 444.343,660.127 444.5,661.5C 441.264,666.535 438.598,671.869 436.5,677.5C 435.356,679.1 434.189,680.767 433,682.5C 432.169,690.188 432.335,697.855 433.5,705.5C 437.513,709.515 441.179,713.848 444.5,718.5C 446.195,719.174 447.862,719.841 449.5,720.5C 452.93,721.542 455.597,723.542 457.5,726.5C 466.833,737.831 476.5,748.831 486.5,759.5C 488.473,762.907 489.973,766.574 491,770.5C 492,771.167 493,771.833 494,772.5C 494.571,776.167 495.737,779.5 497.5,782.5C 498.338,782.842 498.672,783.508 498.5,784.5C 499.333,793.489 499.499,802.489 499,811.5C 492.911,836.21 486.077,860.543 478.5,884.5C 476.864,885.749 475.697,887.416 475,889.5C 470.762,903.266 466.595,916.933 462.5,930.5C 459.158,936.524 456.325,942.858 454,949.5C 446.332,958.664 440.832,968.997 437.5,980.5C 433.285,988.601 429.285,996.934 425.5,1005.5C 423.9,1007.7 422.567,1010.04 421.5,1012.5C 418.495,1015.32 415.828,1018.48 413.5,1022C 409.747,1022.93 407.58,1021.43 407,1017.5C 406.833,1015.83 406.667,1014.17 406.5,1012.5C 406.876,1008.76 407.543,1005.09 408.5,1001.5C 416.594,989.306 421.927,975.973 424.5,961.5C 436.423,933.304 449.257,905.304 463,877.5C 466.153,870.429 468.487,863.096 470,855.5C 474.151,849.903 475.985,843.57 475.5,836.5C 476.503,830.464 477.503,824.464 478.5,818.5C 479.653,812.347 479.82,806.014 479,799.5C 477.555,796.91 476.388,794.243 475.5,791.5C 474.5,791.5 473.5,791.5 472.5,791.5C 472.167,789.167 470.833,787.833 468.5,787.5C 466.061,784.267 462.728,782.434 458.5,782C 452.936,780.99 447.602,781.657 442.5,784C 433.504,792.723 427.171,803.223 423.5,815.5C 423.167,816.833 422.833,818.167 422.5,819.5C 415.343,827.793 409.676,837.127 405.5,847.5C 401.711,851.403 399.378,856.07 398.5,861.5C 397.542,861.953 396.708,862.619 396,863.5C 394.57,866.353 393.737,869.353 393.5,872.5C 390.997,879.023 387.997,885.356 384.5,891.5C 380.621,896.234 377.454,901.567 375,907.5C 374,908.5 373,909.5 372,910.5C 371.333,909.167 370.667,909.167 370,910.5C 369.068,915.867 367.401,920.867 365,925.5C 360.794,927.905 358.628,931.571 358.5,936.5C 358.5,937.167 358.5,937.833 358.5,938.5C 357.206,939.29 356.039,940.29 355,941.5C 351.49,947.856 347.99,954.189 344.5,960.5C 343.728,964.598 341.728,967.931 338.5,970.5C 334.821,971.853 332.154,974.353 330.5,978C 329.207,978.49 327.873,978.657 326.5,978.5C 328.675,969.167 331.675,960.167 335.5,951.5C 335.736,948.379 337.069,946.046 339.5,944.5C 350.356,921.777 361.022,898.777 371.5,875.5C 373,873.167 374.5,870.833 376,868.5C 378.137,863.235 379.971,857.902 381.5,852.5C 383.5,850.167 385.5,847.833 387.5,845.5C 390.396,840.726 393.563,836.059 397,831.5C 399.16,825.51 400.993,819.51 402.5,813.5C 404.373,809.763 406.539,806.096 409,802.5C 410.474,798.562 411.641,794.562 412.5,790.5C 412.5,790.167 412.5,789.833 412.5,789.5C 417.082,781.733 418.249,773.4 416,764.5C 414.471,763.271 413.304,761.771 412.5,760C 406.781,756.415 400.781,753.582 394.5,751.5C 393.657,749.827 392.324,748.66 390.5,748C 385.376,746.114 380.209,744.614 375,743.5C 371.358,743.713 367.858,744.547 364.5,746C 363.619,746.708 362.953,747.542 362.5,748.5C 358.921,748.911 356.754,750.911 356,754.5C 354.667,755.167 353.333,755.833 352,756.5C 348.53,762.471 345.363,768.471 342.5,774.5C 335.11,784.258 328.443,794.592 322.5,805.5C 321.393,810.381 319.226,814.714 316,818.5C 315.505,820.473 315.338,822.473 315.5,824.5C 314.021,826.72 312.688,829.054 311.5,831.5C 310.504,831.414 309.671,831.748 309,832.5C 302.702,849.808 295.035,866.475 286,882.5C 285.506,884.134 285.34,885.801 285.5,887.5C 284.191,890.778 282.358,893.778 280,896.5C 279.08,899.101 278.413,901.768 278,904.5C 274.752,910.249 270.919,915.582 266.5,920.5C 265.518,921.141 264.518,921.807 263.5,922.5C 259.416,928.998 255.583,935.665 252,942.5C 250.491,944.919 248.325,945.919 245.5,945.5C 245.335,941.818 245.501,938.152 246,934.5C 247.219,930.097 248.386,925.764 249.5,921.5C 255.243,911.343 259.91,900.677 263.5,889.5C 265.946,882.351 269.28,875.685 273.5,869.5C 276.478,865.557 278.978,861.223 281,856.5C 283.925,850.312 286.591,843.979 289,837.5C 291.414,833.388 293.914,829.388 296.5,825.5C 296.833,824.167 297.167,822.833 297.5,821.5C 301.078,818.689 303.411,815.022 304.5,810.5C 309.757,801.548 315.09,792.548 320.5,783.5C 325.461,776.941 329.961,769.941 334,762.5C 334.779,755.494 336.779,748.827 340,742.5C 340.821,735.654 340.654,728.987 339.5,722.5C 339.229,718.864 337.563,716.03 334.5,714C 330.09,710.128 325.09,707.295 319.5,705.5C 313.534,704.479 307.534,703.979 301.5,704C 305.878,701.401 310.545,699.401 315.5,698C 314.833,697.667 314.167,697.333 313.5,697C 324.345,695.62 334.845,696.787 345,700.5C 345.772,700.355 346.439,700.022 347,699.5C 359.732,703.225 372.565,706.725 385.5,710C 391.112,711.007 396.445,710.341 401.5,708C 403.137,705.69 405.304,704.19 408,703.5C 413.046,696.807 416.713,689.473 419,681.5C 427.667,663.5 436.333,645.5 445,627.5C 447.08,625.007 448.914,622.341 450.5,619.5C 452.811,618.425 455.144,618.425 457.5,619.5 Z"/></g>
<g><path style="opacity:0.289" fill="#070c03" d="M 401.5,668.5 C 401.489,670.017 400.823,671.184 399.5,672C 397.22,672.212 395.22,673.045 393.5,674.5C 392.12,673.024 390.453,672.024 388.5,671.5C 384.88,671.214 381.214,671.214 377.5,671.5C 373.384,668.901 369.051,667.568 364.5,667.5C 363.808,668.025 363.308,668.692 363,669.5C 360.206,666.878 358.373,666.878 357.5,669.5C 353.114,667.344 348.447,666.01 343.5,665.5C 342.304,665.846 342.304,666.346 343.5,667C 335.461,668.658 328.128,667.158 321.5,662.5C 318.508,662.529 315.508,662.862 312.5,663.5C 310.146,663.372 307.646,663.039 305,662.5C 298.878,664.224 293.545,667.224 289,671.5C 288.667,671.167 288.333,670.833 288,670.5C 287,671.833 286,673.167 285,674.5C 284.667,674.167 284.333,673.833 284,673.5C 282.812,674.563 282.312,675.897 282.5,677.5C 281.178,677.33 280.011,677.663 279,678.5C 278.439,680.725 277.439,682.725 276,684.5C 275.586,684.043 275.086,683.709 274.5,683.5C 272.925,686.985 271.091,690.318 269,693.5C 268.667,692.833 268.333,692.167 268,691.5C 266.377,695.71 264.377,699.71 262,703.5C 261.667,702.5 261.333,701.5 261,700.5C 259.81,705.213 257.81,709.547 255,713.5C 254.667,712.833 254.333,712.167 254,711.5C 253.427,713.641 252.594,715.641 251.5,717.5C 247.121,721.231 243.954,725.897 242,731.5C 240.989,732.337 239.822,732.67 238.5,732.5C 238.496,734.842 237.663,736.842 236,738.5C 235.764,736.881 234.931,735.881 233.5,735.5C 247.413,716.019 261.58,696.685 276,677.5C 283.728,668.215 293.562,662.382 305.5,660C 311.167,659.333 316.833,659.333 322.5,660C 345.374,662.894 368.207,666.061 391,669.5C 393.47,669.66 395.636,668.993 397.5,667.5C 399.582,661.871 402.915,657.204 407.5,653.5C 407.435,653.938 407.601,654.272 408,654.5C 410.08,651.716 410.747,652.049 410,655.5C 405.367,658.637 402.533,662.971 401.5,668.5 Z"/></g>
<g><path style="opacity:1" fill="#565558" d="M 319.5,705.5 C 325.09,707.295 330.09,710.128 334.5,714C 337.563,716.03 339.229,718.864 339.5,722.5C 339.819,727.363 339.486,732.03 338.5,736.5C 338.666,732.154 338.499,727.821 338,723.5C 337.67,720.589 336.503,718.089 334.5,716C 327.614,712.475 320.448,709.641 313,707.5C 309.825,707.946 306.658,708.446 303.5,709C 302.347,710.883 300.681,711.716 298.5,711.5C 304.294,706.063 311.294,704.063 319.5,705.5 Z"/></g>
<g><path style="opacity:1" fill="#727072" d="M 298.5,711.5 C 297.607,714.461 295.607,716.294 292.5,717C 289.333,721.5 285.5,725.333 281,728.5C 276.898,734.385 272.564,740.052 268,745.5C 266.496,748.509 264.996,751.509 263.5,754.5C 262.389,756.552 260.723,757.886 258.5,758.5C 259.045,756.407 259.878,754.407 261,752.5C 269.568,741.708 277.901,730.708 286,719.5C 290.112,716.741 294.278,714.075 298.5,711.5 Z"/></g>
<g><path style="opacity:1" fill="#676868" d="M 263.5,721.5 C 251.556,737.791 239.556,754.125 227.5,770.5C 228.728,765.712 231.228,761.712 235,758.5C 239.27,751.932 243.437,745.265 247.5,738.5C 252.634,732.494 257.967,726.827 263.5,721.5 Z"/></g>
<g><path style="opacity:1" fill="#9d9c9c" d="M 448.5,612.5 C 451.681,614.592 454.681,616.925 457.5,619.5C 455.144,618.425 452.811,618.425 450.5,619.5C 448.914,622.341 447.08,625.007 445,627.5C 436.333,645.5 427.667,663.5 419,681.5C 416.713,689.473 413.046,696.807 408,703.5C 405.304,704.19 403.137,705.69 401.5,708C 396.445,710.341 391.112,711.007 385.5,710C 372.565,706.725 359.732,703.225 347,699.5C 346.439,700.022 345.772,700.355 345,700.5C 334.845,696.787 324.345,695.62 313.5,697C 314.167,697.333 314.833,697.667 315.5,698C 310.545,699.401 305.878,701.401 301.5,704C 307.534,703.979 313.534,704.479 319.5,705.5C 311.294,704.063 304.294,706.063 298.5,711.5C 294.278,714.075 290.112,716.741 286,719.5C 277.901,730.708 269.568,741.708 261,752.5C 259.878,754.407 259.045,756.407 258.5,758.5C 256.893,766.386 253.227,773.053 247.5,778.5C 250.572,772.855 253.239,767.022 255.5,761C 255.167,760.167 254.833,759.333 254.5,758.5C 254.167,758.667 253.833,758.833 253.5,759C 251.676,761.867 249.51,764.367 247,766.5C 231,791.167 215,815.833 199,840.5C 198.383,841.449 198.549,842.282 199.5,843C 195.073,848.845 191.906,855.345 190,862.5C 183.606,869.955 179.272,878.621 177,888.5C 172.905,893.033 169.572,898.033 167,903.5C 166.502,906.482 166.335,909.482 166.5,912.5C 170.831,913.549 172.997,911.882 173,907.5C 174.735,904.638 176.902,902.304 179.5,900.5C 176.548,904.571 174.548,909.071 173.5,914C 169.219,915.458 166.053,914.292 164,910.5C 162.165,904.979 162.332,899.479 164.5,894C 169.211,881.834 173.877,869.667 178.5,857.5C 178.502,853.835 179.835,850.835 182.5,848.5C 183.675,848.719 184.675,848.386 185.5,847.5C 189.266,840.45 192.433,833.117 195,825.5C 199.43,818.306 203.596,810.973 207.5,803.5C 209.008,797.805 212.008,793.138 216.5,789.5C 218.074,789.063 219.241,788.063 220,786.5C 221.869,780.82 224.369,775.487 227.5,770.5C 239.556,754.125 251.556,737.791 263.5,721.5C 263.295,717.242 265.128,714.242 269,712.5C 274.001,703.829 279.501,695.495 285.5,687.5C 285.842,686.662 286.508,686.328 287.5,686.5C 291.228,683.453 295.228,680.619 299.5,678C 311.669,674.541 323.669,674.875 335.5,679C 349.17,679.963 362.836,680.963 376.5,682C 380.442,682.715 384.109,684.048 387.5,686C 391.167,686.667 394.833,686.667 398.5,686C 405.106,684.896 408.772,681.062 409.5,674.5C 413.046,668.775 417.213,663.441 422,658.5C 423.009,656.975 423.509,655.308 423.5,653.5C 425.592,650.527 427.092,647.193 428,643.5C 431.435,640.705 433.101,637.038 433,632.5C 436.147,626.272 439.147,619.939 442,613.5C 444.016,611.392 446.183,611.058 448.5,612.5 Z"/></g>
<g><path style="opacity:1" fill="#4f4f4f" d="M 394.5,751.5 C 383.663,745.516 372.663,745.183 361.5,750.5C 361.833,749.833 362.167,749.167 362.5,748.5C 362.953,747.542 363.619,746.708 364.5,746C 367.858,744.547 371.358,743.713 375,743.5C 380.209,744.614 385.376,746.114 390.5,748C 392.324,748.66 393.657,749.827 394.5,751.5 Z"/></g>
<g><path style="opacity:1" fill="#1a1a1a" d="M 394.5,751.5 C 394.908,752.643 395.575,753.643 396.5,754.5C 403.029,756.59 408.696,759.923 413.5,764.5C 414.651,767.903 415.317,771.403 415.5,775C 414.048,779.738 413.048,784.571 412.5,789.5C 412.5,789.833 412.5,790.167 412.5,790.5C 409.916,795.052 407.416,799.718 405,804.5C 403.57,807.353 402.737,810.353 402.5,813.5C 401.115,814.574 399.949,815.907 399,817.5C 396.935,823.553 394.435,829.22 391.5,834.5C 390.833,834.833 390.167,835.167 389.5,835.5C 395.729,820.536 402.396,805.703 409.5,791C 408.551,790.383 407.718,790.549 407,791.5C 406.333,790.833 405.667,790.167 405,789.5C 403.125,791.982 401.291,794.315 399.5,796.5C 401.074,791.085 403.741,786.252 407.5,782C 407.746,779.346 407.079,776.679 405.5,774C 405.957,773.586 406.291,773.086 406.5,772.5C 405.09,769.504 403.09,767.004 400.5,765C 394.634,763.6 388.967,761.6 383.5,759C 380.484,754.212 376.151,752.546 370.5,754C 369.333,754.5 368.5,755.333 368,756.5C 367.667,756.167 367.333,755.833 367,755.5C 366.057,758.109 364.39,760.109 362,761.5C 361.667,760.833 361.333,760.167 361,759.5C 360.017,761.448 358.85,763.282 357.5,765C 358.609,766.813 357.942,767.646 355.5,767.5C 355.244,769.937 354.577,772.271 353.5,774.5C 354.476,776.123 353.976,777.457 352,778.5C 348.383,785.058 344.716,791.724 341,798.5C 339.39,800.731 337.557,802.731 335.5,804.5C 334.611,807.279 333.444,809.945 332,812.5C 330.836,812.165 329.503,812.165 328,812.5C 326.549,815.372 326.382,818.372 327.5,821.5C 326.5,821.5 325.5,821.5 324.5,821.5C 315.249,845.468 304.582,868.634 292.5,891C 292.645,891.772 292.978,892.439 293.5,893C 288.221,902.388 283.054,911.888 278,921.5C 275.234,924.728 272.734,928.061 270.5,931.5C 269.358,934.399 268.692,937.399 268.5,940.5C 267.955,942.593 267.122,944.593 266,946.5C 262.644,949.761 259.144,952.761 255.5,955.5C 251.778,955.211 247.945,955.211 244,955.5C 243.323,953.311 242.156,952.978 240.5,954.5C 236.622,950.846 234.955,946.513 235.5,941.5C 237.346,943.03 238.346,945.03 238.5,947.5C 240.216,947.629 241.883,947.962 243.5,948.5C 244.601,949.598 245.934,949.765 247.5,949C 250.036,946.295 252.703,943.795 255.5,941.5C 255.688,945.091 254.855,948.424 253,951.5C 252.904,945.314 251.737,944.98 249.5,950.5C 250.696,953.138 252.696,953.971 255.5,953C 258.603,948.893 262.103,945.06 266,941.5C 264.876,939.004 264.209,936.337 264,933.5C 265.439,931.725 266.439,929.725 267,927.5C 271.013,924.791 273.513,921.125 274.5,916.5C 276.39,916.703 277.89,916.037 279,914.5C 280.123,911.751 281.623,909.251 283.5,907C 282.263,906.768 281.263,906.268 280.5,905.5C 284.5,896.167 288.5,886.833 292.5,877.5C 292.461,874.911 293.461,872.911 295.5,871.5C 297.736,867.355 299.736,863.022 301.5,858.5C 308.928,843.898 315.595,828.898 321.5,813.5C 324.784,809.522 327.617,805.188 330,800.5C 330.483,799.552 330.649,798.552 330.5,797.5C 331.643,797.092 332.643,796.425 333.5,795.5C 339.094,787.318 343.927,778.651 348,769.5C 352.363,762.986 356.863,756.653 361.5,750.5C 372.663,745.183 383.663,745.516 394.5,751.5 Z"/></g>
<g><path style="opacity:1" fill="#1e1f1c" d="M 451.5,708.5 C 455.269,712.444 458.936,716.611 462.5,721C 464,721.5 465.5,722 467,722.5C 468.03,722.164 468.53,721.497 468.5,720.5C 471.167,722.5 473.5,724.833 475.5,727.5C 474.357,727.908 473.357,728.575 472.5,729.5C 474.453,730.761 476.453,731.927 478.5,733C 478.043,733.414 477.709,733.914 477.5,734.5C 481.446,735.663 483.613,738.329 484,742.5C 486.365,743.289 488.532,744.456 490.5,746C 489.833,746.333 489.167,746.667 488.5,747C 490.167,748 491.833,749 493.5,750C 493.041,751.943 494.041,753.276 496.5,754C 496.167,754.333 495.833,754.667 495.5,755C 497.582,756.617 499.248,758.617 500.5,761C 503.406,766.134 505.573,771.634 507,777.5C 507.814,779.282 508.981,780.782 510.5,782C 509.601,784.538 509.934,787.038 511.5,789.5C 509.978,791.156 510.311,792.323 512.5,793C 511.483,794.049 511.316,795.216 512,796.5C 513.011,795.663 514.178,795.33 515.5,795.5C 515.5,798.167 515.5,800.833 515.5,803.5C 514.778,803.082 514.278,802.416 514,801.5C 511.253,803.454 511.086,805.454 513.5,807.5C 512.833,808.833 512.167,810.167 511.5,811.5C 513.617,813.627 512.951,813.96 509.5,812.5C 508.757,813.908 507.923,815.241 507,816.5C 506.5,816 506,815.5 505.5,815C 506.444,812.281 506.777,809.448 506.5,806.5C 505.448,806.649 504.448,806.483 503.5,806C 507.031,802.754 507.031,799.754 503.5,797C 503.943,793.921 504.943,791.088 506.5,788.5C 505.738,788.089 504.738,787.923 503.5,788C 504.451,787.282 504.617,786.449 504,785.5C 502.595,786.731 501.429,788.064 500.5,789.5C 500.692,785.098 499.692,781.098 497.5,777.5C 495.357,770.586 491.69,764.586 486.5,759.5C 476.5,748.831 466.833,737.831 457.5,726.5C 457.703,724.61 457.037,723.11 455.5,722C 456.308,721.692 456.975,721.192 457.5,720.5C 455.293,716.086 453.293,712.086 451.5,708.5 Z"/></g>
<g><path style="opacity:1" fill="#515151" d="M 394.5,751.5 C 400.781,753.582 406.781,756.415 412.5,760C 413.304,761.771 414.471,763.271 416,764.5C 418.249,773.4 417.082,781.733 412.5,789.5C 413.048,784.571 414.048,779.738 415.5,775C 415.317,771.403 414.651,767.903 413.5,764.5C 408.696,759.923 403.029,756.59 396.5,754.5C 395.575,753.643 394.908,752.643 394.5,751.5 Z"/></g>
<g><path style="opacity:1" fill="#706e72" d="M 362.5,748.5 C 362.167,749.167 361.833,749.833 361.5,750.5C 356.863,756.653 352.363,762.986 348,769.5C 343.927,778.651 339.094,787.318 333.5,795.5C 332.643,796.425 331.643,797.092 330.5,797.5C 332.199,791.621 335.366,786.621 340,782.5C 341.144,779.92 341.978,777.253 342.5,774.5C 345.363,768.471 348.53,762.471 352,756.5C 353.333,755.833 354.667,755.167 356,754.5C 356.754,750.911 358.921,748.911 362.5,748.5 Z"/></g>
<g><path style="opacity:1" fill="#12190c" d="M 323.5,724.5 C 321.516,723.844 319.516,723.178 317.5,722.5C 316.287,722.747 315.62,723.414 315.5,724.5C 309.908,724.087 304.908,725.587 300.5,729C 296.215,733.74 292.048,738.573 288,743.5C 280.373,755.14 272.706,766.807 265,778.5C 256.825,792.179 249.159,806.179 242,820.5C 241.292,821.381 240.458,822.047 239.5,822.5C 239.196,821.85 238.863,821.183 238.5,820.5C 241.548,815.192 243.715,809.525 245,803.5C 246.097,801.947 247.43,800.614 249,799.5C 252.084,793.027 254.751,786.361 257,779.5C 260.481,773.395 264.148,767.395 268,761.5C 269.512,760.743 270.846,759.743 272,758.5C 273.565,755.038 275.398,751.705 277.5,748.5C 276.339,746.776 276.505,745.11 278,743.5C 283.98,735.522 290.313,727.855 297,720.5C 300.847,719.201 304.68,719.201 308.5,720.5C 310.179,719.218 312.013,718.218 314,717.5C 314.691,719.891 315.691,719.891 317,717.5C 318.6,718.866 320.433,719.866 322.5,720.5C 323.246,721.736 323.579,723.07 323.5,724.5 Z"/></g>
<g><path style="opacity:0.222" fill="#050b02" d="M 475.5,727.5 C 492.03,740.88 504.197,757.547 512,777.5C 513.806,783.387 514.972,789.387 515.5,795.5C 514.178,795.33 513.011,795.663 512,796.5C 511.316,795.216 511.483,794.049 512.5,793C 510.311,792.323 509.978,791.156 511.5,789.5C 509.934,787.038 509.601,784.538 510.5,782C 508.981,780.782 507.814,779.282 507,777.5C 505.573,771.634 503.406,766.134 500.5,761C 499.248,758.617 497.582,756.617 495.5,755C 495.833,754.667 496.167,754.333 496.5,754C 494.041,753.276 493.041,751.943 493.5,750C 491.833,749 490.167,748 488.5,747C 489.167,746.667 489.833,746.333 490.5,746C 488.532,744.456 486.365,743.289 484,742.5C 483.613,738.329 481.446,735.663 477.5,734.5C 477.709,733.914 478.043,733.414 478.5,733C 476.453,731.927 474.453,730.761 472.5,729.5C 473.357,728.575 474.357,727.908 475.5,727.5 Z"/></g>
<g><path style="opacity:1" fill="#8a8a8a" d="M 339.5,722.5 C 340.654,728.987 340.821,735.654 340,742.5C 336.779,748.827 334.779,755.494 334,762.5C 329.961,769.941 325.461,776.941 320.5,783.5C 320.343,782.127 320.51,780.793 321,779.5C 324.074,773.647 327.407,767.981 331,762.5C 332.309,755.833 334.642,749.5 338,743.5C 338.494,741.866 338.66,740.199 338.5,738.5C 338.5,737.833 338.5,737.167 338.5,736.5C 339.486,732.03 339.819,727.363 339.5,722.5 Z"/></g>
<g><path style="opacity:1" fill="#5d5d5d" d="M 227.5,770.5 C 224.369,775.487 221.869,780.82 220,786.5C 219.241,788.063 218.074,789.063 216.5,789.5C 218.405,782.008 222.071,775.675 227.5,770.5 Z"/></g>
<g><path style="opacity:1" fill="#828280" d="M 486.5,759.5 C 491.69,764.586 495.357,770.586 497.5,777.5C 497.5,779.167 497.5,780.833 497.5,782.5C 495.737,779.5 494.571,776.167 494,772.5C 493,771.833 492,771.167 491,770.5C 489.973,766.574 488.473,762.907 486.5,759.5 Z"/></g>
<g><path style="opacity:1" fill="#656565" d="M 247.5,778.5 C 243.594,788.641 238.928,798.308 233.5,807.5C 235.654,800.2 238.487,793.2 242,786.5C 243.609,783.593 245.442,780.927 247.5,778.5 Z"/></g>
<g><path style="opacity:1" fill="#696969" d="M 468.5,787.5 C 460.555,783.265 452.222,782.431 443.5,785C 440.779,789.729 437.279,793.896 433,797.5C 431.136,802.091 429.47,806.757 428,811.5C 426.306,812.699 424.806,814.032 423.5,815.5C 427.171,803.223 433.504,792.723 442.5,784C 447.602,781.657 452.936,780.99 458.5,782C 462.728,782.434 466.061,784.267 468.5,787.5 Z"/></g>
<g><path style="opacity:1" fill="#1d1d1c" d="M 468.5,787.5 C 470.833,787.833 472.167,789.167 472.5,791.5C 474.536,794.371 476.37,797.371 478,800.5C 478.499,806.491 478.666,812.491 478.5,818.5C 477.503,824.464 476.503,830.464 475.5,836.5C 473.655,840.167 472.488,844.167 472,848.5C 471.623,849.942 470.79,850.942 469.5,851.5C 469.979,847.566 469.312,843.899 467.5,840.5C 469.007,838.031 468.673,835.865 466.5,834C 468.799,831.551 470.466,828.717 471.5,825.5C 469.713,823.142 468.713,820.475 468.5,817.5C 468.128,812.428 466.795,807.595 464.5,803C 463.425,800.334 461.759,799.501 459.5,800.5C 458.833,800.167 458.167,799.833 457.5,799.5C 457.918,798.778 458.584,798.278 459.5,798C 453.72,793.274 448.387,793.774 443.5,799.5C 435.836,814.164 428.67,829.164 422,844.5C 421.683,842.699 421.016,842.366 420,843.5C 416.535,851.55 412.868,859.55 409,867.5C 408.667,866.833 408.333,866.167 408,865.5C 400.119,881.924 392.286,898.258 384.5,914.5C 382.61,914.297 381.11,914.963 380,916.5C 377.871,919.767 376.038,923.101 374.5,926.5C 375.052,924.669 375.052,923.003 374.5,921.5C 378.199,917.747 379.199,913.414 377.5,908.5C 379.339,902.651 381.672,896.984 384.5,891.5C 387.997,885.356 390.997,879.023 393.5,872.5C 395.565,869.075 397.231,865.408 398.5,861.5C 403.508,857.8 406.508,852.8 407.5,846.5C 411.688,837.131 416.688,828.131 422.5,819.5C 422.833,818.167 423.167,816.833 423.5,815.5C 424.806,814.032 426.306,812.699 428,811.5C 429.47,806.757 431.136,802.091 433,797.5C 437.279,793.896 440.779,789.729 443.5,785C 452.222,782.431 460.555,783.265 468.5,787.5 Z"/></g>
<g><path style="opacity:1" fill="#1a1a19" d="M 338.5,736.5 C 338.5,737.167 338.5,737.833 338.5,738.5C 336.946,737.086 335.612,735.419 334.5,733.5C 333.476,734.853 332.143,735.52 330.5,735.5C 331.78,741.52 330.113,746.353 325.5,750C 326.826,752.868 325.992,755.034 323,756.5C 321.475,766.885 316.808,775.551 309,782.5C 307.039,789.184 303.873,795.184 299.5,800.5C 300.711,803.414 299.711,805.414 296.5,806.5C 295.636,808.962 294.303,811.129 292.5,813C 292.833,813.333 293.167,813.667 293.5,814C 292.307,815.095 290.973,815.928 289.5,816.5C 291.248,810.995 293.581,805.662 296.5,800.5C 296.03,799.537 295.363,799.537 294.5,800.5C 294.427,798.973 295.094,797.973 296.5,797.5C 298.561,798.682 300.061,798.015 301,795.5C 303.535,787.813 307.535,781.146 313,775.5C 317.364,766.072 321.53,756.572 325.5,747C 325.265,746.127 324.931,745.293 324.5,744.5C 326.471,741.973 327.137,739.307 326.5,736.5C 325.914,736.709 325.414,737.043 325,737.5C 324.333,736.167 324.333,734.833 325,733.5C 326.131,734.604 326.965,734.271 327.5,732.5C 325.87,729.974 324.537,727.307 323.5,724.5C 323.579,723.07 323.246,721.736 322.5,720.5C 320.433,719.866 318.6,718.866 317,717.5C 315.691,719.891 314.691,719.891 314,717.5C 312.013,718.218 310.179,719.218 308.5,720.5C 304.68,719.201 300.847,719.201 297,720.5C 290.313,727.855 283.98,735.522 278,743.5C 276.505,745.11 276.339,746.776 277.5,748.5C 275.398,751.705 273.565,755.038 272,758.5C 270.846,759.743 269.512,760.743 268,761.5C 264.148,767.395 260.481,773.395 257,779.5C 254.751,786.361 252.084,793.027 249,799.5C 247.43,800.614 246.097,801.947 245,803.5C 243.715,809.525 241.548,815.192 238.5,820.5C 238.863,821.183 239.196,821.85 239.5,822.5C 235.034,832.103 230.534,841.77 226,851.5C 221.026,858.964 216.526,866.631 212.5,874.5C 211.414,874.38 210.747,873.713 210.5,872.5C 211.304,869.56 212.637,866.893 214.5,864.5C 213.973,859.538 212.473,859.205 210,863.5C 209.28,865.112 209.446,866.612 210.5,868C 209.874,868.75 209.374,869.584 209,870.5C 208.333,869.167 207.667,869.167 207,870.5C 205.394,874.911 202.894,878.578 199.5,881.5C 200.504,877.992 202.171,874.826 204.5,872C 202.573,869.434 200.24,868.934 197.5,870.5C 198.11,868.566 199.11,866.899 200.5,865.5C 201.818,864.243 203.151,862.909 204.5,861.5C 206.255,856.995 208.255,852.661 210.5,848.5C 213.344,842.148 216.177,835.814 219,829.5C 219.894,827.233 221.394,825.566 223.5,824.5C 226.412,819.737 229.579,815.071 233,810.5C 233.483,809.552 233.649,808.552 233.5,807.5C 238.928,798.308 243.594,788.641 247.5,778.5C 253.227,773.053 256.893,766.386 258.5,758.5C 260.723,757.886 262.389,756.552 263.5,754.5C 264.996,751.509 266.496,748.509 268,745.5C 272.564,740.052 276.898,734.385 281,728.5C 285.5,725.333 289.333,721.5 292.5,717C 295.607,716.294 297.607,714.461 298.5,711.5C 300.681,711.716 302.347,710.883 303.5,709C 306.658,708.446 309.825,707.946 313,707.5C 320.448,709.641 327.614,712.475 334.5,716C 336.503,718.089 337.67,720.589 338,723.5C 338.499,727.821 338.666,732.154 338.5,736.5 Z"/></g>
<g><path style="opacity:0.5" fill="#020401" d="M 323.5,724.5 C 324.537,727.307 325.87,729.974 327.5,732.5C 326.965,734.271 326.131,734.604 325,733.5C 324.333,734.833 324.333,736.167 325,737.5C 325.414,737.043 325.914,736.709 326.5,736.5C 327.137,739.307 326.471,741.973 324.5,744.5C 324.931,745.293 325.265,746.127 325.5,747C 321.53,756.572 317.364,766.072 313,775.5C 307.535,781.146 303.535,787.813 301,795.5C 300.061,798.015 298.561,798.682 296.5,797.5C 300.34,789.168 304.84,781.168 310,773.5C 314.824,764.854 318.824,755.854 322,746.5C 323.653,740.208 323.819,733.874 322.5,727.5C 320.115,726.339 317.781,725.339 315.5,724.5C 315.62,723.414 316.287,722.747 317.5,722.5C 319.516,723.178 321.516,723.844 323.5,724.5 Z"/></g>
<g><path style="opacity:1" fill="#8e8c8e" d="M 342.5,774.5 C 341.978,777.253 341.144,779.92 340,782.5C 335.366,786.621 332.199,791.621 330.5,797.5C 330.649,798.552 330.483,799.552 330,800.5C 327.617,805.188 324.784,809.522 321.5,813.5C 318.704,816.761 316.704,820.427 315.5,824.5C 315.338,822.473 315.505,820.473 316,818.5C 319.226,814.714 321.393,810.381 322.5,805.5C 328.443,794.592 335.11,784.258 342.5,774.5 Z"/></g>
<g><path style="opacity:1" fill="#1b1a1d" d="M 389.5,835.5 C 386.077,840.747 383.411,846.413 381.5,852.5C 376.197,861.332 371.03,870.332 366,879.5C 357.694,897.449 349.361,915.449 341,933.5C 340.51,934.793 340.343,936.127 340.5,937.5C 336.375,944.585 332.542,951.918 329,959.5C 328.51,960.793 328.343,962.127 328.5,963.5C 326.479,968.943 325.479,974.61 325.5,980.5C 327.199,980.66 328.866,980.494 330.5,980C 333.724,977.278 336.391,974.112 338.5,970.5C 341.728,967.931 343.728,964.598 344.5,960.5C 347.888,956.751 351.055,952.751 354,948.5C 354.717,944.738 356.217,941.404 358.5,938.5C 358.5,937.833 358.5,937.167 358.5,936.5C 363.313,930.894 367.147,924.56 370,917.5C 373.461,915.211 375.961,912.211 377.5,908.5C 379.199,913.414 378.199,917.747 374.5,921.5C 375.052,923.003 375.052,924.669 374.5,926.5C 372.565,933.568 369.565,940.068 365.5,946C 364.207,946.49 362.873,946.657 361.5,946.5C 362.303,950.169 361.136,952.836 358,954.5C 356.807,957.866 354.974,960.866 352.5,963.5C 353.025,964.192 353.692,964.692 354.5,965C 353.1,966.438 351.433,967.271 349.5,967.5C 347.375,974.487 343.708,980.653 338.5,986C 335.487,987.665 332.32,988.832 329,989.5C 325.803,988.691 322.637,987.691 319.5,986.5C 318.542,984.376 317.375,982.376 316,980.5C 315.78,964.6 320.447,950.266 330,937.5C 333.064,930.308 335.73,922.975 338,915.5C 338.925,914.953 339.758,914.287 340.5,913.5C 342.431,908.873 344.265,904.206 346,899.5C 347.079,897.606 348.413,897.273 350,898.5C 355.095,888.825 359.595,878.825 363.5,868.5C 364.274,867.289 365.107,867.289 366,868.5C 367.959,866.474 368.793,864.308 368.5,862C 375.372,848.419 381.872,834.585 388,820.5C 389,819.5 390,818.5 391,817.5C 393.305,810.232 396.138,803.232 399.5,796.5C 401.291,794.315 403.125,791.982 405,789.5C 405.667,790.167 406.333,790.833 407,791.5C 407.718,790.549 408.551,790.383 409.5,791C 402.396,805.703 395.729,820.536 389.5,835.5 Z"/></g>
<g><path style="opacity:1" fill="#6f6d6e" d="M 472.5,791.5 C 473.5,791.5 474.5,791.5 475.5,791.5C 476.388,794.243 477.555,796.91 479,799.5C 479.82,806.014 479.653,812.347 478.5,818.5C 478.666,812.491 478.499,806.491 478,800.5C 476.37,797.371 474.536,794.371 472.5,791.5 Z"/></g>
<g><path style="opacity:1" fill="#4c4b4c" d="M 497.5,777.5 C 499.692,781.098 500.692,785.098 500.5,789.5C 501.79,798.628 501.79,807.628 500.5,816.5C 500.938,805.61 500.272,794.943 498.5,784.5C 498.672,783.508 498.338,782.842 497.5,782.5C 497.5,780.833 497.5,779.167 497.5,777.5 Z"/></g>
<g><path style="opacity:1" fill="#5f5f5e" d="M 412.5,790.5 C 411.641,794.562 410.474,798.562 409,802.5C 406.539,806.096 404.373,809.763 402.5,813.5C 402.737,810.353 403.57,807.353 405,804.5C 407.416,799.718 409.916,795.052 412.5,790.5 Z"/></g>
<g><path style="opacity:1" fill="#1c1b1d" d="M 285.5,687.5 C 279.501,695.495 274.001,703.829 269,712.5C 265.128,714.242 263.295,717.242 263.5,721.5C 257.967,726.827 252.634,732.494 247.5,738.5C 243.437,745.265 239.27,751.932 235,758.5C 231.228,761.712 228.728,765.712 227.5,770.5C 222.071,775.675 218.405,782.008 216.5,789.5C 212.008,793.138 209.008,797.805 207.5,803.5C 206.185,804.476 204.852,805.476 203.5,806.5C 200.231,813.248 196.398,819.581 192,825.5C 188.253,832.986 185.086,840.653 182.5,848.5C 179.835,850.835 178.502,853.835 178.5,857.5C 177.542,857.953 176.708,858.619 176,859.5C 172.411,869.564 168.078,879.231 163,888.5C 162.691,893.182 161.857,897.682 160.5,902C 160.787,907.195 162.453,911.862 165.5,916C 169.29,918.292 172.457,917.792 175,914.5C 177.972,908.574 180.638,902.574 183,896.5C 189.419,888.768 194.252,880.102 197.5,870.5C 200.24,868.934 202.573,869.434 204.5,872C 202.171,874.826 200.504,877.992 199.5,881.5C 198.892,885.185 196.892,888.018 193.5,890C 193.833,890.333 194.167,890.667 194.5,891C 190.376,895.314 187.542,900.814 186,907.5C 180.946,913.888 175.279,919.554 169,924.5C 166.919,926.557 167.086,928.223 169.5,929.5C 164.101,927.7 158.768,925.7 153.5,923.5C 156.963,922.927 159.63,921.094 161.5,918C 160.552,917.517 159.552,917.351 158.5,917.5C 158.66,915.801 158.494,914.134 158,912.5C 156.428,916.378 154.928,916.378 153.5,912.5C 153.479,910.398 153.813,908.232 154.5,906C 153.232,903.859 152.565,901.526 152.5,899C 153.348,895.154 154.681,891.487 156.5,888C 156.355,887.228 156.022,886.561 155.5,886C 162.534,873.421 169.034,860.921 175,848.5C 183.509,829.329 191.842,809.995 200,790.5C 200.689,791.357 201.522,792.023 202.5,792.5C 207.133,790.708 209.633,787.375 210,782.5C 212.168,781.371 212.668,779.871 211.5,778C 213.049,776.786 214.215,775.286 215,773.5C 215.227,767.151 217.227,761.484 221,756.5C 221.333,757.167 221.667,757.833 222,758.5C 224.548,754.737 226.548,750.737 228,746.5C 228.333,747.167 228.667,747.833 229,748.5C 231.936,745.203 233.102,741.537 232.5,737.5C 232.833,736.833 233.167,736.167 233.5,735.5C 234.931,735.881 235.764,736.881 236,738.5C 237.663,736.842 238.496,734.842 238.5,732.5C 239.822,732.67 240.989,732.337 242,731.5C 243.954,725.897 247.121,721.231 251.5,717.5C 252.158,718.398 252.824,719.398 253.5,720.5C 254.086,720.291 254.586,719.957 255,719.5C 256,721.167 257,722.833 258,724.5C 258.333,724.167 258.667,723.833 259,723.5C 261.177,718.853 263.51,714.186 266,709.5C 266.651,707.765 266.485,706.098 265.5,704.5C 268.059,700.714 270.059,696.714 271.5,692.5C 273.76,691.861 275.76,690.694 277.5,689C 282.396,681.374 283.562,681.874 281,690.5C 281.908,688.561 283.408,687.561 285.5,687.5 Z"/></g>
<g><path style="opacity:0.777" fill="#040702" d="M 189.5,803.5 C 190.097,803.735 190.43,804.235 190.5,805C 179.034,831.768 166.868,858.268 154,884.5C 153.23,885.598 152.397,885.598 151.5,884.5C 162.002,861.138 172.502,837.805 183,814.5C 184.711,810.49 186.878,806.824 189.5,803.5 Z"/></g>
<g><path style="opacity:1" fill="#646366" d="M 304.5,810.5 C 303.411,815.022 301.078,818.689 297.5,821.5C 299.587,817.656 301.92,813.989 304.5,810.5 Z"/></g>
<g><path style="opacity:1" fill="#656565" d="M 233.5,807.5 C 233.649,808.552 233.483,809.552 233,810.5C 229.579,815.071 226.412,819.737 223.5,824.5C 225.098,819.299 227.265,814.299 230,809.5C 230.816,808.177 231.983,807.511 233.5,807.5 Z"/></g>
<g><path style="opacity:1" fill="#767676" d="M 498.5,784.5 C 500.272,794.943 500.938,805.61 500.5,816.5C 499.68,818.14 498.847,819.807 498,821.5C 496.667,828.167 495.333,834.833 494,841.5C 490.031,852.581 486.531,863.914 483.5,875.5C 481.567,878.367 479.901,881.367 478.5,884.5C 486.077,860.543 492.911,836.21 499,811.5C 499.499,802.489 499.333,793.489 498.5,784.5 Z"/></g>
<g><path style="opacity:1" fill="#808180" d="M 402.5,813.5 C 400.993,819.51 399.16,825.51 397,831.5C 393.563,836.059 390.396,840.726 387.5,845.5C 388.001,841.505 389.334,837.838 391.5,834.5C 394.435,829.22 396.935,823.553 399,817.5C 399.949,815.907 401.115,814.574 402.5,813.5 Z"/></g>
<g><path style="opacity:0.51" fill="#040504" d="M 289.5,816.5 C 288.21,817.058 287.377,818.058 287,819.5C 286.667,819.167 286.333,818.833 286,818.5C 272.236,842.239 260.069,866.905 249.5,892.5C 245.919,896.624 244.419,901.291 245,906.5C 243.741,909.356 242.241,912.023 240.5,914.5C 239.713,916.104 238.38,916.771 236.5,916.5C 247.724,886.379 260.89,857.045 276,828.5C 282.06,818.97 288.227,809.636 294.5,800.5C 295.363,799.537 296.03,799.537 296.5,800.5C 293.581,805.662 291.248,810.995 289.5,816.5 Z"/></g>
<g><path style="opacity:1" fill="#474749" d="M 321.5,813.5 C 315.595,828.898 308.928,843.898 301.5,858.5C 304.066,849.252 307.399,840.252 311.5,831.5C 312.688,829.054 314.021,826.72 315.5,824.5C 316.704,820.427 318.704,816.761 321.5,813.5 Z"/></g>
<g><path style="opacity:1" fill="#1d1e1f" d="M 338.5,738.5 C 338.66,740.199 338.494,741.866 338,743.5C 334.642,749.5 332.309,755.833 331,762.5C 327.407,767.981 324.074,773.647 321,779.5C 320.51,780.793 320.343,782.127 320.5,783.5C 315.09,792.548 309.757,801.548 304.5,810.5C 301.92,813.989 299.587,817.656 297.5,821.5C 297.167,822.833 296.833,824.167 296.5,825.5C 293.5,827.668 291,830.334 289,833.5C 284,844.167 279,854.833 274,865.5C 273.51,866.793 273.343,868.127 273.5,869.5C 269.28,875.685 265.946,882.351 263.5,889.5C 259.924,896.352 256.424,903.352 253,910.5C 251.241,914.009 250.074,917.675 249.5,921.5C 248.108,923.273 246.941,925.273 246,927.5C 245.743,931.377 244.743,935.043 243,938.5C 242.341,941.888 242.508,945.221 243.5,948.5C 241.883,947.962 240.216,947.629 238.5,947.5C 238.346,945.03 237.346,943.03 235.5,941.5C 234.441,939.274 234.608,936.941 236,934.5C 238.521,930.593 240.855,926.593 243,922.5C 243.492,917.029 244.992,911.863 247.5,907C 246.898,902.268 247.898,897.768 250.5,893.5C 250.376,892.893 250.043,892.56 249.5,892.5C 260.069,866.905 272.236,842.239 286,818.5C 286.333,818.833 286.667,819.167 287,819.5C 287.377,818.058 288.21,817.058 289.5,816.5C 290.973,815.928 292.307,815.095 293.5,814C 293.167,813.667 292.833,813.333 292.5,813C 294.303,811.129 295.636,808.962 296.5,806.5C 299.711,805.414 300.711,803.414 299.5,800.5C 303.873,795.184 307.039,789.184 309,782.5C 316.808,775.551 321.475,766.885 323,756.5C 325.992,755.034 326.826,752.868 325.5,750C 330.113,746.353 331.78,741.52 330.5,735.5C 332.143,735.52 333.476,734.853 334.5,733.5C 335.612,735.419 336.946,737.086 338.5,738.5 Z"/></g>
<g><path style="opacity:0.444" fill="#030503" d="M 468.5,817.5 C 466.507,819 466.174,820.833 467.5,823C 463.706,834.303 459.539,845.469 455,856.5C 454.667,859.167 454.333,861.833 454,864.5C 449.791,872.531 445.958,880.698 442.5,889C 443.517,890.049 443.684,891.216 443,892.5C 432.867,914.551 422.534,936.551 412,958.5C 411.329,959.252 410.496,959.586 409.5,959.5C 417.989,938.532 427.156,917.865 437,897.5C 444.859,875.696 452.859,854.029 461,832.5C 462.482,827.224 463.649,821.891 464.5,816.5C 464.023,810.738 462.356,805.404 459.5,800.5C 461.759,799.501 463.425,800.334 464.5,803C 466.795,807.595 468.128,812.428 468.5,817.5 Z"/></g>
<g><path style="opacity:1" fill="#767676" d="M 422.5,819.5 C 416.688,828.131 411.688,837.131 407.5,846.5C 406.833,846.833 406.167,847.167 405.5,847.5C 409.676,837.127 415.343,827.793 422.5,819.5 Z"/></g>
<g><path style="opacity:1" fill="#494946" d="M 391.5,834.5 C 389.334,837.838 388.001,841.505 387.5,845.5C 385.5,847.833 383.5,850.167 381.5,852.5C 383.411,846.413 386.077,840.747 389.5,835.5C 390.167,835.167 390.833,834.833 391.5,834.5 Z"/></g>
<g><path style="opacity:1" fill="#131b0c" d="M 512.5,828.5 C 506.399,859.135 496.732,888.468 483.5,916.5C 482.448,916.351 481.448,916.517 480.5,917C 479.267,919.314 477.933,921.481 476.5,923.5C 476.722,920.61 476.055,917.943 474.5,915.5C 481.324,904.187 486.491,892.187 490,879.5C 492.423,876.751 494.423,873.751 496,870.5C 497.844,863.64 499.677,856.806 501.5,850C 502.154,842.587 504.321,835.421 508,828.5C 509.451,828.264 510.951,828.264 512.5,828.5 Z"/></g>
<g><path style="opacity:1" fill="#797577" d="M 207.5,803.5 C 203.596,810.973 199.43,818.306 195,825.5C 192.433,833.117 189.266,840.45 185.5,847.5C 184.675,848.386 183.675,848.719 182.5,848.5C 185.086,840.653 188.253,832.986 192,825.5C 196.398,819.581 200.231,813.248 203.5,806.5C 204.852,805.476 206.185,804.476 207.5,803.5 Z"/></g>
<g><path style="opacity:1" fill="#747374" d="M 210.5,848.5 C 208.255,852.661 206.255,856.995 204.5,861.5C 203.151,862.909 201.818,864.243 200.5,865.5C 203.337,860.817 205.504,855.817 207,850.5C 208.113,849.695 209.279,849.028 210.5,848.5 Z"/></g>
<g><path style="opacity:1" fill="#464647" d="M 407.5,846.5 C 406.508,852.8 403.508,857.8 398.5,861.5C 399.378,856.07 401.711,851.403 405.5,847.5C 406.167,847.167 406.833,846.833 407.5,846.5 Z"/></g>
<g><path style="opacity:1" fill="#828184" d="M 296.5,825.5 C 293.914,829.388 291.414,833.388 289,837.5C 286.591,843.979 283.925,850.312 281,856.5C 278.978,861.223 276.478,865.557 273.5,869.5C 273.343,868.127 273.51,866.793 274,865.5C 279,854.833 284,844.167 289,833.5C 291,830.334 293.5,827.668 296.5,825.5 Z"/></g>
<g><path style="opacity:1" fill="#414141" d="M 301.5,858.5 C 299.736,863.022 297.736,867.355 295.5,871.5C 296.145,866.544 298.145,862.211 301.5,858.5 Z"/></g>
<g><path style="opacity:1" fill="#757476" d="M 398.5,861.5 C 397.231,865.408 395.565,869.075 393.5,872.5C 393.737,869.353 394.57,866.353 396,863.5C 396.708,862.619 397.542,861.953 398.5,861.5 Z"/></g>
<g><path style="opacity:1" fill="#818182" d="M 311.5,831.5 C 307.399,840.252 304.066,849.252 301.5,858.5C 298.145,862.211 296.145,866.544 295.5,871.5C 293.461,872.911 292.461,874.911 292.5,877.5C 291.624,877.369 290.957,877.702 290.5,878.5C 289.059,881.724 287.392,884.724 285.5,887.5C 285.34,885.801 285.506,884.134 286,882.5C 295.035,866.475 302.702,849.808 309,832.5C 309.671,831.748 310.504,831.414 311.5,831.5 Z"/></g>
<g><path style="opacity:0.494" fill="#030501" d="M 457.5,799.5 C 453.011,796.5 449.511,797.5 447,802.5C 440.381,814.739 434.048,827.073 428,839.5C 421.818,848.533 416.151,857.866 411,867.5C 399.098,891.64 387.432,915.973 376,940.5C 367.095,954.635 358.429,968.968 350,983.5C 345.474,988.506 340.307,992.673 334.5,996C 331.854,996.497 329.187,996.664 326.5,996.5C 326.389,995.883 326.056,995.383 325.5,995C 328.482,994.502 331.482,994.335 334.5,994.5C 334.186,990.807 335.852,988.473 339.5,987.5C 339.911,988.262 340.077,989.262 340,990.5C 341.115,989 341.948,987.333 342.5,985.5C 343.698,985.06 344.865,984.727 346,984.5C 346.885,981.274 348.219,978.274 350,975.5C 350.333,976.5 350.667,977.5 351,978.5C 354.202,971.883 357.202,965.216 360,958.5C 360.333,959.5 360.667,960.5 361,961.5C 363.881,954.285 367.214,947.285 371,940.5C 371.333,941.167 371.667,941.833 372,942.5C 376.453,933.263 380.62,923.93 384.5,914.5C 392.286,898.258 400.119,881.924 408,865.5C 408.333,866.167 408.667,866.833 409,867.5C 412.868,859.55 416.535,851.55 420,843.5C 421.016,842.366 421.683,842.699 422,844.5C 428.67,829.164 435.836,814.164 443.5,799.5C 448.387,793.774 453.72,793.274 459.5,798C 458.584,798.278 457.918,798.778 457.5,799.5 Z"/></g>
<g><path style="opacity:1" fill="#191a1a" d="M 515.5,803.5 C 516.042,812.068 515.042,820.401 512.5,828.5C 510.951,828.264 509.451,828.264 508,828.5C 504.321,835.421 502.154,842.587 501.5,850C 499.677,856.806 497.844,863.64 496,870.5C 494.423,873.751 492.423,876.751 490,879.5C 486.491,892.187 481.324,904.187 474.5,915.5C 476.055,917.943 476.722,920.61 476.5,923.5C 462.737,954.022 448.737,984.355 434.5,1014.5C 429.754,1015.95 427.421,1019.28 427.5,1024.5C 421.873,1027.48 416.539,1030.81 411.5,1034.5C 406.703,1031.26 401.703,1028.26 396.5,1025.5C 392.562,1020.98 392.728,1016.65 397,1012.5C 397.617,1006.5 400.117,1001.66 404.5,998C 403.978,997.439 403.645,996.772 403.5,996C 406.941,987.261 409.941,978.428 412.5,969.5C 412.167,968.5 411.833,967.5 411.5,966.5C 409.527,969.246 408.027,972.246 407,975.5C 405.608,977.842 404.775,977.842 404.5,975.5C 405.387,969.842 407.054,964.509 409.5,959.5C 410.496,959.586 411.329,959.252 412,958.5C 422.534,936.551 432.867,914.551 443,892.5C 443.684,891.216 443.517,890.049 442.5,889C 445.958,880.698 449.791,872.531 454,864.5C 454.333,861.833 454.667,859.167 455,856.5C 459.539,845.469 463.706,834.303 467.5,823C 466.174,820.833 466.507,819 468.5,817.5C 468.713,820.475 469.713,823.142 471.5,825.5C 470.466,828.717 468.799,831.551 466.5,834C 468.673,835.865 469.007,838.031 467.5,840.5C 469.312,843.899 469.979,847.566 469.5,851.5C 467.441,858.828 465.274,866.162 463,873.5C 451,898.833 439,924.167 427,949.5C 426.673,953.629 425.84,957.629 424.5,961.5C 421.528,965.586 420.028,970.253 420,975.5C 415.88,984.071 412.047,992.737 408.5,1001.5C 407.442,1002.6 406.608,1003.93 406,1005.5C 405.682,1009.2 405.182,1012.86 404.5,1016.5C 406.743,1024.96 411.076,1026.46 417.5,1021C 419.697,1018.58 421.03,1015.75 421.5,1012.5C 422.567,1010.04 423.9,1007.7 425.5,1005.5C 426.496,1005.59 427.329,1005.25 428,1004.5C 430.369,999.038 433.036,993.705 436,988.5C 437.079,985.937 437.579,983.271 437.5,980.5C 440.832,968.997 446.332,958.664 454,949.5C 456.325,942.858 459.158,936.524 462.5,930.5C 465.674,923.147 469.174,915.813 473,908.5C 473.333,902.508 474.833,896.841 477.5,891.5C 481.145,886.86 483.145,881.527 483.5,875.5C 486.531,863.914 490.031,852.581 494,841.5C 495.333,834.833 496.667,828.167 498,821.5C 498.847,819.807 499.68,818.14 500.5,816.5C 501.79,807.628 501.79,798.628 500.5,789.5C 501.429,788.064 502.595,786.731 504,785.5C 504.617,786.449 504.451,787.282 503.5,788C 504.738,787.923 505.738,788.089 506.5,788.5C 504.943,791.088 503.943,793.921 503.5,797C 507.031,799.754 507.031,802.754 503.5,806C 504.448,806.483 505.448,806.649 506.5,806.5C 506.777,809.448 506.444,812.281 505.5,815C 506,815.5 506.5,816 507,816.5C 507.923,815.241 508.757,813.908 509.5,812.5C 512.951,813.96 513.617,813.627 511.5,811.5C 512.167,810.167 512.833,808.833 513.5,807.5C 511.086,805.454 511.253,803.454 514,801.5C 514.278,802.416 514.778,803.082 515.5,803.5 Z"/></g>
<g><path style="opacity:1" fill="#414141" d="M 483.5,875.5 C 483.145,881.527 481.145,886.86 477.5,891.5C 477.993,889.194 478.326,886.861 478.5,884.5C 479.901,881.367 481.567,878.367 483.5,875.5 Z"/></g>
<g><path style="opacity:1" fill="#b0afb0" d="M 247.5,778.5 C 245.442,780.927 243.609,783.593 242,786.5C 238.487,793.2 235.654,800.2 233.5,807.5C 231.983,807.511 230.816,808.177 230,809.5C 227.265,814.299 225.098,819.299 223.5,824.5C 221.394,825.566 219.894,827.233 219,829.5C 216.177,835.814 213.344,842.148 210.5,848.5C 209.279,849.028 208.113,849.695 207,850.5C 205.504,855.817 203.337,860.817 200.5,865.5C 199.11,866.899 198.11,868.566 197.5,870.5C 193.35,878.175 188.517,885.509 183,892.5C 182.079,895.336 180.912,898.002 179.5,900.5C 176.902,902.304 174.735,904.638 173,907.5C 172.997,911.882 170.831,913.549 166.5,912.5C 166.335,909.482 166.502,906.482 167,903.5C 169.572,898.033 172.905,893.033 177,888.5C 179.272,878.621 183.606,869.955 190,862.5C 191.906,855.345 195.073,848.845 199.5,843C 198.549,842.282 198.383,841.449 199,840.5C 215,815.833 231,791.167 247,766.5C 249.51,764.367 251.676,761.867 253.5,759C 253.833,758.833 254.167,758.667 254.5,758.5C 254.833,759.333 255.167,760.167 255.5,761C 253.239,767.022 250.572,772.855 247.5,778.5 Z"/></g>
<g><path style="opacity:1" fill="#545355" d="M 292.5,877.5 C 288.5,886.833 284.5,896.167 280.5,905.5C 276.743,906.767 274.576,909.434 274,913.5C 271.005,916.202 268.505,919.202 266.5,922.5C 266.5,921.833 266.5,921.167 266.5,920.5C 270.919,915.582 274.752,910.249 278,904.5C 278.413,901.768 279.08,899.101 280,896.5C 282.358,893.778 284.191,890.778 285.5,887.5C 287.392,884.724 289.059,881.724 290.5,878.5C 290.957,877.702 291.624,877.369 292.5,877.5 Z"/></g>
<g><path style="opacity:1" fill="#13190e" d="M 232.5,737.5 C 233.102,741.537 231.936,745.203 229,748.5C 228.667,747.833 228.333,747.167 228,746.5C 226.548,750.737 224.548,754.737 222,758.5C 221.667,757.833 221.333,757.167 221,756.5C 217.227,761.484 215.227,767.151 215,773.5C 214.215,775.286 213.049,776.786 211.5,778C 212.668,779.871 212.168,781.371 210,782.5C 209.633,787.375 207.133,790.708 202.5,792.5C 201.522,792.023 200.689,791.357 200,790.5C 191.842,809.995 183.509,829.329 175,848.5C 169.034,860.921 162.534,873.421 155.5,886C 156.022,886.561 156.355,887.228 156.5,888C 154.681,891.487 153.348,895.154 152.5,899C 152.565,901.526 153.232,903.859 154.5,906C 153.813,908.232 153.479,910.398 153.5,912.5C 154.928,916.378 156.428,916.378 158,912.5C 158.494,914.134 158.66,915.801 158.5,917.5C 159.552,917.351 160.552,917.517 161.5,918C 159.63,921.094 156.963,922.927 153.5,923.5C 147.905,918.948 145.572,912.948 146.5,905.5C 146.356,897.961 148.022,890.961 151.5,884.5C 152.397,885.598 153.23,885.598 154,884.5C 166.868,858.268 179.034,831.768 190.5,805C 190.43,804.235 190.097,803.735 189.5,803.5C 201.833,780.16 216.166,758.16 232.5,737.5 Z"/></g>
<g><path style="opacity:1" fill="#706d70" d="M 178.5,857.5 C 173.877,869.667 169.211,881.834 164.5,894C 162.332,899.479 162.165,904.979 164,910.5C 166.053,914.292 169.219,915.458 173.5,914C 174.548,909.071 176.548,904.571 179.5,900.5C 180.912,898.002 182.079,895.336 183,892.5C 188.517,885.509 193.35,878.175 197.5,870.5C 194.252,880.102 189.419,888.768 183,896.5C 180.638,902.574 177.972,908.574 175,914.5C 172.457,917.792 169.29,918.292 165.5,916C 162.453,911.862 160.787,907.195 160.5,902C 161.857,897.682 162.691,893.182 163,888.5C 168.078,879.231 172.411,869.564 176,859.5C 176.708,858.619 177.542,857.953 178.5,857.5 Z"/></g>
<g><path style="opacity:1" fill="#747174" d="M 263.5,889.5 C 259.91,900.677 255.243,911.343 249.5,921.5C 250.074,917.675 251.241,914.009 253,910.5C 256.424,903.352 259.924,896.352 263.5,889.5 Z"/></g>
<g><path style="opacity:1" fill="#747474" d="M 475.5,836.5 C 475.985,843.57 474.151,849.903 470,855.5C 468.487,863.096 466.153,870.429 463,877.5C 449.257,905.304 436.423,933.304 424.5,961.5C 425.84,957.629 426.673,953.629 427,949.5C 439,924.167 451,898.833 463,873.5C 465.274,866.162 467.441,858.828 469.5,851.5C 470.79,850.942 471.623,849.942 472,848.5C 472.488,844.167 473.655,840.167 475.5,836.5 Z"/></g>
<g><path style="opacity:1" fill="#959495" d="M 384.5,891.5 C 381.672,896.984 379.339,902.651 377.5,908.5C 375.961,912.211 373.461,915.211 370,917.5C 367.147,924.56 363.313,930.894 358.5,936.5C 358.628,931.571 360.794,927.905 365,925.5C 367.401,920.867 369.068,915.867 370,910.5C 370.667,909.167 371.333,909.167 372,910.5C 373,909.5 374,908.5 375,907.5C 377.454,901.567 380.621,896.234 384.5,891.5 Z"/></g>
<g><path style="opacity:1" fill="#797979" d="M 478.5,884.5 C 478.326,886.861 477.993,889.194 477.5,891.5C 474.833,896.841 473.333,902.508 473,908.5C 469.174,915.813 465.674,923.147 462.5,930.5C 466.595,916.933 470.762,903.266 475,889.5C 475.697,887.416 476.864,885.749 478.5,884.5 Z"/></g>
<g><path style="opacity:1" fill="#151c0c" d="M 212.5,874.5 C 204.431,888.521 196.264,902.521 188,916.5C 184.136,921.364 179.636,925.531 174.5,929C 172.866,929.494 171.199,929.66 169.5,929.5C 167.086,928.223 166.919,926.557 169,924.5C 175.279,919.554 180.946,913.888 186,907.5C 187.542,900.814 190.376,895.314 194.5,891C 194.167,890.667 193.833,890.333 193.5,890C 196.892,888.018 198.892,885.185 199.5,881.5C 202.894,878.578 205.394,874.911 207,870.5C 207.667,869.167 208.333,869.167 209,870.5C 209.374,869.584 209.874,868.75 210.5,868C 209.446,866.612 209.28,865.112 210,863.5C 212.473,859.205 213.973,859.538 214.5,864.5C 212.637,866.893 211.304,869.56 210.5,872.5C 210.747,873.713 211.414,874.38 212.5,874.5 Z"/></g>
<g><path style="opacity:1" fill="#13180f" d="M 249.5,892.5 C 250.043,892.56 250.376,892.893 250.5,893.5C 247.898,897.768 246.898,902.268 247.5,907C 244.992,911.863 243.492,917.029 243,922.5C 240.855,926.593 238.521,930.593 236,934.5C 234.608,936.941 234.441,939.274 235.5,941.5C 234.955,946.513 236.622,950.846 240.5,954.5C 242.156,952.978 243.323,953.311 244,955.5C 247.945,955.211 251.778,955.211 255.5,955.5C 253.663,959.75 250.329,961.917 245.5,962C 248.656,962.603 251.656,962.103 254.5,960.5C 255.417,961.127 256.417,961.461 257.5,961.5C 254.798,963.763 251.631,965.097 248,965.5C 230.469,961.754 224.302,951.42 229.5,934.5C 230.268,935.263 230.768,936.263 231,937.5C 234.227,930.045 237.727,922.712 241.5,915.5C 241.376,914.893 241.043,914.56 240.5,914.5C 242.241,912.023 243.741,909.356 245,906.5C 244.419,901.291 245.919,896.624 249.5,892.5 Z"/></g>
<g><path style="opacity:0.788" fill="#1a2710" d="M 320.5,851.5 C 319.825,855.357 318.658,859.023 317,862.5C 309.93,876.873 302.93,891.206 296,905.5C 286.076,919.617 277.076,934.284 269,949.5C 265.381,953.766 261.548,957.766 257.5,961.5C 256.417,961.461 255.417,961.127 254.5,960.5C 251.656,962.103 248.656,962.603 245.5,962C 250.329,961.917 253.663,959.75 255.5,955.5C 259.144,952.761 262.644,949.761 266,946.5C 267.122,944.593 267.955,942.593 268.5,940.5C 269.892,938.727 271.059,936.727 272,934.5C 276.427,929.989 279.594,924.655 281.5,918.5C 283.858,916.976 285.691,914.976 287,912.5C 291.147,903.536 295.314,894.536 299.5,885.5C 300.5,884.833 301.5,884.167 302.5,883.5C 308.683,870.469 314.85,857.469 321,844.5C 321.429,846.669 320.929,848.669 319.5,850.5C 319.624,851.107 319.957,851.44 320.5,851.5 Z"/></g>
<g><path style="opacity:0.627" fill="#19250d" d="M 240.5,914.5 C 241.043,914.56 241.376,914.893 241.5,915.5C 237.727,922.712 234.227,930.045 231,937.5C 230.768,936.263 230.268,935.263 229.5,934.5C 231.809,928.54 234.142,922.54 236.5,916.5C 238.38,916.771 239.713,916.104 240.5,914.5 Z"/></g>
<g><path style="opacity:1" fill="#7a7a7b" d="M 381.5,852.5 C 379.971,857.902 378.137,863.235 376,868.5C 374.5,870.833 373,873.167 371.5,875.5C 361.022,898.777 350.356,921.777 339.5,944.5C 340.219,942.236 340.552,939.903 340.5,937.5C 340.343,936.127 340.51,934.793 341,933.5C 349.361,915.449 357.694,897.449 366,879.5C 371.03,870.332 376.197,861.332 381.5,852.5 Z"/></g>
<g><path style="opacity:1" fill="#131a0f" d="M 399.5,796.5 C 396.138,803.232 393.305,810.232 391,817.5C 390,818.5 389,819.5 388,820.5C 381.872,834.585 375.372,848.419 368.5,862C 368.793,864.308 367.959,866.474 366,868.5C 365.107,867.289 364.274,867.289 363.5,868.5C 359.595,878.825 355.095,888.825 350,898.5C 348.413,897.273 347.079,897.606 346,899.5C 344.265,904.206 342.431,908.873 340.5,913.5C 339.758,914.287 338.925,914.953 338,915.5C 335.73,922.975 333.064,930.308 330,937.5C 320.447,950.266 315.78,964.6 316,980.5C 317.375,982.376 318.542,984.376 319.5,986.5C 322.637,987.691 325.803,988.691 329,989.5C 332.32,988.832 335.487,987.665 338.5,986C 343.708,980.653 347.375,974.487 349.5,967.5C 351.433,967.271 353.1,966.438 354.5,965C 353.692,964.692 353.025,964.192 352.5,963.5C 354.974,960.866 356.807,957.866 358,954.5C 361.136,952.836 362.303,950.169 361.5,946.5C 362.873,946.657 364.207,946.49 365.5,946C 369.565,940.068 372.565,933.568 374.5,926.5C 376.038,923.101 377.871,919.767 380,916.5C 381.11,914.963 382.61,914.297 384.5,914.5C 380.62,923.93 376.453,933.263 372,942.5C 371.667,941.833 371.333,941.167 371,940.5C 367.214,947.285 363.881,954.285 361,961.5C 360.667,960.5 360.333,959.5 360,958.5C 357.202,965.216 354.202,971.883 351,978.5C 350.667,977.5 350.333,976.5 350,975.5C 348.219,978.274 346.885,981.274 346,984.5C 344.865,984.727 343.698,985.06 342.5,985.5C 341.948,987.333 341.115,989 340,990.5C 340.077,989.262 339.911,988.262 339.5,987.5C 335.852,988.473 334.186,990.807 334.5,994.5C 331.482,994.335 328.482,994.502 325.5,995C 326.056,995.383 326.389,995.883 326.5,996.5C 321.372,994.842 316.539,992.509 312,989.5C 311.333,988.167 310.667,986.833 310,985.5C 309.483,978.407 310.15,971.407 312,964.5C 324.899,931.446 339.899,899.446 357,868.5C 360.596,862.299 364.429,856.299 368.5,850.5C 368.351,851.552 368.517,852.552 369,853.5C 380.842,829.983 392.008,806.15 402.5,782C 402.513,778.235 402.179,774.402 401.5,770.5C 393.464,764.369 384.297,760.702 374,759.5C 372.033,759.542 370.199,760.042 368.5,761C 363.54,766.411 359.706,772.578 357,779.5C 353.263,781.298 351.263,784.298 351,788.5C 347.625,794.085 344.125,799.585 340.5,805C 341.094,805.464 341.761,805.631 342.5,805.5C 335.125,820.913 327.792,836.246 320.5,851.5C 319.957,851.44 319.624,851.107 319.5,850.5C 320.929,848.669 321.429,846.669 321,844.5C 314.85,857.469 308.683,870.469 302.5,883.5C 301.5,884.167 300.5,884.833 299.5,885.5C 295.314,894.536 291.147,903.536 287,912.5C 285.691,914.976 283.858,916.976 281.5,918.5C 279.594,924.655 276.427,929.989 272,934.5C 271.059,936.727 269.892,938.727 268.5,940.5C 268.692,937.399 269.358,934.399 270.5,931.5C 272.734,928.061 275.234,924.728 278,921.5C 283.054,911.888 288.221,902.388 293.5,893C 292.978,892.439 292.645,891.772 292.5,891C 304.582,868.634 315.249,845.468 324.5,821.5C 325.5,821.5 326.5,821.5 327.5,821.5C 326.382,818.372 326.549,815.372 328,812.5C 329.503,812.165 330.836,812.165 332,812.5C 333.444,809.945 334.611,807.279 335.5,804.5C 337.557,802.731 339.39,800.731 341,798.5C 344.716,791.724 348.383,785.058 352,778.5C 353.976,777.457 354.476,776.123 353.5,774.5C 354.577,772.271 355.244,769.937 355.5,767.5C 357.942,767.646 358.609,766.813 357.5,765C 358.85,763.282 360.017,761.448 361,759.5C 361.333,760.167 361.667,760.833 362,761.5C 364.39,760.109 366.057,758.109 367,755.5C 367.333,755.833 367.667,756.167 368,756.5C 368.5,755.333 369.333,754.5 370.5,754C 376.151,752.546 380.484,754.212 383.5,759C 388.967,761.6 394.634,763.6 400.5,765C 403.09,767.004 405.09,769.504 406.5,772.5C 406.291,773.086 405.957,773.586 405.5,774C 407.079,776.679 407.746,779.346 407.5,782C 403.741,786.252 401.074,791.085 399.5,796.5 Z"/></g>
<g><path style="opacity:0.713" fill="#020900" d="M 368.5,850.5 C 378.048,829.069 387.881,807.736 398,786.5C 399.29,781.89 399.624,777.223 399,772.5C 391.097,765.574 381.93,762.074 371.5,762C 369.333,763.5 367.5,765.333 366,767.5C 358.731,780.583 350.898,793.25 342.5,805.5C 341.761,805.631 341.094,805.464 340.5,805C 344.125,799.585 347.625,794.085 351,788.5C 351.263,784.298 353.263,781.298 357,779.5C 359.706,772.578 363.54,766.411 368.5,761C 370.199,760.042 372.033,759.542 374,759.5C 384.297,760.702 393.464,764.369 401.5,770.5C 402.179,774.402 402.513,778.235 402.5,782C 392.008,806.15 380.842,829.983 369,853.5C 368.517,852.552 368.351,851.552 368.5,850.5 Z"/></g>
<g><path style="opacity:0.587" fill="#000400" d="M 483.5,916.5 C 467.768,950.964 451.768,985.297 435.5,1019.5C 434.761,1019.63 434.094,1019.46 433.5,1019C 434.38,1017.64 434.714,1016.14 434.5,1014.5C 448.737,984.355 462.737,954.022 476.5,923.5C 477.933,921.481 479.267,919.314 480.5,917C 481.448,916.517 482.448,916.351 483.5,916.5 Z"/></g>
<g><path style="opacity:1" fill="#1a181f" d="M 280.5,905.5 C 281.263,906.268 282.263,906.768 283.5,907C 281.623,909.251 280.123,911.751 279,914.5C 277.89,916.037 276.39,916.703 274.5,916.5C 273.513,921.125 271.013,924.791 267,927.5C 266.439,929.725 265.439,931.725 264,933.5C 264.209,936.337 264.876,939.004 266,941.5C 262.103,945.06 258.603,948.893 255.5,953C 252.696,953.971 250.696,953.138 249.5,950.5C 251.737,944.98 252.904,945.314 253,951.5C 254.855,948.424 255.688,945.091 255.5,941.5C 258.741,936.024 262.241,930.691 266,925.5C 266.483,924.552 266.649,923.552 266.5,922.5C 268.505,919.202 271.005,916.202 274,913.5C 274.576,909.434 276.743,906.767 280.5,905.5 Z"/></g>
<g><path style="opacity:1" fill="#807e7f" d="M 266.5,920.5 C 266.5,921.167 266.5,921.833 266.5,922.5C 266.649,923.552 266.483,924.552 266,925.5C 262.241,930.691 258.741,936.024 255.5,941.5C 252.703,943.795 250.036,946.295 247.5,949C 245.934,949.765 244.601,949.598 243.5,948.5C 242.508,945.221 242.341,941.888 243,938.5C 244.743,935.043 245.743,931.377 246,927.5C 246.941,925.273 248.108,923.273 249.5,921.5C 248.386,925.764 247.219,930.097 246,934.5C 245.501,938.152 245.335,941.818 245.5,945.5C 248.325,945.919 250.491,944.919 252,942.5C 255.583,935.665 259.416,928.998 263.5,922.5C 264.518,921.807 265.518,921.141 266.5,920.5 Z"/></g>
<g><path style="opacity:1" fill="#767475" d="M 358.5,938.5 C 356.217,941.404 354.717,944.738 354,948.5C 351.055,952.751 347.888,956.751 344.5,960.5C 347.99,954.189 351.49,947.856 355,941.5C 356.039,940.29 357.206,939.29 358.5,938.5 Z"/></g>
<g><path style="opacity:1" fill="#514e52" d="M 340.5,937.5 C 340.552,939.903 340.219,942.236 339.5,944.5C 337.069,946.046 335.736,948.379 335.5,951.5C 333.18,955.468 330.847,959.468 328.5,963.5C 328.343,962.127 328.51,960.793 329,959.5C 332.542,951.918 336.375,944.585 340.5,937.5 Z"/></g>
<g><path style="opacity:1" fill="#818183" d="M 335.5,951.5 C 331.675,960.167 328.675,969.167 326.5,978.5C 327.873,978.657 329.207,978.49 330.5,978C 332.154,974.353 334.821,971.853 338.5,970.5C 336.391,974.112 333.724,977.278 330.5,980C 328.866,980.494 327.199,980.66 325.5,980.5C 325.479,974.61 326.479,968.943 328.5,963.5C 330.847,959.468 333.18,955.468 335.5,951.5 Z"/></g>
<g><path style="opacity:1" fill="#6b6a6c" d="M 424.5,961.5 C 421.927,975.973 416.594,989.306 408.5,1001.5C 412.047,992.737 415.88,984.071 420,975.5C 420.028,970.253 421.528,965.586 424.5,961.5 Z"/></g>
<g><path style="opacity:1" fill="#12190c" d="M 434.5,1014.5 C 434.714,1016.14 434.38,1017.64 433.5,1019C 434.094,1019.46 434.761,1019.63 435.5,1019.5C 431.529,1029.48 424.529,1036.31 414.5,1040C 400.203,1040.04 391.536,1033.04 388.5,1019C 389.204,1015.87 389.704,1012.71 390,1009.5C 395.651,998.404 400.484,987.07 404.5,975.5C 404.775,977.842 405.608,977.842 407,975.5C 408.027,972.246 409.527,969.246 411.5,966.5C 411.833,967.5 412.167,968.5 412.5,969.5C 409.941,978.428 406.941,987.261 403.5,996C 403.645,996.772 403.978,997.439 404.5,998C 400.117,1001.66 397.617,1006.5 397,1012.5C 392.728,1016.65 392.562,1020.98 396.5,1025.5C 401.703,1028.26 406.703,1031.26 411.5,1034.5C 416.539,1030.81 421.873,1027.48 427.5,1024.5C 427.421,1019.28 429.754,1015.95 434.5,1014.5 Z"/></g>
<g><path style="opacity:1" fill="#464748" d="M 437.5,980.5 C 437.579,983.271 437.079,985.937 436,988.5C 433.036,993.705 430.369,999.038 428,1004.5C 427.329,1005.25 426.496,1005.59 425.5,1005.5C 429.285,996.934 433.285,988.601 437.5,980.5 Z"/></g>
<g><path style="opacity:1" fill="#646061" d="M 408.5,1001.5 C 407.543,1005.09 406.876,1008.76 406.5,1012.5C 406.667,1014.17 406.833,1015.83 407,1017.5C 407.58,1021.43 409.747,1022.93 413.5,1022C 415.828,1018.48 418.495,1015.32 421.5,1012.5C 421.03,1015.75 419.697,1018.58 417.5,1021C 411.076,1026.46 406.743,1024.96 404.5,1016.5C 405.182,1012.86 405.682,1009.2 406,1005.5C 406.608,1003.93 407.442,1002.6 408.5,1001.5 Z"/></g>
</svg>
