<?xml version="1.0" encoding="UTF-8"?>
<!DOCTYPE svg PUBLIC "-//W3C//DTD SVG 1.1//EN" "http://www.w3.org/Graphics/SVG/1.1/DTD/svg11.dtd">
<svg xmlns="http://www.w3.org/2000/svg" version="1.1" width="1920px" height="1080px" style="shape-rendering:geometricPrecision; text-rendering:geometricPrecision; image-rendering:optimizeQuality; fill-rule:evenodd; clip-rule:evenodd" xmlns:xlink="http://www.w3.org/1999/xlink">
<g><path style="opacity:1" fill="#5ac9d6" d="M -0.5,-0.5 C 5.16667,-0.5 10.8333,-0.5 16.5,-0.5C 8.07589,12.4511 2.40923,26.4511 -0.5,41.5C -0.5,27.5 -0.5,13.5 -0.5,-0.5 Z"/></g>
<g><path style="opacity:1" fill="#fbd344" d="M 16.5,-0.5 C 82.5,-0.5 148.5,-0.5 214.5,-0.5C 221.356,8.88047 226.356,19.2138 229.5,30.5C 234.535,43.6798 236.869,57.3465 236.5,71.5C 233.448,123.122 208.448,159.622 161.5,181C 120.889,194.017 81.8885,190.35 44.5,170C 22.6985,154.037 7.69848,133.203 -0.5,107.5C -0.5,85.5 -0.5,63.5 -0.5,41.5C 2.40923,26.4511 8.07589,12.4511 16.5,-0.5 Z"/></g>
<g><path style="opacity:1" fill="#5fc9d6" d="M 214.5,-0.5 C 230.5,-0.5 246.5,-0.5 262.5,-0.5C 256.512,3.25306 250.345,6.91973 244,10.5C 242.159,16.4938 244.326,18.8271 250.5,17.5C 249.27,19.2972 248.604,21.2972 248.5,23.5C 240.412,21.3049 234.079,23.6382 229.5,30.5C 226.356,19.2138 221.356,8.88047 214.5,-0.5 Z"/></g>
<g><path style="opacity:1" fill="#fad448" d="M 262.5,-0.5 C 269.833,-0.5 277.167,-0.5 284.5,-0.5C 273.233,5.46884 261.899,11.4688 250.5,17.5C 244.326,18.8271 242.159,16.4938 244,10.5C 250.345,6.91973 256.512,3.25306 262.5,-0.5 Z"/></g>
<g><path style="opacity:1" fill="#fefefd" d="M 284.5,-0.5 C 286.167,-0.5 287.833,-0.5 289.5,-0.5C 305.753,3.92207 315.753,14.4221 319.5,31C 326.17,32.1678 331.837,35.1678 336.5,40C 348.039,38.7488 354.705,43.7488 356.5,55C 355.212,64.8293 349.545,69.8293 339.5,70C 336.231,73.7795 332.564,76.9461 328.5,79.5C 321.298,81.2427 313.965,81.9094 306.5,81.5C 301.681,80.0068 297.681,77.3401 294.5,73.5C 305.838,73.6665 317.172,73.4999 328.5,73C 331.379,71.3342 332.212,68.8342 331,65.5C 329.933,64.8095 328.766,64.3095 327.5,64C 304.833,63.3333 282.167,63.3333 259.5,64C 257.275,66.025 256.941,68.3583 258.5,71C 261.101,71.9203 263.768,72.587 266.5,73C 275.494,73.4998 284.494,73.6664 293.5,73.5C 286.065,78.9984 277.898,79.9984 269,76.5C 261.334,81.87 253.168,82.7033 244.5,79C 241.917,76.2453 239.251,73.7453 236.5,71.5C 236.869,57.3465 234.535,43.6798 229.5,30.5C 234.079,23.6382 240.412,21.3049 248.5,23.5C 248.604,21.2972 249.27,19.2972 250.5,17.5C 261.899,11.4688 273.233,5.46884 284.5,-0.5 Z"/></g>
<g><path style="opacity:1" fill="#57c9d8" d="M 289.5,-0.5 C 694.833,-0.5 1100.17,-0.5 1505.5,-0.5C 1502.57,2.94108 1500.23,6.77441 1498.5,11C 1488.52,9.16004 1481.85,12.9934 1478.5,22.5C 1466.18,21.3253 1456.34,25.6586 1449,35.5C 1446.22,45.269 1449.05,52.9356 1457.5,58.5C 1459.27,59.8923 1461.27,61.059 1463.5,62C 1469.83,62.6667 1476.17,62.6667 1482.5,62C 1483.06,61.6174 1483.39,61.1174 1483.5,60.5C 1484.64,59.661 1485.97,58.9943 1487.5,58.5C 1492.35,68.7836 1500.35,72.7836 1511.5,70.5C 1514.27,68.3939 1517.27,66.7272 1520.5,65.5C 1529.35,68.6653 1537.68,67.6653 1545.5,62.5C 1559.05,73.8963 1573.05,74.3963 1587.5,64C 1589.21,62.6218 1590.55,60.9552 1591.5,59C 1607,57.1965 1612.16,49.0299 1607,34.5C 1602.18,29.6784 1596.35,27.5118 1589.5,28C 1584.34,23.4185 1578.34,20.4185 1571.5,19C 1570.34,11.8475 1567.67,5.34752 1563.5,-0.5C 1671.5,-0.5 1779.5,-0.5 1887.5,-0.5C 1885.34,1.22001 1882.68,2.05334 1879.5,2C 1876.52,3.61157 1875.19,6.11157 1875.5,9.5C 1866.98,8.15352 1860.15,10.8202 1855,17.5C 1853.43,24.1925 1855.59,29.3592 1861.5,33C 1867.13,34.6816 1872.8,34.8483 1878.5,33.5C 1881.25,34.4124 1883.25,36.2458 1884.5,39C 1890.22,41.2168 1895.72,40.7168 1901,37.5C 1906.72,38.8496 1912.22,38.183 1917.5,35.5C 1918.18,35.8627 1918.85,36.1961 1919.5,36.5C 1919.5,90.5 1919.5,144.5 1919.5,198.5C 1904.39,193.395 1893.72,198.061 1887.5,212.5C 1880.64,210.678 1876.31,213.012 1874.5,219.5C 1866.35,218.161 1859.85,220.827 1855,227.5C 1853.9,239.07 1859.23,245.07 1871,245.5C 1874.04,245.635 1876.88,244.969 1879.5,243.5C 1885.38,252.453 1892.71,253.786 1901.5,247.5C 1907.17,249.201 1912.5,248.534 1917.5,245.5C 1918.18,245.863 1918.85,246.196 1919.5,246.5C 1919.5,276.833 1919.5,307.167 1919.5,337.5C 1279.5,337.5 639.5,337.5 -0.5,337.5C -0.5,289.833 -0.5,242.167 -0.5,194.5C 4.45987,190.712 9.2932,186.712 14,182.5C 16.1545,180.352 17.6545,177.852 18.5,175C 17.8413,170.918 15.508,169.584 11.5,171C 7.33222,174.336 3.33222,177.836 -0.5,181.5C -0.5,156.833 -0.5,132.167 -0.5,107.5C 7.69848,133.203 22.6985,154.037 44.5,170C 81.8885,190.35 120.889,194.017 161.5,181C 208.448,159.622 233.448,123.122 236.5,71.5C 239.251,73.7453 241.917,76.2453 244.5,79C 253.168,82.7033 261.334,81.87 269,76.5C 277.898,79.9984 286.065,78.9984 293.5,73.5C 293.833,73.5 294.167,73.5 294.5,73.5C 297.681,77.3401 301.681,80.0068 306.5,81.5C 308.462,83.0173 310.795,83.6839 313.5,83.5C 318.958,83.4161 323.958,82.0827 328.5,79.5C 332.564,76.9461 336.231,73.7795 339.5,70C 349.545,69.8293 355.212,64.8293 356.5,55C 354.705,43.7488 348.039,38.7488 336.5,40C 331.837,35.1678 326.17,32.1678 319.5,31C 315.753,14.4221 305.753,3.92207 289.5,-0.5 Z"/></g>
<g><path style="opacity:1" fill="#fefefe" d="M 1505.5,-0.5 C 1524.83,-0.5 1544.17,-0.5 1563.5,-0.5C 1567.67,5.34752 1570.34,11.8475 1571.5,19C 1578.34,20.4185 1584.34,23.4185 1589.5,28C 1596.35,27.5118 1602.18,29.6784 1607,34.5C 1612.16,49.0299 1607,57.1965 1591.5,59C 1590.55,60.9552 1589.21,62.6218 1587.5,64C 1573.05,74.3963 1559.05,73.8963 1545.5,62.5C 1537.68,67.6653 1529.35,68.6653 1520.5,65.5C 1517.27,66.7272 1514.27,68.3939 1511.5,70.5C 1500.35,72.7836 1492.35,68.7836 1487.5,58.5C 1485.97,58.9943 1484.64,59.661 1483.5,60.5C 1474.61,62.2633 1465.94,61.5966 1457.5,58.5C 1449.05,52.9356 1446.22,45.269 1449,35.5C 1456.34,25.6586 1466.18,21.3253 1478.5,22.5C 1481.85,12.9934 1488.52,9.16004 1498.5,11C 1500.23,6.77441 1502.57,2.94108 1505.5,-0.5 Z"/></g>
<g><path style="opacity:1" fill="#fdfefe" d="M 1887.5,-0.5 C 1898.17,-0.5 1908.83,-0.5 1919.5,-0.5C 1919.5,11.8333 1919.5,24.1667 1919.5,36.5C 1918.85,36.1961 1918.18,35.8627 1917.5,35.5C 1912.22,38.183 1906.72,38.8496 1901,37.5C 1895.72,40.7168 1890.22,41.2168 1884.5,39C 1883.25,36.2458 1881.25,34.4124 1878.5,33.5C 1872.8,34.8483 1867.13,34.6816 1861.5,33C 1855.59,29.3592 1853.43,24.1925 1855,17.5C 1860.15,10.8202 1866.98,8.15352 1875.5,9.5C 1875.19,6.11157 1876.52,3.61157 1879.5,2C 1882.68,2.05334 1885.34,1.22001 1887.5,-0.5 Z"/></g>
<g><path style="opacity:1" fill="#a0cfd6" d="M 1457.5,58.5 C 1465.94,61.5966 1474.61,62.2633 1483.5,60.5C 1483.39,61.1174 1483.06,61.6174 1482.5,62C 1476.17,62.6667 1469.83,62.6667 1463.5,62C 1461.27,61.059 1459.27,59.8923 1457.5,58.5 Z"/></g>
<g><path style="opacity:1" fill="#fcd448" d="M 294.5,73.5 C 294.167,73.5 293.833,73.5 293.5,73.5C 284.494,73.6664 275.494,73.4998 266.5,73C 263.768,72.587 261.101,71.9203 258.5,71C 256.941,68.3583 257.275,66.025 259.5,64C 282.167,63.3333 304.833,63.3333 327.5,64C 328.766,64.3095 329.933,64.8095 331,65.5C 332.212,68.8342 331.379,71.3342 328.5,73C 317.172,73.4999 305.838,73.6665 294.5,73.5 Z"/></g>
<g><path style="opacity:1" fill="#fdfefe" d="M 653.5,71.5 C 668.076,69.6286 679.909,74.2953 689,85.5C 690.995,89.3173 692.495,93.3173 693.5,97.5C 698.894,98.6961 703.56,101.196 707.5,105C 716.843,104.034 722.51,108.034 724.5,117C 723.68,125.985 718.68,130.818 709.5,131.5C 701.814,139.449 692.481,142.282 681.5,140C 678.611,137.388 675.278,135.555 671.5,134.5C 664.72,137.45 657.72,138.116 650.5,136.5C 646.577,138.542 642.41,139.876 638,140.5C 634.77,140.263 631.937,139.097 629.5,137C 627.598,134.655 625.598,132.489 623.5,130.5C 615.435,133.217 607.435,133.05 599.5,130C 588.859,120.738 589.192,111.738 600.5,103C 606.156,102.112 611.823,101.279 617.5,100.5C 619.491,91.7747 624.657,89.1081 633,92.5C 633.869,89.6697 635.036,87.003 636.5,84.5C 641.716,79.2472 647.382,74.9138 653.5,71.5 Z"/></g>
<g><path style="opacity:1" fill="#aed7dd" d="M 328.5,79.5 C 323.958,82.0827 318.958,83.4161 313.5,83.5C 310.795,83.6839 308.462,83.0173 306.5,81.5C 313.965,81.9094 321.298,81.2427 328.5,79.5 Z"/></g>
<g><path style="opacity:1" fill="#f9fbfc" d="M 1006.5,107.5 C 1010.22,107.002 1013.55,107.836 1016.5,110C 1018.45,111.734 1019.45,113.901 1019.5,116.5C 1031.87,119.104 1032.53,123.271 1021.5,129C 1018.21,129.936 1015.21,129.436 1012.5,127.5C 1009.2,128.258 1005.86,128.925 1002.5,129.5C 1000.6,128.935 998.929,127.935 997.5,126.5C 993.987,128.131 990.987,127.464 988.5,124.5C 987.572,123.232 987.405,121.899 988,120.5C 992.347,117.553 996.847,114.887 1001.5,112.5C 1002.88,110.451 1004.55,108.785 1006.5,107.5 Z"/></g>
<g><path style="opacity:1" fill="#f7d349" d="M 246.5,122.5 C 250.319,122.605 253.986,123.438 257.5,125C 265.469,128.984 273.469,132.984 281.5,137C 287.749,144.107 286.083,147.107 276.5,146C 265.53,141.035 255.03,135.201 245,128.5C 244.252,126.16 244.752,124.16 246.5,122.5 Z"/></g>
<g><path style="opacity:1" fill="#fbfcfd" d="M 318.5,130.5 C 328.516,129.541 334.516,133.875 336.5,143.5C 340.812,144.986 345.145,146.486 349.5,148C 352.343,151.619 352.01,154.952 348.5,158C 344.725,159.387 341.058,161.054 337.5,163C 335.5,163.667 333.5,163.667 331.5,163C 329.933,161.924 328.266,161.091 326.5,160.5C 320.209,161.774 313.876,162.274 307.5,162C 305.408,158.269 302.408,157.435 298.5,159.5C 291.358,159.19 288.525,155.523 290,148.5C 293.135,145.349 296.968,143.683 301.5,143.5C 303.241,140.409 305.907,138.742 309.5,138.5C 311.923,135.07 314.923,132.404 318.5,130.5 Z"/></g>
<g><path style="opacity:1" fill="#c0dee3" d="M 1378.5,152.5 C 1370.8,152.354 1363.14,152.687 1355.5,153.5C 1363.02,149.901 1370.69,149.568 1378.5,152.5 Z"/></g>
<g><path style="opacity:1" fill="#fcfdfd" d="M 1664.5,150.5 C 1675.47,149.639 1682.47,154.472 1685.5,165C 1689.32,166.909 1693.32,168.242 1697.5,169C 1700.35,171.559 1701.18,174.726 1700,178.5C 1695.63,180.628 1691.46,183.128 1687.5,186C 1682.51,187.226 1678.01,186.393 1674,183.5C 1670.71,185.659 1667.21,185.993 1663.5,184.5C 1659.3,187.128 1655.13,187.128 1651,184.5C 1650.52,183.552 1650.35,182.552 1650.5,181.5C 1646.54,182.44 1642.54,182.607 1638.5,182C 1631.05,177.43 1630.72,172.43 1637.5,167C 1640.48,166.502 1643.48,166.335 1646.5,166.5C 1647.16,162.006 1649.83,160.339 1654.5,161.5C 1656.41,156.586 1659.75,152.919 1664.5,150.5 Z"/></g>
<g><path style="opacity:1" fill="#fdfefe" d="M 1378.5,152.5 C 1393.74,157.403 1402.41,167.737 1404.5,183.5C 1411.39,184.445 1417.39,187.278 1422.5,192C 1439,192.209 1444.83,200.043 1440,215.5C 1436.34,220.168 1431.51,222.334 1425.5,222C 1422.96,224.37 1420.63,226.87 1418.5,229.5C 1408.9,234.604 1398.9,235.604 1388.5,232.5C 1385.8,230.393 1382.97,228.393 1380,226.5C 1371.97,230.919 1363.64,231.586 1355,228.5C 1352.26,229.789 1349.76,231.455 1347.5,233.5C 1336.28,237.208 1328.28,233.874 1323.5,223.5C 1323.63,222.761 1323.46,222.094 1323,221.5C 1314.75,224.673 1306.25,225.34 1297.5,223.5C 1285.19,217.633 1281.69,208.299 1287,195.5C 1288.5,194 1290,192.5 1291.5,191C 1295.02,190.327 1298.35,189.16 1301.5,187.5C 1305.78,186.508 1310.12,186.174 1314.5,186.5C 1315.89,183.386 1317.56,180.386 1319.5,177.5C 1324.03,175.404 1328.7,175.071 1333.5,176.5C 1335.12,173.605 1336.45,170.605 1337.5,167.5C 1339.56,163.933 1342.22,160.766 1345.5,158C 1349.19,157.092 1352.53,155.592 1355.5,153.5C 1363.14,152.687 1370.8,152.354 1378.5,152.5 Z"/></g>
<g><path style="opacity:1" fill="#f8d347" d="M 213.5,165.5 C 215.199,165.34 216.866,165.506 218.5,166C 235.306,183.473 252.139,200.973 269,218.5C 271.964,221.605 272.13,224.772 269.5,228C 267.833,228.667 266.167,228.667 264.5,228C 246.598,210.102 229.432,191.602 213,172.5C 212.444,170.115 212.61,167.782 213.5,165.5 Z"/></g>
<g><path style="opacity:1" fill="#f7d349" d="M -0.5,194.5 C -0.5,190.167 -0.5,185.833 -0.5,181.5C 3.33222,177.836 7.33222,174.336 11.5,171C 15.508,169.584 17.8413,170.918 18.5,175C 17.6545,177.852 16.1545,180.352 14,182.5C 9.2932,186.712 4.45987,190.712 -0.5,194.5 Z"/></g>
<g><path style="opacity:1" fill="#a3d1d8" d="M 1337.5,167.5 C 1336.45,170.605 1335.12,173.605 1333.5,176.5C 1328.7,175.071 1324.03,175.404 1319.5,177.5C 1323.09,173.648 1327.42,172.648 1332.5,174.5C 1333.94,171.923 1335.61,169.59 1337.5,167.5 Z"/></g>
<g><path style="opacity:1" fill="#fcfdfd" d="M 1919.5,198.5 C 1919.5,214.5 1919.5,230.5 1919.5,246.5C 1918.85,246.196 1918.18,245.863 1917.5,245.5C 1912.5,248.534 1907.17,249.201 1901.5,247.5C 1892.71,253.786 1885.38,252.453 1879.5,243.5C 1876.88,244.969 1874.04,245.635 1871,245.5C 1859.23,245.07 1853.9,239.07 1855,227.5C 1859.85,220.827 1866.35,218.161 1874.5,219.5C 1876.31,213.012 1880.64,210.678 1887.5,212.5C 1893.72,198.061 1904.39,193.395 1919.5,198.5 Z"/></g>
<g><path style="opacity:1" fill="#f8d348" d="M 52.5,202.5 C 57.176,202.013 59.3427,204.013 59,208.5C 53.7427,219.35 48.7427,230.35 44,241.5C 41.633,244.932 38.9663,245.265 36,242.5C 35.3333,240.167 35.3333,237.833 36,235.5C 40.2781,223.795 45.7781,212.795 52.5,202.5 Z"/></g>
<g><path style="opacity:1" fill="#f8d348" d="M 166.5,203.5 C 169.652,202.959 172.152,203.959 174,206.5C 179.376,215.954 184.376,225.62 189,235.5C 190.668,241.493 188.502,243.993 182.5,243C 176.284,232.07 170.451,220.903 165,209.5C 164.591,207.305 165.091,205.305 166.5,203.5 Z"/></g>
<g><path style="opacity:1" fill="#fbd448" d="M 121.5,235.5 C 121.667,250.504 121.5,265.504 121,280.5C 119.727,284.102 117.227,285.268 113.5,284C 112.874,283.25 112.374,282.416 112,281.5C 111.5,268.504 111.333,255.504 111.5,242.5C 111.334,232.494 111.5,222.494 112,212.5C 115.156,209.601 117.822,209.935 120,213.5C 121.116,220.792 121.616,228.126 121.5,235.5 Z"/></g>
<g><path style="opacity:1" fill="#b0d7dd" d="M 1323.5,223.5 C 1319.07,224.732 1314.57,225.732 1310,226.5C 1305.5,226.275 1301.33,225.275 1297.5,223.5C 1306.25,225.34 1314.75,224.673 1323,221.5C 1323.46,222.094 1323.63,222.761 1323.5,223.5 Z"/></g>
<g><path style="opacity:1" fill="#fdfdfd" d="M 111.5,242.5 C 111.333,255.504 111.5,268.504 112,281.5C 112.374,282.416 112.874,283.25 113.5,284C 117.227,285.268 119.727,284.102 121,280.5C 121.5,265.504 121.667,250.504 121.5,235.5C 138.761,231.786 149.761,238.286 154.5,255C 158.904,255.701 162.571,257.701 165.5,261C 175.341,260.501 179.508,265.001 178,274.5C 175.827,278.683 172.327,280.849 167.5,281C 158.173,291.301 148.173,292.134 137.5,283.5C 132.379,286.65 126.879,287.316 121,285.5C 115.711,288.638 110.211,289.138 104.5,287C 102.787,285.622 101.453,283.955 100.5,282C 93.8097,282.926 87.143,282.592 80.5,281C 70.4587,271.953 71.4587,264.286 83.5,258C 87.1516,257.501 90.8183,257.335 94.5,257.5C 95.4813,250.712 99.4813,247.879 106.5,249C 108.03,246.648 109.697,244.481 111.5,242.5 Z"/></g>
<g><path style="opacity:1" fill="#fcfdfd" d="M 922.5,233.5 C 933.338,232.91 940.338,237.743 943.5,248C 947.527,250.409 951.86,252.075 956.5,253C 959.343,256.619 959.01,259.952 955.5,263C 951.6,264.565 947.934,266.565 944.5,269C 939.582,270.124 935.082,269.291 931,266.5C 924.114,267.504 917.281,268.337 910.5,269C 908.978,267.478 907.478,265.978 906,264.5C 902.545,265.55 899.045,265.717 895.5,265C 888.833,260 888.833,255 895.5,250C 898.146,249.503 900.813,249.336 903.5,249.5C 903.297,247.61 903.963,246.11 905.5,245C 907.81,244.503 910.143,244.337 912.5,244.5C 913.758,238.91 917.092,235.243 922.5,233.5 Z"/></g>
<g><path style="opacity:1" fill="#abd4da" d="M 1418.5,229.5 C 1414.89,232.768 1410.56,234.601 1405.5,235C 1401.83,235.667 1398.17,235.667 1394.5,235C 1392.15,234.76 1390.15,233.927 1388.5,232.5C 1398.9,235.604 1408.9,234.604 1418.5,229.5 Z"/></g>
<g><path style="opacity:1" fill="#fafcfc" d="M 495.5,262.5 C 502.56,261.731 507.56,264.565 510.5,271C 512.76,272.689 515.26,273.856 518,274.5C 518.667,276.167 518.667,277.833 518,279.5C 515.715,280.819 513.548,282.319 511.5,284C 508.208,284.936 505.208,284.436 502.5,282.5C 499.041,283.304 495.541,283.971 492,284.5C 490.029,284.532 488.529,283.698 487.5,282C 484.833,281.667 482.167,281.333 479.5,281C 477.604,279.192 477.104,277.025 478,274.5C 482.283,272.278 486.449,269.945 490.5,267.5C 491.882,265.451 493.548,263.785 495.5,262.5 Z"/></g>
<g><path style="opacity:1" fill="#7ed857" d="M -0.5,337.5 C 639.5,337.5 1279.5,337.5 1919.5,337.5C 1919.5,584.833 1919.5,832.167 1919.5,1079.5C 1279.5,1079.5 639.5,1079.5 -0.5,1079.5C -0.5,1056.83 -0.5,1034.17 -0.5,1011.5C 536.834,1011.83 1074.17,1011.5 1611.5,1010.5C 1654.84,1006.58 1692,989.575 1723,959.5C 1756.51,921.945 1762.85,880.279 1742,834.5C 1724.19,804.699 1699.02,783.532 1666.5,771C 1645.01,762.378 1622.68,757.711 1599.5,757C 1161.17,756.667 722.833,756.333 284.5,756C 265.916,753.961 250.749,745.795 239,731.5C 230.022,716.904 230.356,702.57 240,688.5C 252.18,674.21 267.68,666.377 286.5,665C 708.002,664.177 1129.5,664.344 1551,665.5C 1593.6,665.898 1632.1,653.732 1666.5,629C 1696.05,606.065 1712.05,575.898 1714.5,538.5C 1713.01,504.361 1699.35,476.195 1673.5,454C 1638.32,425.659 1597.99,411.492 1552.5,411.5C 1104.17,412.49 655.836,412.823 207.5,412.5C 207.5,439.167 207.5,465.833 207.5,492.5C 652.502,492.081 1097.5,492.581 1542.5,494C 1564.86,496.719 1580.7,508.219 1590,528.5C 1593.38,549.241 1585.88,564.741 1567.5,575C 1559.45,578.795 1551.12,581.795 1542.5,584C 1131.5,584.667 720.5,584.667 309.5,584C 263.357,577.539 220.024,585.539 179.5,608C 148.455,626.374 127.955,652.874 118,687.5C 111.04,733.619 125.873,771.119 162.5,800C 202.598,829.446 247.598,841.946 297.5,837.5C 678.236,837.167 1058.9,837.501 1439.5,838.5C 1486.17,838.333 1532.83,838.5 1579.5,839C 1601.78,840.639 1618.28,851.139 1629,870.5C 1633.56,883.912 1631.56,896.245 1623,907.5C 1612.15,919.512 1598.65,926.679 1582.5,929C 1054.87,927.616 527.201,927.116 -0.5,927.5C -0.5,730.833 -0.5,534.167 -0.5,337.5 Z"/></g>
<g><path style="opacity:1" fill="#eddb8e" d="M -0.5,1011.5 C -0.5,983.5 -0.5,955.5 -0.5,927.5C 527.201,927.116 1054.87,927.616 1582.5,929C 1598.65,926.679 1612.15,919.512 1623,907.5C 1631.56,896.245 1633.56,883.912 1629,870.5C 1618.28,851.139 1601.78,840.639 1579.5,839C 1532.83,838.5 1486.17,838.333 1439.5,838.5C 1249.5,837.167 1059.17,836.5 868.5,836.5C 678,836.5 487.666,836.833 297.5,837.5C 247.598,841.946 202.598,829.446 162.5,800C 125.873,771.119 111.04,733.619 118,687.5C 127.955,652.874 148.455,626.374 179.5,608C 220.024,585.539 263.357,577.539 309.5,584C 720.5,584.667 1131.5,584.667 1542.5,584C 1551.12,581.795 1559.45,578.795 1567.5,575C 1585.88,564.741 1593.38,549.241 1590,528.5C 1580.7,508.219 1564.86,496.719 1542.5,494C 1097.5,492.581 652.502,492.081 207.5,492.5C 207.5,465.833 207.5,439.167 207.5,412.5C 655.836,412.823 1104.17,412.49 1552.5,411.5C 1597.99,411.492 1638.32,425.659 1673.5,454C 1699.35,476.195 1713.01,504.361 1714.5,538.5C 1712.05,575.898 1696.05,606.065 1666.5,629C 1632.1,653.732 1593.6,665.898 1551,665.5C 1129.5,664.344 708.002,664.177 286.5,665C 267.68,666.377 252.18,674.21 240,688.5C 230.356,702.57 230.022,716.904 239,731.5C 250.749,745.795 265.916,753.961 284.5,756C 722.833,756.333 1161.17,756.667 1599.5,757C 1622.68,757.711 1645.01,762.378 1666.5,771C 1699.02,783.532 1724.19,804.699 1742,834.5C 1762.85,880.279 1756.51,921.945 1723,959.5C 1692,989.575 1654.84,1006.58 1611.5,1010.5C 1074.17,1011.5 536.834,1011.83 -0.5,1011.5 Z"/></g>
<g><path style="opacity:1" fill="#85d95b" d="M 297.5,837.5 C 487.666,836.833 678,836.5 868.5,836.5C 1059.17,836.5 1249.5,837.167 1439.5,838.5C 1058.9,837.501 678.236,837.167 297.5,837.5 Z"/></g>
</svg>
