<?xml version="1.0" encoding="UTF-8"?>
<!DOCTYPE svg PUBLIC "-//W3C//DTD SVG 1.1//EN" "http://www.w3.org/Graphics/SVG/1.1/DTD/svg11.dtd">
<svg xmlns="http://www.w3.org/2000/svg" version="1.1" width="900px" height="660px" style="shape-rendering:geometricPrecision; text-rendering:geometricPrecision; image-rendering:optimizeQuality; fill-rule:evenodd; clip-rule:evenodd" xmlns:xlink="http://www.w3.org/1999/xlink">
<g><path style="opacity:0.911" fill="#050606" d="M 452.5,80.5 C 468.995,79.3384 485.662,79.1717 502.5,80C 505.191,80.1558 507.524,80.9891 509.5,82.5C 490.517,83.5878 471.517,83.7545 452.5,83C 451.833,82.6667 451.167,82.3333 450.5,82C 465.167,81.6667 479.833,81.3333 494.5,81C 480.504,80.5001 466.504,80.3334 452.5,80.5 Z"/></g>
<g><path style="opacity:1" fill="#242928" d="M 452.5,80.5 C 466.504,80.3334 480.504,80.5001 494.5,81C 479.833,81.3333 465.167,81.6667 450.5,82C 451.167,82.3333 451.833,82.6667 452.5,83C 471.517,83.7545 490.517,83.5878 509.5,82.5C 508.909,83.1515 508.243,83.8182 507.5,84.5C 487.175,85.3331 466.842,85.8331 446.5,86C 441.886,89.0714 436.886,90.0714 431.5,89C 429.269,89.622 427.435,90.7887 426,92.5C 425.768,91.2625 425.268,90.2625 424.5,89.5C 432.796,83.7576 442.129,80.7576 452.5,80.5 Z"/></g>
<g><path style="opacity:0.192" fill="#42494a" d="M 584.5,82.5 C 596.422,83.282 608.089,85.4487 619.5,89C 623.204,90.3812 626.537,92.2145 629.5,94.5C 626.856,94.1601 624.523,94.8267 622.5,96.5C 621.571,95.3112 621.238,93.9778 621.5,92.5C 614.559,90.5145 607.559,88.6812 600.5,87C 600.833,86.6667 601.167,86.3333 601.5,86C 595.5,85.6667 589.5,85.3333 583.5,85C 584.252,84.3292 584.586,83.4959 584.5,82.5 Z"/></g>
<g><path style="opacity:0.596" fill="#424545" d="M 404.5,94.5 C 398.435,93.3213 392.435,91.8213 386.5,90C 377.833,89.3333 369.167,89.3333 360.5,90C 356.276,91.3728 352.109,92.8728 348,94.5C 346.97,94.1639 346.47,93.4972 346.5,92.5C 348.568,91.6252 350.568,90.4585 352.5,89C 366.83,85.7033 381.163,85.7033 395.5,89C 398.752,90.5661 401.752,92.3994 404.5,94.5 Z"/></g>
<g><path style="opacity:0.182" fill="#30393a" d="M 631.5,95.5 C 635.363,96.6936 638.363,99.027 640.5,102.5C 639.778,102.918 639.278,103.584 639,104.5C 636.175,100.334 632.341,97.5006 627.5,96C 628.793,95.51 630.127,95.3433 631.5,95.5 Z"/></g>
<g><path style="opacity:0.527" fill="#323737" d="M 734.5,141.5 C 733.778,141.918 733.278,142.584 733,143.5C 730.913,139.655 728.579,135.988 726,132.5C 725.667,132.833 725.333,133.167 725,133.5C 724.517,132.552 724.351,131.552 724.5,130.5C 720.419,129.123 716.085,126.79 711.5,123.5C 707.086,122.257 702.753,120.757 698.5,119C 694.115,119.087 689.781,118.92 685.5,118.5C 687.5,117.667 689.5,116.833 691.5,116C 685.642,116.005 679.808,116.505 674,117.5C 669.786,117.627 665.786,116.96 662,115.5C 657.319,117.807 652.486,118.474 647.5,117.5C 649.631,116.831 651.631,116.165 653.5,115.5C 678,109.977 701,113.811 722.5,127C 727.49,131.144 731.49,135.977 734.5,141.5 Z"/></g>
<g><path style="opacity:1" fill="#2d3130" d="M 320.5,107.5 C 322.292,108.309 324.292,108.809 326.5,109C 319.073,110.253 311.74,111.92 304.5,114C 307.876,114.307 309.21,116.14 308.5,119.5C 304.459,119.325 300.459,119.158 296.5,119C 291.318,122.424 285.985,125.591 280.5,128.5C 279.893,128.376 279.56,128.043 279.5,127.5C 279.937,125.926 280.937,124.759 282.5,124C 294.444,116.852 307.11,111.352 320.5,107.5 Z"/></g>
<g><path style="opacity:0.546" fill="#333737" d="M 743.5,161.5 C 753.839,161.334 764.172,161.5 774.5,162C 786.69,164.544 796.523,170.711 804,180.5C 806.06,186.322 806.893,192.322 806.5,198.5C 805.504,198.414 804.671,198.748 804,199.5C 804.073,192.383 803.573,188.05 802.5,186.5C 801.5,186.5 800.5,186.5 799.5,186.5C 799.148,183.486 797.815,180.986 795.5,179C 795.735,178.127 796.069,177.293 796.5,176.5C 788.197,169.338 778.53,165.171 767.5,164C 759.482,163.301 751.482,163.468 743.5,164.5C 742.167,164.167 740.833,163.833 739.5,163.5C 740.949,162.828 742.282,162.161 743.5,161.5 Z"/></g>
<g><path style="opacity:0.89" fill="#323737" d="M 243.5,217.5 C 245.199,217.34 246.866,217.506 248.5,218C 246.423,218.192 244.423,218.692 242.5,219.5C 241.147,220.524 240.48,221.857 240.5,223.5C 239.022,223.238 237.689,223.571 236.5,224.5C 229.833,229.833 223.833,235.833 218.5,242.5C 217.702,242.043 217.369,241.376 217.5,240.5C 218.412,238.405 219.579,236.405 221,234.5C 224.981,231.687 228.481,228.353 231.5,224.5C 235.016,221.314 239.016,218.98 243.5,217.5 Z"/></g>
<g><path style="opacity:1" fill="#444f50" d="M 203.5,290.5 C 203.782,291.778 204.449,292.778 205.5,293.5C 199.741,293.214 194.075,293.548 188.5,294.5C 188.33,293.178 188.663,292.011 189.5,291C 194.155,290.501 198.821,290.334 203.5,290.5 Z"/></g>
<g><path style="opacity:0.906" fill="#090707" d="M 205.5,293.5 C 206.043,293.56 206.376,293.893 206.5,294.5C 201.544,295.494 196.544,295.827 191.5,295.5C 191.665,299.182 191.499,302.848 191,306.5C 190.623,305.058 189.79,304.058 188.5,303.5C 188.5,300.5 188.5,297.5 188.5,294.5C 194.075,293.548 199.741,293.214 205.5,293.5 Z"/></g>
<g><path style="opacity:1" fill="#1d1d1d" d="M 509.5,82.5 C 511.781,82.0773 513.448,82.744 514.5,84.5C 512.023,84.0508 510.023,84.7175 508.5,86.5C 510.398,87.7345 512.065,87.4011 513.5,85.5C 514.386,86.325 514.719,87.325 514.5,88.5C 521.174,91.933 528.007,95.2664 535,98.5C 537.105,98.2114 538.938,97.3781 540.5,96C 539.584,95.7216 538.918,95.2216 538.5,94.5C 539.899,93.1103 541.566,92.1103 543.5,91.5C 543.423,92.7498 542.756,93.5831 541.5,94C 544.428,94.0912 546.261,92.5912 547,89.5C 547.893,90.0814 548.893,90.4148 550,90.5C 552.261,89.1477 554.761,88.481 557.5,88.5C 562.15,89.3989 566.817,89.5656 571.5,89C 569.22,88.7674 567.22,87.934 565.5,86.5C 569.107,85.5108 572.774,85.1774 576.5,85.5C 576.5,84.5 576.5,83.5 576.5,82.5C 579.167,82.5 581.833,82.5 584.5,82.5C 584.586,83.4959 584.252,84.3292 583.5,85C 589.5,85.3333 595.5,85.6667 601.5,86C 601.167,86.3333 600.833,86.6667 600.5,87C 607.559,88.6812 614.559,90.5145 621.5,92.5C 621.238,93.9778 621.571,95.3112 622.5,96.5C 624.523,94.8267 626.856,94.1601 629.5,94.5C 630.492,94.3284 631.158,94.6618 631.5,95.5C 630.127,95.3433 628.793,95.51 627.5,96C 632.341,97.5006 636.175,100.334 639,104.5C 639.278,103.584 639.778,102.918 640.5,102.5C 644.214,105.74 647.048,109.74 649,114.5C 650.356,115.38 651.856,115.714 653.5,115.5C 651.631,116.165 649.631,116.831 647.5,117.5C 652.486,118.474 657.319,117.807 662,115.5C 665.786,116.96 669.786,117.627 674,117.5C 679.808,116.505 685.642,116.005 691.5,116C 689.5,116.833 687.5,117.667 685.5,118.5C 689.781,118.92 694.115,119.087 698.5,119C 702.753,120.757 707.086,122.257 711.5,123.5C 716.085,126.79 720.419,129.123 724.5,130.5C 724.351,131.552 724.517,132.552 725,133.5C 725.333,133.167 725.667,132.833 726,132.5C 728.579,135.988 730.913,139.655 733,143.5C 733.278,142.584 733.778,141.918 734.5,141.5C 735.804,142.987 736.97,144.654 738,146.5C 739.156,151.46 739.989,156.46 740.5,161.5C 741.5,161.5 742.5,161.5 743.5,161.5C 742.282,162.161 740.949,162.828 739.5,163.5C 740.833,163.833 742.167,164.167 743.5,164.5C 751.482,163.468 759.482,163.301 767.5,164C 778.53,165.171 788.197,169.338 796.5,176.5C 796.069,177.293 795.735,178.127 795.5,179C 797.815,180.986 799.148,183.486 799.5,186.5C 800.5,186.5 801.5,186.5 802.5,186.5C 803.573,188.05 804.073,192.383 804,199.5C 804.671,198.748 805.504,198.414 806.5,198.5C 805.63,203.828 803.63,208.661 800.5,213C 819.05,226.319 824.55,243.819 817,265.5C 813.887,268.625 810.72,271.625 807.5,274.5C 820.194,286.48 824.527,301.147 820.5,318.5C 819.698,319.952 819.198,321.618 819,323.5C 818.667,312.833 818.333,302.167 818,291.5C 817.667,292.167 817.333,292.833 817,293.5C 816.18,304.41 816.347,315.243 817.5,326C 814.901,327.762 813.234,330.095 812.5,333C 812.667,334.167 812.833,335.333 813,336.5C 813.308,335.692 813.808,335.025 814.5,334.5C 815.498,342.472 815.831,350.472 815.5,358.5C 814.1,364.226 811.1,368.893 806.5,372.5C 806.217,371.711 805.717,371.044 805,370.5C 803.333,372.167 801.667,373.833 800,375.5C 798.506,374.253 797.006,374.253 795.5,375.5C 796.999,376.904 796.666,377.57 794.5,377.5C 793.446,377.32 792.446,376.987 791.5,376.5C 789.857,380.324 787.19,381.324 783.5,379.5C 780.209,381.721 776.543,382.887 772.5,383C 771.44,385.737 770.606,388.57 770,391.5C 767.37,391.859 765.203,392.859 763.5,394.5C 758.984,395.173 755.317,397.34 752.5,401C 748.029,403.418 743.362,404.918 738.5,405.5C 727.159,404.388 715.825,404.388 704.5,405.5C 702.04,405.363 700.04,404.363 698.5,402.5C 697.558,402.608 696.725,402.941 696,403.5C 693.802,401.755 691.636,400.088 689.5,398.5C 687.929,399.309 686.262,399.643 684.5,399.5C 681.129,395.968 677.295,392.968 673,390.5C 670.508,393.468 668.008,396.468 665.5,399.5C 664.06,400.952 662.394,401.952 660.5,402.5C 659.399,401.402 658.066,401.235 656.5,402C 656.833,402.333 657.167,402.667 657.5,403C 652.273,405.19 646.773,405.69 641,404.5C 636.242,404.366 631.742,405.032 627.5,406.5C 624.904,405.945 622.571,404.945 620.5,403.5C 621.602,401.908 620.935,401.075 618.5,401C 618.957,400.586 619.291,400.086 619.5,399.5C 617.994,398.253 616.494,398.253 615,399.5C 614.383,398.551 614.549,397.718 615.5,397C 613.744,396.798 612.078,396.298 610.5,395.5C 607.859,391.858 604.859,388.525 601.5,385.5C 599.786,386.609 599.119,385.942 599.5,383.5C 597.139,383.674 594.806,384.007 592.5,384.5C 591.861,394.227 592.528,403.56 594.5,412.5C 596.742,462.661 611.909,508.328 640,549.5C 646.075,555.07 651.575,561.07 656.5,567.5C 655.434,568.692 654.601,568.359 654,566.5C 653.833,567 653.667,567.5 653.5,568C 654.707,569.3 655.374,570.8 655.5,572.5C 659.352,573.612 663.019,575.279 666.5,577.5C 668.223,579.868 668.89,582.534 668.5,585.5C 667.844,586.278 667.011,586.944 666,587.5C 659.842,586.293 653.676,586.293 647.5,587.5C 647.719,586.325 647.386,585.325 646.5,584.5C 644.902,585.485 643.235,585.651 641.5,585C 642.711,584.107 642.711,583.274 641.5,582.5C 640.232,583.428 638.899,583.595 637.5,583C 637.957,582.586 638.291,582.086 638.5,581.5C 636.5,580.5 634.5,579.5 632.5,578.5C 631.558,578.608 630.725,578.941 630,579.5C 630.148,578.175 629.982,577.008 629.5,576C 627.623,575.424 625.789,575.591 624,576.5C 623.5,576.333 623,576.167 622.5,576C 623.711,575.107 623.711,574.274 622.5,573.5C 619.784,575.086 617.45,574.753 615.5,572.5C 612.572,571.516 609.572,571.183 606.5,571.5C 606.5,572.5 606.5,573.5 606.5,574.5C 603.988,574.423 601.988,575.423 600.5,577.5C 600.957,578.298 601.624,578.631 602.5,578.5C 600.26,584.231 598.76,590.231 598,596.5C 592.573,602.321 586.74,602.821 580.5,598C 575.575,593.245 570.908,588.411 566.5,583.5C 567.602,581.908 566.935,581.075 564.5,581C 564.957,580.586 565.291,580.086 565.5,579.5C 561.809,577.244 557.809,576.244 553.5,576.5C 553.5,575.5 553.5,574.5 553.5,573.5C 551.833,573.5 550.167,573.5 548.5,573.5C 548.376,575.952 547.376,577.952 545.5,579.5C 545.543,580.416 545.876,581.083 546.5,581.5C 544,588.314 542,595.314 540.5,602.5C 535.131,605.401 530.131,604.734 525.5,600.5C 524.185,598.684 522.685,597.017 521,595.5C 516.319,587.459 511.152,579.793 505.5,572.5C 506.739,571.788 507.239,570.788 507,569.5C 506.586,569.957 506.086,570.291 505.5,570.5C 505.331,569.603 504.998,568.603 504.5,567.5C 503.035,568.609 502.035,568.109 501.5,566C 500.5,565.833 499.5,565.667 498.5,565.5C 491.336,566.811 484.169,566.811 477,565.5C 475.833,565.833 474.667,566.167 473.5,566.5C 474.894,567.687 474.727,568.354 473,568.5C 471.856,568.089 470.689,567.756 469.5,567.5C 468.149,568.366 467.316,569.366 467,570.5C 465.7,569.548 464.533,569.548 463.5,570.5C 463.855,571.522 464.522,572.189 465.5,572.5C 455.97,578.767 445.97,584.267 435.5,589C 431.044,589.867 426.711,589.534 422.5,588C 421.398,585.599 421.231,583.099 422,580.5C 428.585,575.839 435.252,571.173 442,566.5C 442.601,563.363 443.601,560.363 445,557.5C 457.815,540.023 469.815,522.023 481,503.5C 485.703,493.105 489.536,482.438 492.5,471.5C 493.496,471.586 494.329,471.252 495,470.5C 495.249,471.624 495.749,472.624 496.5,473.5C 497.621,470.863 497.621,468.196 496.5,465.5C 496.667,464.833 496.833,464.167 497,463.5C 497.249,464.624 497.749,465.624 498.5,466.5C 498.833,464.5 499.167,462.5 499.5,460.5C 498.201,446.335 498.201,432.168 499.5,418C 499.167,415.5 498.833,413 498.5,410.5C 497.719,411.729 497.219,413.062 497,414.5C 497.081,404.832 496.248,395.165 494.5,385.5C 494.104,389.263 493.104,392.597 491.5,395.5C 489.794,388.967 489.128,382.301 489.5,375.5C 489.516,373.516 488.516,372.516 486.5,372.5C 484.261,375.521 481.428,376.188 478,374.5C 471.951,376.406 465.784,377.239 459.5,377C 460.902,375.658 460.569,374.824 458.5,374.5C 456.347,374.561 455.014,375.561 454.5,377.5C 449.915,384.971 444.582,391.971 438.5,398.5C 432.112,406.06 424.445,411.893 415.5,416C 404.842,419.889 394.508,419.223 384.5,414C 381.975,410.814 379.475,407.647 377,404.5C 370.25,407.458 363.75,410.791 357.5,414.5C 354.813,414.336 352.146,414.503 349.5,415C 349.833,415.333 350.167,415.667 350.5,416C 336.173,415.187 321.84,415.354 307.5,416.5C 304.763,415.969 302.096,415.136 299.5,414C 295.547,410.453 291.38,407.286 287,404.5C 282.439,406.53 277.939,408.697 273.5,411C 271.26,411.977 268.927,412.477 266.5,412.5C 258.486,411.623 250.652,411.29 243,411.5C 242.722,412.416 242.222,413.082 241.5,413.5C 218.684,406.174 200.184,392.84 186,373.5C 179.194,361.635 176.36,348.968 177.5,335.5C 178.209,336.404 179.209,336.737 180.5,336.5C 180.666,332.486 180.499,328.486 180,324.5C 179.329,325.252 178.496,325.586 177.5,325.5C 178.565,316.703 182.232,309.369 188.5,303.5C 189.79,304.058 190.623,305.058 191,306.5C 191.499,302.848 191.665,299.182 191.5,295.5C 196.544,295.827 201.544,295.494 206.5,294.5C 206.376,293.893 206.043,293.56 205.5,293.5C 204.449,292.778 203.782,291.778 203.5,290.5C 206.201,290.341 208.201,289.174 209.5,287C 201.94,269.504 204.607,254.004 217.5,240.5C 217.369,241.376 217.702,242.043 218.5,242.5C 223.833,235.833 229.833,229.833 236.5,224.5C 237.689,223.571 239.022,223.238 240.5,223.5C 240.48,221.857 241.147,220.524 242.5,219.5C 244.423,218.692 246.423,218.192 248.5,218C 246.866,217.506 245.199,217.34 243.5,217.5C 247.291,214.735 251.625,213.235 256.5,213C 257.428,212.612 258.095,211.945 258.5,211C 251.029,184 254.862,158.833 270,135.5C 272.449,131.876 275.616,129.21 279.5,127.5C 279.56,128.043 279.893,128.376 280.5,128.5C 285.985,125.591 291.318,122.424 296.5,119C 300.459,119.158 304.459,119.325 308.5,119.5C 309.21,116.14 307.876,114.307 304.5,114C 311.74,111.92 319.073,110.253 326.5,109C 324.292,108.809 322.292,108.309 320.5,107.5C 325.716,106.077 331.049,105.244 336.5,105C 338.53,99.8022 341.863,95.6356 346.5,92.5C 346.47,93.4972 346.97,94.1639 348,94.5C 352.109,92.8728 356.276,91.3728 360.5,90C 369.167,89.3333 377.833,89.3333 386.5,90C 392.435,91.8213 398.435,93.3213 404.5,94.5C 407.962,95.1533 411.128,96.4866 414,98.5C 417.655,95.6778 421.155,92.6778 424.5,89.5C 425.268,90.2625 425.768,91.2625 426,92.5C 427.435,90.7887 429.269,89.622 431.5,89C 436.886,90.0714 441.886,89.0714 446.5,86C 466.842,85.8331 487.175,85.3331 507.5,84.5C 508.243,83.8182 508.909,83.1515 509.5,82.5 Z"/></g>
<g><path style="opacity:1" fill="#485b3e" d="M 218.5,299.5 C 217.909,300.151 217.243,300.818 216.5,301.5C 212.213,302.817 207.88,303.817 203.5,304.5C 208.157,302.015 213.157,300.348 218.5,299.5 Z"/></g>
<g><path style="opacity:1" fill="#556e47" d="M 223.5,289.5 C 224.748,290.334 225.415,291.667 225.5,293.5C 225.326,298.007 222.992,300.007 218.5,299.5C 219.466,297.943 220.8,296.61 222.5,295.5C 223.466,293.604 223.799,291.604 223.5,289.5 Z"/></g>
<g><path style="opacity:1" fill="#526945" d="M 220.5,259.5 C 219.427,265.115 219.26,270.782 220,276.5C 220.71,277.973 221.876,278.64 223.5,278.5C 223.5,280.5 223.5,282.5 223.5,284.5C 221.824,283.817 221.157,282.483 221.5,280.5C 220.5,280.5 219.5,280.5 218.5,280.5C 217.872,273.087 218.539,266.087 220.5,259.5 Z"/></g>
<g><path style="opacity:1" fill="#415338" d="M 803.5,237.5 C 805.176,238.183 805.843,239.517 805.5,241.5C 803.824,240.817 803.157,239.483 803.5,237.5 Z"/></g>
<g><path style="opacity:1" fill="#4f6543" d="M 274.5,226.5 C 267.679,227.329 260.679,227.829 253.5,228C 251.354,229.602 249.02,230.768 246.5,231.5C 247.475,229.807 248.808,228.307 250.5,227C 258.493,226.5 266.493,226.334 274.5,226.5 Z"/></g>
<g><path style="opacity:1" fill="#556e47" d="M 272.5,211.5 C 273.583,211.539 274.583,211.873 275.5,212.5C 276.466,214.396 276.799,216.396 276.5,218.5C 274.431,216.708 273.097,214.374 272.5,211.5 Z"/></g>
<g><path style="opacity:1" fill="#577248" d="M 790.5,188.5 C 791.8,190.223 792.467,192.39 792.5,195C 792.467,197.61 791.8,199.777 790.5,201.5C 790.5,197.167 790.5,192.833 790.5,188.5 Z"/></g>
<g><path style="opacity:1" fill="#5a744b" d="M 268.5,179.5 C 268.328,188.249 268.994,196.916 270.5,205.5C 269.778,205.082 269.278,204.416 269,203.5C 267.886,197.37 267.053,191.204 266.5,185C 266.547,182.705 267.213,180.871 268.5,179.5 Z"/></g>
<g><path style="opacity:1" fill="#4a5d3f" d="M 775.5,177.5 C 779.223,177.534 782.223,178.867 784.5,181.5C 781.088,180.925 778.088,179.592 775.5,177.5 Z"/></g>
<g><path style="opacity:1" fill="#425439" d="M 765.5,173.5 C 768.082,173.025 770.082,173.692 771.5,175.5C 768.918,175.975 766.918,175.308 765.5,173.5 Z"/></g>
<g><path style="opacity:0.978" fill="#050303" d="M 257.5,167.5 C 258.222,167.918 258.722,168.584 259,169.5C 259.856,180.877 259.522,192.21 258,203.5C 257.5,191.505 257.333,179.505 257.5,167.5 Z"/></g>
<g><path style="opacity:1" fill="#678756" d="M 720.5,149.5 C 722.474,159.111 723.141,169.111 722.5,179.5C 721.811,169.599 721.144,159.599 720.5,149.5 Z"/></g>
<g><path style="opacity:1" fill="#4b6040" d="M 717.5,145.5 C 718.5,145.5 719.5,145.5 720.5,145.5C 720.5,146.833 720.5,148.167 720.5,149.5C 719.122,148.455 718.122,147.122 717.5,145.5 Z"/></g>
<g><path style="opacity:1" fill="#526c46" d="M 702.5,134.5 C 704.664,134.721 706.33,135.721 707.5,137.5C 705.833,137.5 704.167,137.5 702.5,137.5C 702.5,136.5 702.5,135.5 702.5,134.5 Z"/></g>
<g><path style="opacity:1" fill="#3d4d36" d="M 698.5,132.5 C 700.483,132.157 701.817,132.824 702.5,134.5C 700.517,134.843 699.183,134.176 698.5,132.5 Z"/></g>
<g><path style="opacity:1" fill="#668755" d="M 687.5,130.5 C 674.745,130.183 662.078,130.85 649.5,132.5C 652.744,130.888 656.411,129.888 660.5,129.5C 665,129.167 669.5,128.833 674,128.5C 678.886,128.507 683.386,129.174 687.5,130.5 Z"/></g>
<g><path style="opacity:1" fill="#3c4933" d="M 632.5,126.5 C 632.843,128.483 632.176,129.817 630.5,130.5C 630.157,128.517 630.824,127.183 632.5,126.5 Z"/></g>
<g><path style="opacity:1" fill="#74995f" d="M 360.5,100.5 C 366.167,100.5 371.833,100.5 377.5,100.5C 379.5,100.5 381.5,100.5 383.5,100.5C 385.279,102.344 387.612,103.01 390.5,102.5C 392.483,102.157 393.817,102.824 394.5,104.5C 389.364,104.362 384.364,103.529 379.5,102C 375.5,101.333 371.5,101.333 367.5,102C 362.389,103.722 357.389,105.722 352.5,108C 351.663,109.011 351.33,110.178 351.5,111.5C 347.473,111.006 344.473,112.506 342.5,116C 338.129,116.172 333.796,116.672 329.5,117.5C 330.615,120.791 329.615,123.457 326.5,125.5C 320.56,127.636 314.56,129.636 308.5,131.5C 305.605,133.407 304.272,136.074 304.5,139.5C 302.508,139.328 300.842,139.995 299.5,141.5C 298.366,144.167 297.366,146.833 296.5,149.5C 295.5,149.5 294.5,149.5 293.5,149.5C 288.816,161.303 286.816,173.636 287.5,186.5C 287.703,199.784 289.037,212.95 291.5,226C 291.211,230.599 290.544,235.099 289.5,239.5C 287.143,239.337 284.81,239.503 282.5,240C 282.833,240.333 283.167,240.667 283.5,241C 280.736,241.532 278.07,242.366 275.5,243.5C 272.113,246.553 268.447,249.22 264.5,251.5C 262.885,255.614 260.552,259.28 257.5,262.5C 256,262.833 254.5,263.167 253,263.5C 249.539,262.51 246.039,261.843 242.5,261.5C 241.726,257.556 241.059,257.723 240.5,262C 244.673,270.154 248.173,278.654 251,287.5C 251.824,290.882 251.657,294.216 250.5,297.5C 247.842,300.124 245.175,302.791 242.5,305.5C 238.167,307.5 233.833,309.5 229.5,311.5C 223.861,317.481 218.528,323.814 213.5,330.5C 212.167,334.833 212.167,339.167 213.5,343.5C 216.711,348.623 220.378,353.29 224.5,357.5C 225.429,358.689 225.762,360.022 225.5,361.5C 226.978,361.238 228.311,361.571 229.5,362.5C 235.488,369.984 242.821,375.817 251.5,380C 252.793,380.49 254.127,380.657 255.5,380.5C 255.5,381.5 255.5,382.5 255.5,383.5C 263.315,383.924 270.982,383.257 278.5,381.5C 278.338,379.473 278.505,377.473 279,375.5C 280.751,373.51 281.751,371.177 282,368.5C 286.68,362.507 292.014,361.84 298,366.5C 301.171,371.837 303.671,377.504 305.5,383.5C 307.247,386.224 309.747,387.557 313,387.5C 319.993,386.09 325.826,382.757 330.5,377.5C 343.47,373.968 356.636,370.968 370,368.5C 373.582,368.777 377.082,369.444 380.5,370.5C 385.936,367.669 390.936,368.335 395.5,372.5C 396.091,378.245 396.924,383.912 398,389.5C 398.5,389 399,388.5 399.5,388C 412.807,387.544 423.14,381.711 430.5,370.5C 428.675,364.321 428.009,357.988 428.5,351.5C 430.199,351.66 431.866,351.494 433.5,351C 439.188,346.298 445.521,345.298 452.5,348C 460.159,348.5 467.826,348.666 475.5,348.5C 475.5,347.167 475.5,345.833 475.5,344.5C 477.59,344.55 478.923,343.55 479.5,341.5C 487.833,340.167 496.167,340.167 504.5,341.5C 510.641,343.31 515.308,346.976 518.5,352.5C 521.439,353.456 523.772,355.123 525.5,357.5C 528.5,355.167 531.5,352.833 534.5,350.5C 535.429,349.311 535.762,347.978 535.5,346.5C 540.975,347.081 546.142,346.414 551,344.5C 551.449,348.701 552.949,352.368 555.5,355.5C 554.222,355.218 553.222,354.551 552.5,353.5C 551.666,352.252 550.333,351.585 548.5,351.5C 546.667,351.585 545.334,352.252 544.5,353.5C 541.641,357.725 539.641,362.392 538.5,367.5C 536.879,368.695 535.213,369.695 533.5,370.5C 528.5,370.5 523.5,370.5 518.5,370.5C 514.173,370.498 510.507,369.165 507.5,366.5C 506.91,364.903 505.91,363.569 504.5,362.5C 506.188,359.039 505.854,356.039 503.5,353.5C 502.306,352.223 500.64,351.556 498.5,351.5C 496.36,351.556 494.694,352.223 493.5,353.5C 489.477,359.17 484.143,362.837 477.5,364.5C 474.517,364.898 471.517,365.232 468.5,365.5C 464.743,365.039 461.409,363.705 458.5,361.5C 454.002,358.697 449.669,359.03 445.5,362.5C 442.106,366.622 439.772,371.289 438.5,376.5C 432.212,385.122 424.879,392.789 416.5,399.5C 414.488,401.341 412.155,402.341 409.5,402.5C 408.167,402.5 406.833,402.5 405.5,402.5C 400.359,402.655 395.359,401.988 390.5,400.5C 389.791,394.056 386.458,389.723 380.5,387.5C 374.436,389.366 368.77,392.032 363.5,395.5C 362.614,396.325 362.281,397.325 362.5,398.5C 357.079,401.085 351.412,403.085 345.5,404.5C 337.462,404.652 329.462,405.319 321.5,406.5C 315.494,405.056 309.828,403.056 304.5,400.5C 302.583,399.594 300.917,398.261 299.5,396.5C 298.833,392.833 298.167,389.167 297.5,385.5C 296.476,384.147 295.143,383.48 293.5,383.5C 293.5,382.5 293.5,381.5 293.5,380.5C 291.738,380.357 290.071,380.691 288.5,381.5C 287.943,383.332 286.943,384.665 285.5,385.5C 283.824,386.183 283.157,387.517 283.5,389.5C 280.248,390.418 277.914,392.418 276.5,395.5C 255.287,404.431 235.954,401.431 218.5,386.5C 217.311,385.571 215.978,385.238 214.5,385.5C 214.762,384.022 214.429,382.689 213.5,381.5C 194.629,366.732 187.129,347.399 191,323.5C 194.68,316.796 198.846,310.463 203.5,304.5C 207.88,303.817 212.213,302.817 216.5,301.5C 217.243,300.818 217.909,300.151 218.5,299.5C 222.992,300.007 225.326,298.007 225.5,293.5C 225.415,291.667 224.748,290.334 223.5,289.5C 223.5,287.833 223.5,286.167 223.5,284.5C 223.5,282.5 223.5,280.5 223.5,278.5C 221.876,278.64 220.71,277.973 220,276.5C 219.26,270.782 219.427,265.115 220.5,259.5C 220.421,258.07 220.754,256.736 221.5,255.5C 224.495,251.515 227.495,247.515 230.5,243.5C 234.767,240.238 238.767,236.571 242.5,232.5C 243.689,231.571 245.022,231.238 246.5,231.5C 249.02,230.768 251.354,229.602 253.5,228C 260.679,227.829 267.679,227.329 274.5,226.5C 275.968,224.084 276.635,221.417 276.5,218.5C 276.799,216.396 276.466,214.396 275.5,212.5C 274.583,211.873 273.583,211.539 272.5,211.5C 272.386,209.282 271.72,207.282 270.5,205.5C 268.994,196.916 268.328,188.249 268.5,179.5C 268.335,176.15 268.502,172.817 269,169.5C 271.505,161.473 274.005,153.473 276.5,145.5C 279.246,145.072 280.913,143.406 281.5,140.5C 293.064,129.719 306.398,122.052 321.5,117.5C 328.55,116.837 335.216,115.504 341.5,113.5C 342.066,111.922 343.066,110.588 344.5,109.5C 345.452,107.955 345.785,106.288 345.5,104.5C 350.249,102.296 355.249,100.963 360.5,100.5 Z"/></g>
<g><path style="opacity:1" fill="#658454" d="M 629.5,113.5 C 630.5,113.5 631.5,113.5 632.5,113.5C 633.229,116.28 633.896,119.113 634.5,122C 634.431,123.986 633.765,125.486 632.5,126.5C 632.663,124.143 632.497,121.81 632,119.5C 630.331,117.831 629.498,115.831 629.5,113.5 Z"/></g>
<g><path style="opacity:1" fill="#577349" d="M 341.5,113.5 C 335.216,115.504 328.55,116.837 321.5,117.5C 322.678,116.001 324.345,115.001 326.5,114.5C 331.456,113.506 336.456,113.173 341.5,113.5 Z"/></g>
<g><path style="opacity:1" fill="#6f935c" d="M 585.5,98.5 C 586.833,98.5 588.167,98.5 589.5,98.5C 596.596,98.729 603.596,99.729 610.5,101.5C 612.655,102.001 614.322,103.001 615.5,104.5C 605.072,103.348 595.072,101.348 585.5,98.5 Z"/></g>
<g><path style="opacity:1" fill="#3e4f36" d="M 383.5,100.5 C 386.388,99.9898 388.721,100.656 390.5,102.5C 387.612,103.01 385.279,102.344 383.5,100.5 Z"/></g>
<g><path style="opacity:1" fill="#4c6140" d="M 377.5,100.5 C 371.833,100.5 366.167,100.5 360.5,100.5C 362.915,99.1858 365.748,98.5191 369,98.5C 372.252,98.5191 375.085,99.1858 377.5,100.5 Z"/></g>
<g><path style="opacity:1" fill="#4d6341" d="M 589.5,98.5 C 588.167,98.5 586.833,98.5 585.5,98.5C 579.833,98.5 574.167,98.5 568.5,98.5C 571.598,97.179 575.098,96.5123 579,96.5C 582.902,96.5123 586.402,97.179 589.5,98.5 Z"/></g>
<g><path style="opacity:1" fill="#698b57" d="M 452.5,94.5 C 451.665,95.9432 450.332,96.9432 448.5,97.5C 445.572,98.4841 442.572,98.8174 439.5,98.5C 441.025,96.9642 443.025,95.9642 445.5,95.5C 447.743,94.5258 450.076,94.1924 452.5,94.5 Z"/></g>
<g><path style="opacity:1" fill="#7fa968" d="M 465.5,92.5 C 473.84,92.3336 482.173,92.5003 490.5,93C 494.67,94.8367 499.003,96.0033 503.5,96.5C 505.288,96.2148 506.955,96.5481 508.5,97.5C 513.547,99.6846 518.214,102.351 522.5,105.5C 522.302,108.906 523.302,111.906 525.5,114.5C 524.674,115.451 524.508,116.451 525,117.5C 526.794,117.009 528.794,117.009 531,117.5C 532.986,117.431 534.486,116.765 535.5,115.5C 537.189,113.147 539.522,111.48 542.5,110.5C 548.956,101.973 557.623,97.9731 568.5,98.5C 574.167,98.5 579.833,98.5 585.5,98.5C 595.072,101.348 605.072,103.348 615.5,104.5C 617.5,104.5 619.5,104.5 621.5,104.5C 621.281,105.675 621.614,106.675 622.5,107.5C 625.546,108.829 627.879,110.829 629.5,113.5C 629.498,115.831 630.331,117.831 632,119.5C 632.497,121.81 632.663,124.143 632.5,126.5C 630.824,127.183 630.157,128.517 630.5,130.5C 628.615,132.795 628.115,135.462 629,138.5C 629.759,140.063 630.926,141.063 632.5,141.5C 632.62,142.586 633.287,143.253 634.5,143.5C 635.713,143.253 636.38,142.586 636.5,141.5C 637.978,141.762 639.311,141.429 640.5,140.5C 643.52,137.719 646.52,135.052 649.5,132.5C 662.078,130.85 674.745,130.183 687.5,130.5C 691.285,130.631 694.952,131.298 698.5,132.5C 699.183,134.176 700.517,134.843 702.5,134.5C 702.5,135.5 702.5,136.5 702.5,137.5C 704.167,137.5 705.833,137.5 707.5,137.5C 710.833,140.167 714.167,142.833 717.5,145.5C 718.122,147.122 719.122,148.455 720.5,149.5C 721.144,159.599 721.811,169.599 722.5,179.5C 724.048,179.821 724.715,180.821 724.5,182.5C 725.152,183.725 726.319,184.392 728,184.5C 734.679,183.666 737.846,179.999 737.5,173.5C 741.24,172.533 745.074,171.866 749,171.5C 754.489,172.388 759.989,173.055 765.5,173.5C 766.918,175.308 768.918,175.975 771.5,175.5C 773.483,175.157 774.817,175.824 775.5,177.5C 778.088,179.592 781.088,180.925 784.5,181.5C 786.868,183.533 788.868,185.867 790.5,188.5C 790.5,192.833 790.5,197.167 790.5,201.5C 789.594,203.417 788.261,205.083 786.5,206.5C 768.256,217.008 769.59,223.341 790.5,225.5C 797.108,227.11 801.441,231.11 803.5,237.5C 803.157,239.483 803.824,240.817 805.5,241.5C 805.827,246.544 805.494,251.544 804.5,256.5C 803.198,258.802 801.532,260.802 799.5,262.5C 795.043,264.228 790.71,266.228 786.5,268.5C 783.695,272.707 784.362,276.374 788.5,279.5C 798.448,282.781 805.115,289.448 808.5,299.5C 809.802,303.098 810.802,306.765 811.5,310.5C 809.666,313.995 808.333,317.662 807.5,321.5C 803.741,320.958 801.074,322.292 799.5,325.5C 798.167,325.5 797.5,326.167 797.5,327.5C 795.989,328.502 794.322,329.169 792.5,329.5C 791.948,337.319 795.614,340.319 803.5,338.5C 803.826,342.884 803.492,347.217 802.5,351.5C 800.917,353.99 799.917,356.657 799.5,359.5C 797.446,359.365 795.779,360.032 794.5,361.5C 789.638,363.837 784.472,365.171 779,365.5C 775.074,365.134 771.24,364.467 767.5,363.5C 765.922,362.934 764.588,361.934 763.5,360.5C 759.637,359.179 755.97,359.512 752.5,361.5C 751.518,364.962 751.185,368.629 751.5,372.5C 742.122,372.529 733.122,374.362 724.5,378C 712.709,379.289 702.709,375.789 694.5,367.5C 693.311,366.571 691.978,366.238 690.5,366.5C 690.5,364.833 690.5,363.167 690.5,361.5C 682.922,362.563 675.589,364.23 668.5,366.5C 667.167,366.5 665.833,366.5 664.5,366.5C 664.5,367.833 664.5,369.167 664.5,370.5C 661.752,368.956 658.752,368.29 655.5,368.5C 655.5,369.833 655.5,371.167 655.5,372.5C 650.532,374.313 645.532,376.146 640.5,378C 636.833,378.667 633.167,378.667 629.5,378C 626.001,375.379 622.001,373.879 617.5,373.5C 614.854,371.868 613.521,369.535 613.5,366.5C 612.448,366.351 611.448,366.517 610.5,367C 611.888,367.889 611.722,368.389 610,368.5C 606.661,365.828 603.661,362.828 601,359.5C 600.51,358.207 600.343,356.873 600.5,355.5C 597.058,355.968 594.391,354.802 592.5,352C 590.667,351.833 588.833,351.667 587,351.5C 576.757,354.176 566.257,355.509 555.5,355.5C 552.949,352.368 551.449,348.701 551,344.5C 546.142,346.414 540.975,347.081 535.5,346.5C 535.762,347.978 535.429,349.311 534.5,350.5C 531.5,352.833 528.5,355.167 525.5,357.5C 523.772,355.123 521.439,353.456 518.5,352.5C 515.308,346.976 510.641,343.31 504.5,341.5C 496.167,340.167 487.833,340.167 479.5,341.5C 478.923,343.55 477.59,344.55 475.5,344.5C 475.5,345.833 475.5,347.167 475.5,348.5C 467.826,348.666 460.159,348.5 452.5,348C 445.521,345.298 439.188,346.298 433.5,351C 431.866,351.494 430.199,351.66 428.5,351.5C 428.009,357.988 428.675,364.321 430.5,370.5C 423.14,381.711 412.807,387.544 399.5,388C 399,388.5 398.5,389 398,389.5C 396.924,383.912 396.091,378.245 395.5,372.5C 390.936,368.335 385.936,367.669 380.5,370.5C 377.082,369.444 373.582,368.777 370,368.5C 356.636,370.968 343.47,373.968 330.5,377.5C 325.826,382.757 319.993,386.09 313,387.5C 309.747,387.557 307.247,386.224 305.5,383.5C 303.671,377.504 301.171,371.837 298,366.5C 292.014,361.84 286.68,362.507 282,368.5C 281.751,371.177 280.751,373.51 279,375.5C 278.505,377.473 278.338,379.473 278.5,381.5C 270.982,383.257 263.315,383.924 255.5,383.5C 255.5,382.5 255.5,381.5 255.5,380.5C 254.127,380.657 252.793,380.49 251.5,380C 242.821,375.817 235.488,369.984 229.5,362.5C 228.311,361.571 226.978,361.238 225.5,361.5C 225.762,360.022 225.429,358.689 224.5,357.5C 220.378,353.29 216.711,348.623 213.5,343.5C 212.167,339.167 212.167,334.833 213.5,330.5C 218.528,323.814 223.861,317.481 229.5,311.5C 233.833,309.5 238.167,307.5 242.5,305.5C 245.175,302.791 247.842,300.124 250.5,297.5C 251.657,294.216 251.824,290.882 251,287.5C 248.173,278.654 244.673,270.154 240.5,262C 241.059,257.723 241.726,257.556 242.5,261.5C 246.039,261.843 249.539,262.51 253,263.5C 254.5,263.167 256,262.833 257.5,262.5C 260.552,259.28 262.885,255.614 264.5,251.5C 268.447,249.22 272.113,246.553 275.5,243.5C 278.07,242.366 280.736,241.532 283.5,241C 283.167,240.667 282.833,240.333 282.5,240C 284.81,239.503 287.143,239.337 289.5,239.5C 290.544,235.099 291.211,230.599 291.5,226C 289.037,212.95 287.703,199.784 287.5,186.5C 286.816,173.636 288.816,161.303 293.5,149.5C 294.5,149.5 295.5,149.5 296.5,149.5C 297.366,146.833 298.366,144.167 299.5,141.5C 300.842,139.995 302.508,139.328 304.5,139.5C 304.272,136.074 305.605,133.407 308.5,131.5C 314.56,129.636 320.56,127.636 326.5,125.5C 329.615,123.457 330.615,120.791 329.5,117.5C 333.796,116.672 338.129,116.172 342.5,116C 344.473,112.506 347.473,111.006 351.5,111.5C 351.33,110.178 351.663,109.011 352.5,108C 357.389,105.722 362.389,103.722 367.5,102C 371.5,101.333 375.5,101.333 379.5,102C 384.364,103.529 389.364,104.362 394.5,104.5C 402.195,107.178 408.529,111.845 413.5,118.5C 417.363,119.821 421.03,119.488 424.5,117.5C 426.402,114.663 427.069,111.329 426.5,107.5C 429.264,107.001 430.931,105.335 431.5,102.5C 433.527,100.153 436.194,98.8192 439.5,98.5C 442.572,98.8174 445.572,98.4841 448.5,97.5C 450.332,96.9432 451.665,95.9432 452.5,94.5C 456.686,93.0921 461.019,92.4255 465.5,92.5 Z"/></g>
<g><path style="opacity:1" fill="#769d61" d="M 377.5,299.5 C 380.466,299.11 383.132,299.777 385.5,301.5C 387.188,304.304 388.355,307.304 389,310.5C 389.333,309.833 389.667,309.167 390,308.5C 390.499,312.152 390.665,315.818 390.5,319.5C 398.196,319.169 405.862,319.503 413.5,320.5C 414.544,321.623 415.21,322.956 415.5,324.5C 414.684,327.988 413.351,331.655 411.5,335.5C 398.948,342.73 387.114,341.73 376,332.5C 375.74,330.382 374.74,328.716 373,327.5C 371.445,322.48 370.612,317.48 370.5,312.5C 372.095,307.636 374.428,303.303 377.5,299.5 Z"/></g>
<g><path style="opacity:1" fill="#769d61" d="M 302.5,269.5 C 304.953,270.817 307.62,271.65 310.5,272C 313.318,276.406 314.151,281.239 313,286.5C 312.667,286.167 312.333,285.833 312,285.5C 310.736,289.381 310.569,293.381 311.5,297.5C 318.962,300.952 326.629,303.952 334.5,306.5C 334.728,311.015 334.062,315.348 332.5,319.5C 317.924,324.34 305.257,321.34 294.5,310.5C 293.813,308.726 292.98,307.059 292,305.5C 291.168,297.147 291.335,288.813 292.5,280.5C 294.48,276.181 297.813,273.848 302.5,273.5C 302.5,272.167 302.5,270.833 302.5,269.5 Z"/></g>
<g><path style="opacity:1" fill="#769d61" d="M 495.5,241.5 C 505.199,240.215 508.199,244.215 504.5,253.5C 504.727,257.294 506.727,259.294 510.5,259.5C 514.743,257.727 519.243,256.727 524,256.5C 530.355,255.063 534.188,257.396 535.5,263.5C 539.202,264.586 543.036,265.252 547,265.5C 555.159,264.812 563.159,263.479 571,261.5C 575.019,262.96 579.186,263.96 583.5,264.5C 585.669,268.29 586.002,272.29 584.5,276.5C 583.167,277.5 581.833,278.5 580.5,279.5C 568.063,281.785 555.73,284.119 543.5,286.5C 534.927,285.871 527.594,282.538 521.5,276.5C 514.677,279.376 508.011,279.043 501.5,275.5C 497.09,272.706 493.09,269.373 489.5,265.5C 488.337,259.863 488.17,254.196 489,248.5C 491.629,246.556 493.796,244.223 495.5,241.5 Z"/></g>
<g><path style="opacity:1" fill="#688856" d="M 737.5,173.5 C 737.846,179.999 734.679,183.666 728,184.5C 726.319,184.392 725.152,183.725 724.5,182.5C 726.975,183.788 729.308,183.455 731.5,181.5C 733.541,178.697 735.541,176.031 737.5,173.5 Z"/></g>
<g><path style="opacity:1" fill="#769d61" d="M 342.5,152.5 C 344.677,152.586 346.677,153.253 348.5,154.5C 349.495,160.128 349.829,165.794 349.5,171.5C 351.59,171.45 352.923,172.45 353.5,174.5C 357.179,175.599 360.846,176.599 364.5,177.5C 364.715,179.774 365.382,181.941 366.5,184C 365.76,186.244 364.426,188.077 362.5,189.5C 356.167,190.833 349.833,190.833 343.5,189.5C 339.817,186.813 336.483,183.813 333.5,180.5C 332.167,175.5 332.167,170.5 333.5,165.5C 335.775,160.6 338.775,156.267 342.5,152.5 Z"/></g>
<g><path style="opacity:1" fill="#769d61" d="M 448.5,147.5 C 452.048,147.941 455.048,149.441 457.5,152C 456.346,152.914 456.513,153.747 458,154.5C 458.853,158.857 459.687,163.191 460.5,167.5C 468.561,168.021 476.561,169.021 484.5,170.5C 488.089,173.771 489.256,177.771 488,182.5C 486.4,183.866 484.567,184.866 482.5,185.5C 473.859,186.498 465.192,186.831 456.5,186.5C 456.719,185.325 456.386,184.325 455.5,183.5C 451.834,181.788 448.501,179.788 445.5,177.5C 445.119,174.507 443.953,171.841 442,169.5C 440.959,161.055 443.126,153.721 448.5,147.5 Z"/></g>
<g><path style="opacity:1" fill="#475c3e" d="M 632.5,141.5 C 633.833,141.5 635.167,141.5 636.5,141.5C 636.38,142.586 635.713,143.253 634.5,143.5C 633.287,143.253 632.62,142.586 632.5,141.5 Z"/></g>
<g><path style="opacity:1" fill="#6a8b58" d="M 522.5,105.5 C 524.713,108.446 527.046,111.446 529.5,114.5C 531.396,115.466 533.396,115.799 535.5,115.5C 534.486,116.765 532.986,117.431 531,117.5C 528.794,117.009 526.794,117.009 525,117.5C 524.508,116.451 524.674,115.451 525.5,114.5C 523.302,111.906 522.302,108.906 522.5,105.5 Z"/></g>
<g><path style="opacity:1" fill="#648353" d="M 431.5,102.5 C 430.931,105.335 429.264,107.001 426.5,107.5C 427.069,111.329 426.402,114.663 424.5,117.5C 424.177,113.774 424.511,110.107 425.5,106.5C 427.007,104.31 429.007,102.976 431.5,102.5 Z"/></g>
<g><path style="opacity:0.522" fill="#2f3334" d="M 514.5,84.5 C 520.837,87.0216 526.504,90.5216 531.5,95C 533.929,95.7033 536.262,95.5366 538.5,94.5C 538.918,95.2216 539.584,95.7216 540.5,96C 538.938,97.3781 537.105,98.2114 535,98.5C 528.007,95.2664 521.174,91.933 514.5,88.5C 514.719,87.325 514.386,86.325 513.5,85.5C 512.065,87.4011 510.398,87.7345 508.5,86.5C 510.023,84.7175 512.023,84.0508 514.5,84.5 Z"/></g>
<g><path style="opacity:1" fill="#5e7c4f" d="M 486.5,90.5 C 489.986,91.5333 493.653,92.3666 497.5,93C 500.019,93.5864 502.019,94.7531 503.5,96.5C 499.003,96.0033 494.67,94.8367 490.5,93C 482.173,92.5003 473.84,92.3336 465.5,92.5C 472.253,90.7789 479.253,90.1122 486.5,90.5 Z"/></g>
<g><path style="opacity:1" fill="#3b4934" d="M 486.5,90.5 C 479.253,90.1122 472.253,90.7789 465.5,92.5C 461.019,92.4255 456.686,93.0921 452.5,94.5C 452.5,93.5 452.5,92.5 452.5,91.5C 460.688,91.0776 468.855,90.4109 477,89.5C 480.352,89.5018 483.518,89.8351 486.5,90.5 Z"/></g>
<g><path style="opacity:1" fill="#2e3133" d="M 576.5,82.5 C 576.5,83.5 576.5,84.5 576.5,85.5C 572.774,85.1774 569.107,85.5108 565.5,86.5C 567.22,87.934 569.22,88.7674 571.5,89C 566.817,89.5656 562.15,89.3989 557.5,88.5C 554.761,88.481 552.261,89.1477 550,90.5C 548.893,90.4148 547.893,90.0814 547,89.5C 546.261,92.5912 544.428,94.0912 541.5,94C 542.756,93.5831 543.423,92.7498 543.5,91.5C 543.953,90.5416 544.619,89.7083 545.5,89C 555.475,85.2049 565.809,83.0382 576.5,82.5 Z"/></g>
<g><path style="opacity:1" fill="#769c61" d="M 642.5,318.5 C 646.983,320.28 651.65,321.614 656.5,322.5C 657.786,322.148 658.619,321.482 659,320.5C 663.795,321.254 668.628,321.754 673.5,322C 675.946,322.881 678.279,324.047 680.5,325.5C 682.002,329.71 681.669,333.71 679.5,337.5C 672.151,341.307 664.318,342.974 656,342.5C 650.065,342.297 644.232,341.63 638.5,340.5C 636.27,336.886 634.937,332.886 634.5,328.5C 634.833,326.5 635.167,324.5 635.5,322.5C 637.771,320.87 640.104,319.537 642.5,318.5 Z"/></g>
<g><path style="opacity:1" fill="#435439" d="M 799.5,325.5 C 799.5,326.833 798.833,327.5 797.5,327.5C 797.5,326.167 798.167,325.5 799.5,325.5 Z"/></g>
<g><path style="opacity:0.137" fill="#3b3f35" d="M 177.5,335.5 C 177.5,332.167 177.5,328.833 177.5,325.5C 178.496,325.586 179.329,325.252 180,324.5C 180.499,328.486 180.666,332.486 180.5,336.5C 179.209,336.737 178.209,336.404 177.5,335.5 Z"/></g>
<g><path style="opacity:0.111" fill="#0d0e0e" d="M 820.5,318.5 C 821.042,322.544 820.209,326.211 818,329.5C 817.667,338.5 817.333,347.5 817,356.5C 816.722,357.416 816.222,358.082 815.5,358.5C 815.831,350.472 815.498,342.472 814.5,334.5C 813.808,335.025 813.308,335.692 813,336.5C 812.833,335.333 812.667,334.167 812.5,333C 813.234,330.095 814.901,327.762 817.5,326C 816.347,315.243 816.18,304.41 817,293.5C 817.333,292.833 817.667,292.167 818,291.5C 818.333,302.167 818.667,312.833 819,323.5C 819.198,321.618 819.698,319.952 820.5,318.5 Z"/></g>
<g><path style="opacity:1" fill="#425539" d="M 503.5,353.5 C 500.167,353.5 496.833,353.5 493.5,353.5C 494.694,352.223 496.36,351.556 498.5,351.5C 500.64,351.556 502.306,352.223 503.5,353.5 Z"/></g>
<g><path style="opacity:1" fill="#455b3c" d="M 552.5,353.5 C 549.833,353.5 547.167,353.5 544.5,353.5C 545.334,352.252 546.667,351.585 548.5,351.5C 550.333,351.585 551.666,352.252 552.5,353.5 Z"/></g>
<g><path style="opacity:1" fill="#506744" d="M 503.5,353.5 C 505.854,356.039 506.188,359.039 504.5,362.5C 505.91,363.569 506.91,364.903 507.5,366.5C 506.167,366.5 504.833,366.5 503.5,366.5C 503.5,362.167 503.5,357.833 503.5,353.5 Z"/></g>
<g><path style="opacity:1" fill="#73985f" d="M 752.5,361.5 C 753.065,369.664 751.399,377.331 747.5,384.5C 743.304,388.729 738.304,391.062 732.5,391.5C 724.167,391.5 715.833,391.5 707.5,391.5C 705.076,391.808 702.743,391.474 700.5,390.5C 696.29,388.228 691.957,386.228 687.5,384.5C 684.67,379.732 682.003,375.066 679.5,370.5C 679.64,368.876 678.973,367.71 677.5,367C 674.518,366.502 671.518,366.335 668.5,366.5C 675.589,364.23 682.922,362.563 690.5,361.5C 690.5,363.167 690.5,364.833 690.5,366.5C 691.978,366.238 693.311,366.571 694.5,367.5C 702.709,375.789 712.709,379.289 724.5,378C 733.122,374.362 742.122,372.529 751.5,372.5C 751.185,368.629 751.518,364.962 752.5,361.5 Z"/></g>
<g><path style="opacity:1" fill="#506843" d="M 458.5,361.5 C 461.409,363.705 464.743,365.039 468.5,365.5C 471.517,365.232 474.517,364.898 477.5,364.5C 477.082,365.222 476.416,365.722 475.5,366C 470.511,366.499 465.511,366.666 460.5,366.5C 460.169,364.678 459.502,363.011 458.5,361.5 Z"/></g>
<g><path style="opacity:1" fill="#6d915b" d="M 794.5,361.5 C 790.641,366.34 785.475,368.674 779,368.5C 774.065,369.03 770.232,367.363 767.5,363.5C 771.24,364.467 775.074,365.134 779,365.5C 784.472,365.171 789.638,363.837 794.5,361.5 Z"/></g>
<g><path style="opacity:1" fill="#59744a" d="M 668.5,366.5 C 671.518,366.335 674.518,366.502 677.5,367C 678.973,367.71 679.64,368.876 679.5,370.5C 676.03,368.512 672.363,368.179 668.5,369.5C 667.412,370.934 666.078,371.934 664.5,372.5C 664.5,371.833 664.5,371.167 664.5,370.5C 664.5,369.167 664.5,367.833 664.5,366.5C 665.833,366.5 667.167,366.5 668.5,366.5 Z"/></g>
<g><path style="opacity:1" fill="#516844" d="M 518.5,370.5 C 523.5,370.5 528.5,370.5 533.5,370.5C 531.429,371.809 528.929,372.475 526,372.5C 523.071,372.475 520.571,371.809 518.5,370.5 Z"/></g>
<g><path style="opacity:1" fill="#73985f" d="M 664.5,370.5 C 664.5,371.167 664.5,371.833 664.5,372.5C 663.483,375.797 662.15,378.797 660.5,381.5C 658.836,384.159 657.17,386.825 655.5,389.5C 652.833,390.833 650.167,392.167 647.5,393.5C 640.69,393.798 634.024,393.131 627.5,391.5C 621.615,389.277 615.948,386.61 610.5,383.5C 606.901,378.55 603.234,373.55 599.5,368.5C 598.476,367.147 597.143,366.48 595.5,366.5C 595.5,365.5 595.5,364.5 595.5,363.5C 592.833,363.5 590.167,363.5 587.5,363.5C 585.143,363.337 582.81,363.503 580.5,364C 579.244,364.417 578.577,365.25 578.5,366.5C 576.631,368.635 575.964,371.302 576.5,374.5C 575.167,374.5 573.833,374.5 572.5,374.5C 570.973,371.932 568.639,370.599 565.5,370.5C 564.265,370.279 563.265,369.612 562.5,368.5C 560.139,364.15 557.805,359.817 555.5,355.5C 566.257,355.509 576.757,354.176 587,351.5C 588.833,351.667 590.667,351.833 592.5,352C 594.391,354.802 597.058,355.968 600.5,355.5C 600.343,356.873 600.51,358.207 601,359.5C 603.661,362.828 606.661,365.828 610,368.5C 611.722,368.389 611.888,367.889 610.5,367C 611.448,366.517 612.448,366.351 613.5,366.5C 613.521,369.535 614.854,371.868 617.5,373.5C 622.001,373.879 626.001,375.379 629.5,378C 633.167,378.667 636.833,378.667 640.5,378C 645.532,376.146 650.532,374.313 655.5,372.5C 655.5,371.167 655.5,369.833 655.5,368.5C 658.752,368.29 661.752,368.956 664.5,370.5 Z"/></g>
<g><path style="opacity:1" fill="#445539" d="M 578.5,366.5 C 579.036,369.698 578.369,372.365 576.5,374.5C 575.964,371.302 576.631,368.635 578.5,366.5 Z"/></g>
<g><path style="opacity:1" fill="#415237" d="M 587.5,363.5 C 587.5,364.5 587.5,365.5 587.5,366.5C 584.5,366.5 581.5,366.5 578.5,366.5C 578.577,365.25 579.244,364.417 580.5,364C 582.81,363.503 585.143,363.337 587.5,363.5 Z"/></g>
<g><path style="opacity:1" fill="#506843" d="M 565.5,370.5 C 568.639,370.599 570.973,371.932 572.5,374.5C 569.361,374.401 567.027,373.068 565.5,370.5 Z"/></g>
<g><path style="opacity:1" fill="#796154" d="M 576.5,389.5 C 576.5,393.167 576.5,396.833 576.5,400.5C 574.194,399.188 571.861,397.855 569.5,396.5C 559.159,401.532 548.326,404.865 537,406.5C 533.924,405.306 530.757,404.639 527.5,404.5C 530.059,418.697 531.392,433.03 531.5,447.5C 530.5,463.825 529.834,480.158 529.5,496.5C 528.167,496.5 526.833,496.5 525.5,496.5C 522.384,508.414 518.384,520.081 513.5,531.5C 510.47,535.698 507.637,540.032 505,544.5C 503.989,545.337 502.822,545.67 501.5,545.5C 501.728,548.926 500.395,551.593 497.5,553.5C 499.332,554.057 500.665,555.057 501.5,556.5C 492.143,556.168 482.81,556.502 473.5,557.5C 470.833,558.5 468.167,559.5 465.5,560.5C 464.287,560.253 463.62,559.586 463.5,558.5C 474.568,542.046 484.902,525.046 494.5,507.5C 498.766,496.867 502.933,486.201 507,475.5C 507.896,468.253 509.562,461.253 512,454.5C 512.167,450.833 512.333,447.167 512.5,443.5C 510.89,429.108 509.223,414.774 507.5,400.5C 506.669,393.869 506.336,387.202 506.5,380.5C 510.893,382.429 515.559,383.429 520.5,383.5C 529.853,384.377 538.187,382.043 545.5,376.5C 546.429,375.311 546.762,373.978 546.5,372.5C 550.39,372.555 552.557,374.555 553,378.5C 555.921,380.377 558.754,382.377 561.5,384.5C 566.676,386.348 571.676,388.015 576.5,389.5 Z"/></g>
<g><path style="opacity:0.498" fill="#050607" d="M 489.5,375.5 C 482.621,378.291 475.454,379.957 468,380.5C 463.276,380.36 458.776,379.36 454.5,377.5C 455.014,375.561 456.347,374.561 458.5,374.5C 460.569,374.824 460.902,375.658 459.5,377C 465.784,377.239 471.951,376.406 478,374.5C 481.428,376.188 484.261,375.521 486.5,372.5C 488.516,372.516 489.516,373.516 489.5,375.5 Z"/></g>
<g><path style="opacity:1" fill="#54453e" d="M 520.5,383.5 C 515.559,383.429 510.893,382.429 506.5,380.5C 506.336,387.202 506.669,393.869 507.5,400.5C 506.778,400.082 506.278,399.416 506,398.5C 505.5,392.175 505.334,385.842 505.5,379.5C 507.857,379.337 510.19,379.503 512.5,380C 515.601,380.638 518.268,381.805 520.5,383.5 Z"/></g>
<g><path style="opacity:0.466" fill="#050405" d="M 806.5,372.5 C 804.599,374.796 802.266,376.629 799.5,378C 794.488,380.007 789.322,381.507 784,382.5C 781.533,385.366 778.533,386.033 775,384.5C 774.055,384.905 773.388,385.572 773,386.5C 773.824,394.186 770.658,396.853 763.5,394.5C 765.203,392.859 767.37,391.859 770,391.5C 770.606,388.57 771.44,385.737 772.5,383C 776.543,382.887 780.209,381.721 783.5,379.5C 787.19,381.324 789.857,380.324 791.5,376.5C 792.446,376.987 793.446,377.32 794.5,377.5C 796.666,377.57 796.999,376.904 795.5,375.5C 797.006,374.253 798.506,374.253 800,375.5C 801.667,373.833 803.333,372.167 805,370.5C 805.717,371.044 806.217,371.711 806.5,372.5 Z"/></g>
<g><path style="opacity:1" fill="#415138" d="M 285.5,385.5 C 285.843,387.483 285.176,388.817 283.5,389.5C 283.157,387.517 283.824,386.183 285.5,385.5 Z"/></g>
<g><path style="opacity:1" fill="#374131" d="M 660.5,381.5 C 661.197,385.827 659.53,388.494 655.5,389.5C 657.17,386.825 658.836,384.159 660.5,381.5 Z"/></g>
<g><path style="opacity:1" fill="#506744" d="M 283.5,389.5 C 282.422,392.908 280.089,394.908 276.5,395.5C 277.914,392.418 280.248,390.418 283.5,389.5 Z"/></g>
<g><path style="opacity:0.088" fill="#070808" d="M 620.5,403.5 C 612.576,400.088 605.576,395.254 599.5,389C 598.1,387.562 596.433,386.729 594.5,386.5C 594.5,395.167 594.5,403.833 594.5,412.5C 592.528,403.56 591.861,394.227 592.5,384.5C 594.806,384.007 597.139,383.674 599.5,383.5C 599.119,385.942 599.786,386.609 601.5,385.5C 604.859,388.525 607.859,391.858 610.5,395.5C 612.078,396.298 613.744,396.798 615.5,397C 614.549,397.718 614.383,398.551 615,399.5C 616.494,398.253 617.994,398.253 619.5,399.5C 619.291,400.086 618.957,400.586 618.5,401C 620.935,401.075 621.602,401.908 620.5,403.5 Z"/></g>
<g><path style="opacity:1" fill="#546f47" d="M 707.5,391.5 C 715.833,391.5 724.167,391.5 732.5,391.5C 729.062,392.823 725.229,393.49 721,393.5C 717.167,393.333 713.333,393.167 709.5,393C 708.584,392.722 707.918,392.222 707.5,391.5 Z"/></g>
<g><path style="opacity:1" fill="#5a764c" d="M 627.5,391.5 C 634.024,393.131 640.69,393.798 647.5,393.5C 647.5,393.833 647.5,394.167 647.5,394.5C 643.192,395.65 638.859,395.65 634.5,394.5C 631.728,394.241 629.395,393.241 627.5,391.5 Z"/></g>
<g><path style="opacity:1" fill="#394532" d="M 634.5,394.5 C 638.859,395.65 643.192,395.65 647.5,394.5C 646.129,395.787 644.295,396.453 642,396.5C 639.134,396.7 636.634,396.033 634.5,394.5 Z"/></g>
<g><path style="opacity:1" fill="#85695c" d="M 576.5,400.5 C 576.025,403.082 576.692,405.082 578.5,406.5C 579.97,418.776 580.804,431.109 581,443.5C 586.288,462.647 591.288,481.98 596,501.5C 601.576,514.658 607.743,527.658 614.5,540.5C 615.325,541.386 616.325,541.719 617.5,541.5C 618.729,545.627 620.729,549.294 623.5,552.5C 623.449,554.57 624.115,556.403 625.5,558C 624.863,559.713 623.863,559.879 622.5,558.5C 619.539,559.183 619.205,560.016 621.5,561C 614.754,560.869 608.421,561.702 602.5,563.5C 601.448,563.351 600.448,563.517 599.5,564C 596.683,567.318 593.683,570.485 590.5,573.5C 588.297,576.109 587.297,579.109 587.5,582.5C 585.712,582.785 584.045,582.452 582.5,581.5C 574.092,572.003 563.592,566.669 551,565.5C 545.83,564.91 541.663,566.577 538.5,570.5C 536.057,574.882 534.39,579.549 533.5,584.5C 531.508,584.672 529.842,584.005 528.5,582.5C 523.849,574.808 518.516,567.808 512.5,561.5C 509.418,558.678 505.752,557.011 501.5,556.5C 500.665,555.057 499.332,554.057 497.5,553.5C 500.395,551.593 501.728,548.926 501.5,545.5C 502.822,545.67 503.989,545.337 505,544.5C 507.637,540.032 510.47,535.698 513.5,531.5C 518.384,520.081 522.384,508.414 525.5,496.5C 526.833,496.5 528.167,496.5 529.5,496.5C 529.834,480.158 530.5,463.825 531.5,447.5C 531.392,433.03 530.059,418.697 527.5,404.5C 530.757,404.639 533.924,405.306 537,406.5C 548.326,404.865 559.159,401.532 569.5,396.5C 571.861,397.855 574.194,399.188 576.5,400.5 Z"/></g>
<g><path style="opacity:1" fill="#473a35" d="M 576.5,389.5 C 578.45,394.735 579.117,400.402 578.5,406.5C 576.692,405.082 576.025,403.082 576.5,400.5C 576.5,396.833 576.5,393.167 576.5,389.5 Z"/></g>
<g><path style="opacity:0.947" fill="#08080b" d="M 492.5,471.5 C 496.268,461.391 497.934,450.891 497.5,440C 497.333,435.5 497.167,431 497,426.5C 495.408,416.084 493.575,405.751 491.5,395.5C 493.104,392.597 494.104,389.263 494.5,385.5C 496.248,395.165 497.081,404.832 497,414.5C 497.219,413.062 497.719,411.729 498.5,410.5C 498.833,413 499.167,415.5 499.5,418C 498.201,432.168 498.201,446.335 499.5,460.5C 499.167,462.5 498.833,464.5 498.5,466.5C 497.749,465.624 497.249,464.624 497,463.5C 496.833,464.167 496.667,464.833 496.5,465.5C 497.621,468.196 497.621,470.863 496.5,473.5C 495.749,472.624 495.249,471.624 495,470.5C 494.329,471.252 493.496,471.586 492.5,471.5 Z"/></g>
<g><path style="opacity:1" fill="#5f7b4f" d="M 390.5,400.5 C 395.359,401.988 400.359,402.655 405.5,402.5C 405.5,403.167 405.5,403.833 405.5,404.5C 401.116,404.826 396.783,404.492 392.5,403.5C 391.388,402.735 390.721,401.735 390.5,400.5 Z"/></g>
<g><path style="opacity:1" fill="#3e4c35" d="M 405.5,402.5 C 406.833,402.5 408.167,402.5 409.5,402.5C 408.817,404.176 407.483,404.843 405.5,404.5C 405.5,403.833 405.5,403.167 405.5,402.5 Z"/></g>
<g><path style="opacity:1" fill="#03020b" d="M 589.5,385.5 C 590.829,390.792 591.496,396.458 591.5,402.5C 591.167,408.167 590.833,413.833 590.5,419.5C 589.501,408.186 589.168,396.853 589.5,385.5 Z"/></g>
<g><path style="opacity:1" fill="#5a764c" d="M 304.5,400.5 C 309.828,403.056 315.494,405.056 321.5,406.5C 329.462,405.319 337.462,404.652 345.5,404.5C 343.695,406.197 341.361,407.03 338.5,407C 328.788,407.824 319.121,407.491 309.5,406C 307.263,404.6 305.596,402.767 304.5,400.5 Z"/></g>
<g><path style="opacity:0.823" fill="#06050c" d="M 660.5,402.5 C 650.271,409.591 639.271,410.924 627.5,406.5C 631.742,405.032 636.242,404.366 641,404.5C 646.773,405.69 652.273,405.19 657.5,403C 657.167,402.667 656.833,402.333 656.5,402C 658.066,401.235 659.399,401.402 660.5,402.5 Z"/></g>
<g><path style="opacity:0.302" fill="#050409" d="M 738.5,405.5 C 723.941,409.514 709.274,409.348 694.5,405C 690.912,403.378 687.579,401.545 684.5,399.5C 686.262,399.643 687.929,399.309 689.5,398.5C 691.636,400.088 693.802,401.755 696,403.5C 696.725,402.941 697.558,402.608 698.5,402.5C 700.04,404.363 702.04,405.363 704.5,405.5C 715.825,404.388 727.159,404.388 738.5,405.5 Z"/></g>
<g><path style="opacity:0.3" fill="#030403" d="M 266.5,412.5 C 265.737,413.268 264.737,413.768 263.5,414C 255.988,414.822 248.655,414.655 241.5,413.5C 242.222,413.082 242.722,412.416 243,411.5C 250.652,411.29 258.486,411.623 266.5,412.5 Z"/></g>
<g><path style="opacity:0.186" fill="#09070e" d="M 357.5,414.5 C 355.402,415.935 353.069,417.102 350.5,418C 336.831,419.972 323.164,419.972 309.5,418C 308.584,417.722 307.918,417.222 307.5,416.5C 321.84,415.354 336.173,415.187 350.5,416C 350.167,415.667 349.833,415.333 349.5,415C 352.146,414.503 354.813,414.336 357.5,414.5 Z"/></g>
<g><path style="opacity:1" fill="#3c332f" d="M 501.5,556.5 C 505.752,557.011 509.418,558.678 512.5,561.5C 510.099,560.951 507.765,560.118 505.5,559C 490.089,557.247 475.089,558.747 460.5,563.5C 460.5,561.833 460.5,560.167 460.5,558.5C 461.5,558.5 462.5,558.5 463.5,558.5C 463.62,559.586 464.287,560.253 465.5,560.5C 468.167,559.5 470.833,558.5 473.5,557.5C 482.81,556.502 492.143,556.168 501.5,556.5 Z"/></g>
<g><path style="opacity:1" fill="#6c574d" d="M 623.5,552.5 C 627.757,556.43 631.757,560.764 635.5,565.5C 636.429,566.689 636.762,568.022 636.5,569.5C 631.5,567.969 626.5,566.303 621.5,564.5C 615.202,563.504 608.868,563.17 602.5,563.5C 608.421,561.702 614.754,560.869 621.5,561C 619.205,560.016 619.539,559.183 622.5,558.5C 623.863,559.879 624.863,559.713 625.5,558C 624.115,556.403 623.449,554.57 623.5,552.5 Z"/></g>
<g><path style="opacity:0.263" fill="#06040b" d="M 505.5,572.5 C 500.45,569.037 494.783,567.371 488.5,567.5C 480.511,567.783 472.844,569.449 465.5,572.5C 464.522,572.189 463.855,571.522 463.5,570.5C 464.533,569.548 465.7,569.548 467,570.5C 467.316,569.366 468.149,568.366 469.5,567.5C 470.689,567.756 471.856,568.089 473,568.5C 474.727,568.354 474.894,567.687 473.5,566.5C 474.667,566.167 475.833,565.833 477,565.5C 484.169,566.811 491.336,566.811 498.5,565.5C 499.5,565.667 500.5,565.833 501.5,566C 502.035,568.109 503.035,568.609 504.5,567.5C 504.998,568.603 505.331,569.603 505.5,570.5C 506.086,570.291 506.586,569.957 507,569.5C 507.239,570.788 506.739,571.788 505.5,572.5 Z"/></g>
<g><path style="opacity:0.078" fill="#2f302e" d="M 656.5,567.5 C 661.137,570.824 665.804,574.157 670.5,577.5C 671.655,580.446 671.821,583.446 671,586.5C 670.617,587.056 670.117,587.389 669.5,587.5C 668.662,587.158 668.328,586.492 668.5,585.5C 668.89,582.534 668.223,579.868 666.5,577.5C 663.019,575.279 659.352,573.612 655.5,572.5C 655.374,570.8 654.707,569.3 653.5,568C 653.667,567.5 653.833,567 654,566.5C 654.601,568.359 655.434,568.692 656.5,567.5 Z"/></g>
<g><path style="opacity:0.784" fill="#09070f" d="M 566.5,583.5 C 561.719,580.672 556.553,578.672 551,577.5C 548.695,577.973 547.195,579.307 546.5,581.5C 545.876,581.083 545.543,580.416 545.5,579.5C 547.376,577.952 548.376,575.952 548.5,573.5C 550.167,573.5 551.833,573.5 553.5,573.5C 553.5,574.5 553.5,575.5 553.5,576.5C 557.809,576.244 561.809,577.244 565.5,579.5C 565.291,580.086 564.957,580.586 564.5,581C 566.935,581.075 567.602,581.908 566.5,583.5 Z"/></g>
<g><path style="opacity:0.378" fill="#08070b" d="M 668.5,585.5 C 668.328,586.492 668.662,587.158 669.5,587.5C 668.653,588.966 667.32,589.8 665.5,590C 659.126,590.608 652.793,590.275 646.5,589C 635.03,582.898 623.03,578.065 610.5,574.5C 607.631,575.531 604.964,576.864 602.5,578.5C 601.624,578.631 600.957,578.298 600.5,577.5C 601.988,575.423 603.988,574.423 606.5,574.5C 606.5,573.5 606.5,572.5 606.5,571.5C 609.572,571.183 612.572,571.516 615.5,572.5C 617.45,574.753 619.784,575.086 622.5,573.5C 623.711,574.274 623.711,575.107 622.5,576C 623,576.167 623.5,576.333 624,576.5C 625.789,575.591 627.623,575.424 629.5,576C 629.982,577.008 630.148,578.175 630,579.5C 630.725,578.941 631.558,578.608 632.5,578.5C 634.5,579.5 636.5,580.5 638.5,581.5C 638.291,582.086 637.957,582.586 637.5,583C 638.899,583.595 640.232,583.428 641.5,582.5C 642.711,583.274 642.711,584.107 641.5,585C 643.235,585.651 644.902,585.485 646.5,584.5C 647.386,585.325 647.719,586.325 647.5,587.5C 653.676,586.293 659.842,586.293 666,587.5C 667.011,586.944 667.844,586.278 668.5,585.5 Z"/></g>
</svg>
